G04*
G04 #@! TF.GenerationSoftware,Altium Limited,Altium Designer,21.8.1 (53)*
G04*
G04 Layer_Color=16711935*
%FSLAX25Y25*%
%MOIN*%
G70*
G04*
G04 #@! TF.SameCoordinates,00E826D5-FD21-4A1A-8C14-BC2741F4279C*
G04*
G04*
G04 #@! TF.FilePolarity,Negative*
G04*
G01*
G75*
G04:AMPARAMS|DCode=40|XSize=58mil|YSize=45.4mil|CornerRadius=9.61mil|HoleSize=0mil|Usage=FLASHONLY|Rotation=90.000|XOffset=0mil|YOffset=0mil|HoleType=Round|Shape=RoundedRectangle|*
%AMROUNDEDRECTD40*
21,1,0.05800,0.02618,0,0,90.0*
21,1,0.03878,0.04540,0,0,90.0*
1,1,0.01922,0.01309,0.01939*
1,1,0.01922,0.01309,-0.01939*
1,1,0.01922,-0.01309,-0.01939*
1,1,0.01922,-0.01309,0.01939*
%
%ADD40ROUNDEDRECTD40*%
G04:AMPARAMS|DCode=41|XSize=58mil|YSize=45.4mil|CornerRadius=9.61mil|HoleSize=0mil|Usage=FLASHONLY|Rotation=0.000|XOffset=0mil|YOffset=0mil|HoleType=Round|Shape=RoundedRectangle|*
%AMROUNDEDRECTD41*
21,1,0.05800,0.02618,0,0,0.0*
21,1,0.03878,0.04540,0,0,0.0*
1,1,0.01922,0.01939,-0.01309*
1,1,0.01922,-0.01939,-0.01309*
1,1,0.01922,-0.01939,0.01309*
1,1,0.01922,0.01939,0.01309*
%
%ADD41ROUNDEDRECTD41*%
%ADD56C,0.07300*%
%ADD57R,0.07300X0.07300*%
%ADD58R,0.10800X0.10800*%
%ADD59R,0.07887X0.06706*%
%ADD60R,0.10249X0.13005*%
%ADD61C,0.20485*%
%ADD62R,0.07300X0.07300*%
%ADD63O,0.06300X0.07800*%
%ADD64R,0.06706X0.06706*%
%ADD65C,0.00800*%
%ADD66C,0.06800*%
%ADD67C,0.05800*%
D40*
X251874Y178500D02*
D03*
X244000D02*
D03*
X251768Y189000D02*
D03*
X243894D02*
D03*
D41*
X167600Y230363D02*
D03*
Y238237D02*
D03*
X155000Y230563D02*
D03*
Y238437D02*
D03*
D56*
X325400Y134000D02*
D03*
X335400D02*
D03*
X111900Y143400D02*
D03*
Y153400D02*
D03*
Y203400D02*
D03*
Y213400D02*
D03*
Y193400D02*
D03*
Y183400D02*
D03*
Y223400D02*
D03*
Y173400D02*
D03*
Y163400D02*
D03*
X247400Y313000D02*
D03*
D57*
X345400Y134000D02*
D03*
X257400Y313000D02*
D03*
D58*
X316200Y281843D02*
D03*
Y262043D02*
D03*
D59*
X244500Y163000D02*
D03*
Y153000D02*
D03*
Y143000D02*
D03*
Y133000D02*
D03*
X221000Y163000D02*
D03*
Y153000D02*
D03*
Y143000D02*
D03*
Y133000D02*
D03*
X150500Y163000D02*
D03*
Y153000D02*
D03*
Y143000D02*
D03*
Y133000D02*
D03*
X174000Y163000D02*
D03*
Y153000D02*
D03*
Y143000D02*
D03*
Y133000D02*
D03*
X197500Y163500D02*
D03*
Y153500D02*
D03*
Y143500D02*
D03*
Y133500D02*
D03*
D60*
X282000Y249500D02*
D03*
D61*
X115000Y115000D02*
D03*
X343347Y307913D02*
D03*
X115000D02*
D03*
D62*
X111900Y233400D02*
D03*
D63*
X324400Y110200D02*
D03*
X314400D02*
D03*
X304400D02*
D03*
X294400D02*
D03*
X284400D02*
D03*
X274400D02*
D03*
X264400D02*
D03*
X254400D02*
D03*
X244400D02*
D03*
X234400D02*
D03*
X224400D02*
D03*
X214400D02*
D03*
X204400D02*
D03*
X194400D02*
D03*
X184400D02*
D03*
X174400D02*
D03*
X144400D02*
D03*
X134400D02*
D03*
X164400D02*
D03*
X154400D02*
D03*
Y120200D02*
D03*
X164400D02*
D03*
X134400D02*
D03*
X144400D02*
D03*
X174400D02*
D03*
X184400D02*
D03*
X194400D02*
D03*
X204400D02*
D03*
X214400D02*
D03*
X224400D02*
D03*
X234400D02*
D03*
X244400D02*
D03*
X254400D02*
D03*
X264400D02*
D03*
X274400D02*
D03*
X284400D02*
D03*
X294400D02*
D03*
X304400D02*
D03*
X314400D02*
D03*
D64*
X324400D02*
D03*
D65*
X132083Y293693D02*
D03*
X172083D02*
D03*
X189683D02*
D03*
X229683D02*
D03*
D66*
X139603Y268693D02*
D03*
X144603Y258693D02*
D03*
X149603Y268693D02*
D03*
X154603Y258693D02*
D03*
X159603Y268693D02*
D03*
X164603Y258693D02*
D03*
X197203Y268693D02*
D03*
X202203Y258693D02*
D03*
X207203Y268693D02*
D03*
X212203Y258693D02*
D03*
X217203Y268693D02*
D03*
X222203Y258693D02*
D03*
D67*
X282000Y247000D02*
D03*
Y252000D02*
D03*
M02*
