G04*
G04 #@! TF.GenerationSoftware,Altium Limited,Altium Designer,21.8.1 (53)*
G04*
G04 Layer_Color=2752767*
%FSLAX25Y25*%
%MOIN*%
G70*
G04*
G04 #@! TF.SameCoordinates,FB86E89C-4923-4429-A6E5-CE89AAE78EE8*
G04*
G04*
G04 #@! TF.FilePolarity,Positive*
G04*
G01*
G75*
%ADD27C,0.00200*%
%ADD28C,0.00267*%
D27*
X267822Y312192D02*
Y313792D01*
X269422D01*
Y312192D01*
X267822D01*
X277822D02*
Y313792D01*
X279422D01*
Y312192D01*
X277822D01*
X324600Y133200D02*
Y134800D01*
X326200D01*
Y133200D01*
X324600D01*
X334600D02*
Y134800D01*
X336200D01*
Y133200D01*
X334600D01*
X344600D02*
Y134800D01*
X346200D01*
Y133200D01*
X344600D01*
X243700Y162200D02*
Y163800D01*
X245300D01*
Y162200D01*
X243700D01*
Y152200D02*
Y153800D01*
X245300D01*
Y152200D01*
X243700D01*
Y142200D02*
Y143800D01*
X245300D01*
Y142200D01*
X243700D01*
Y132200D02*
Y133800D01*
X245300D01*
Y132200D01*
X243700D01*
X220200Y162200D02*
Y163800D01*
X221800D01*
Y162200D01*
X220200D01*
Y152200D02*
Y153800D01*
X221800D01*
Y152200D01*
X220200D01*
Y142200D02*
Y143800D01*
X221800D01*
Y142200D01*
X220200D01*
Y132200D02*
Y133800D01*
X221800D01*
Y132200D01*
X220200D01*
X171000Y162500D02*
Y164100D01*
X172600D01*
Y162500D01*
X171000D01*
Y152500D02*
Y154100D01*
X172600D01*
Y152500D01*
X171000D01*
Y142500D02*
Y144100D01*
X172600D01*
Y142500D01*
X171000D01*
Y132500D02*
Y134100D01*
X172600D01*
Y132500D01*
X171000D01*
X195600Y162500D02*
Y164100D01*
X197200D01*
Y162500D01*
X195600D01*
Y152500D02*
Y154100D01*
X197200D01*
Y152500D01*
X195600D01*
Y142500D02*
Y144100D01*
X197200D01*
Y142500D01*
X195600D01*
Y132500D02*
Y134100D01*
X197200D01*
Y132500D01*
X195600D01*
X115000Y114200D02*
X114200Y115800D01*
X115800D01*
X115000Y114200D01*
X343347Y307113D02*
X342547Y308713D01*
X344146D01*
X343347Y307113D01*
X115000D02*
X114200Y308713D01*
X115800D01*
X115000Y307113D01*
X111100Y142600D02*
Y144200D01*
X112700D01*
Y142600D01*
X111100D01*
Y152600D02*
Y154200D01*
X112700D01*
Y152600D01*
X111100D01*
Y202600D02*
Y204200D01*
X112700D01*
Y202600D01*
X111100D01*
Y212600D02*
Y214200D01*
X112700D01*
Y212600D01*
X111100D01*
Y192600D02*
Y194200D01*
X112700D01*
Y192600D01*
X111100D01*
Y232600D02*
Y234200D01*
X112700D01*
Y232600D01*
X111100D01*
Y182600D02*
Y184200D01*
X112700D01*
Y182600D01*
X111100D01*
Y222600D02*
Y224200D01*
X112700D01*
Y222600D01*
X111100D01*
Y172600D02*
Y174200D01*
X112700D01*
Y172600D01*
X111100D01*
Y162600D02*
Y164200D01*
X112700D01*
Y162600D01*
X111100D01*
X323600Y109400D02*
Y111000D01*
X325200D01*
Y109400D01*
X323600D01*
X313600D02*
Y111000D01*
X315200D01*
Y109400D01*
X313600D01*
X303600D02*
Y111000D01*
X305200D01*
Y109400D01*
X303600D01*
X293600D02*
Y111000D01*
X295200D01*
Y109400D01*
X293600D01*
X283600D02*
Y111000D01*
X285200D01*
Y109400D01*
X283600D01*
X273600D02*
Y111000D01*
X275200D01*
Y109400D01*
X273600D01*
X263600D02*
Y111000D01*
X265200D01*
Y109400D01*
X263600D01*
X253600D02*
Y111000D01*
X255200D01*
Y109400D01*
X253600D01*
X243600D02*
Y111000D01*
X245200D01*
Y109400D01*
X243600D01*
X233600D02*
Y111000D01*
X235200D01*
Y109400D01*
X233600D01*
X223600D02*
Y111000D01*
X225200D01*
Y109400D01*
X223600D01*
X213600D02*
Y111000D01*
X215200D01*
Y109400D01*
X213600D01*
X203600D02*
Y111000D01*
X205200D01*
Y109400D01*
X203600D01*
X193600D02*
Y111000D01*
X195200D01*
Y109400D01*
X193600D01*
X183600D02*
Y111000D01*
X185200D01*
Y109400D01*
X183600D01*
X173600D02*
Y111000D01*
X175200D01*
Y109400D01*
X173600D01*
X143600D02*
Y111000D01*
X145200D01*
Y109400D01*
X143600D01*
X133600D02*
Y111000D01*
X135200D01*
Y109400D01*
X133600D01*
X323600Y119400D02*
Y121000D01*
X325200D01*
Y119400D01*
X323600D01*
X163600Y109400D02*
Y111000D01*
X165200D01*
Y109400D01*
X163600D01*
X153600D02*
Y111000D01*
X155200D01*
Y109400D01*
X153600D01*
Y119400D02*
Y121000D01*
X155200D01*
Y119400D01*
X153600D01*
X163600D02*
Y121000D01*
X165200D01*
Y119400D01*
X163600D01*
X133600D02*
Y121000D01*
X135200D01*
Y119400D01*
X133600D01*
X143600D02*
Y121000D01*
X145200D01*
Y119400D01*
X143600D01*
X173600D02*
Y121000D01*
X175200D01*
Y119400D01*
X173600D01*
X183600D02*
Y121000D01*
X185200D01*
Y119400D01*
X183600D01*
X193600D02*
Y121000D01*
X195200D01*
Y119400D01*
X193600D01*
X203600D02*
Y121000D01*
X205200D01*
Y119400D01*
X203600D01*
X213600D02*
Y121000D01*
X215200D01*
Y119400D01*
X213600D01*
X223600D02*
Y121000D01*
X225200D01*
Y119400D01*
X223600D01*
X233600D02*
Y121000D01*
X235200D01*
Y119400D01*
X233600D01*
X243600D02*
Y121000D01*
X245200D01*
Y119400D01*
X243600D01*
X253600D02*
Y121000D01*
X255200D01*
Y119400D01*
X253600D01*
X263600D02*
Y121000D01*
X265200D01*
Y119400D01*
X263600D01*
X273600D02*
Y121000D01*
X275200D01*
Y119400D01*
X273600D01*
X283600D02*
Y121000D01*
X285200D01*
Y119400D01*
X283600D01*
X293600D02*
Y121000D01*
X295200D01*
Y119400D01*
X293600D01*
X303600D02*
Y121000D01*
X305200D01*
Y119400D01*
X303600D01*
X313600D02*
Y121000D01*
X315200D01*
Y119400D01*
X313600D01*
X132083Y292893D02*
X132483Y293293D01*
X132884D01*
X132483Y293693D01*
X132884Y294093D01*
X132483D01*
X132083Y294493D01*
X131684Y294093D01*
X131283D01*
X131684Y293693D01*
X131283Y293293D01*
X131684D01*
X132083Y292893D01*
X172083D02*
X172484Y293293D01*
X172883D01*
X172484Y293693D01*
X172883Y294093D01*
X172484D01*
X172083Y294493D01*
X171684Y294093D01*
X171283D01*
X171684Y293693D01*
X171283Y293293D01*
X171684D01*
X172083Y292893D01*
X138803Y267893D02*
X139203Y268693D01*
X138803Y269493D01*
X139603Y269093D01*
X140403Y269493D01*
X140003Y268693D01*
X140403Y267893D01*
X139603Y268293D01*
X138803Y267893D01*
X143803Y257893D02*
X144203Y258693D01*
X143803Y259493D01*
X144603Y259093D01*
X145403Y259493D01*
X145003Y258693D01*
X145403Y257893D01*
X144603Y258293D01*
X143803Y257893D01*
X148803Y267893D02*
X149203Y268693D01*
X148803Y269493D01*
X149603Y269093D01*
X150403Y269493D01*
X150003Y268693D01*
X150403Y267893D01*
X149603Y268293D01*
X148803Y267893D01*
X153803Y257893D02*
X154203Y258693D01*
X153803Y259493D01*
X154603Y259093D01*
X155403Y259493D01*
X155003Y258693D01*
X155403Y257893D01*
X154603Y258293D01*
X153803Y257893D01*
X158803Y267893D02*
X159203Y268693D01*
X158803Y269493D01*
X159603Y269093D01*
X160403Y269493D01*
X160003Y268693D01*
X160403Y267893D01*
X159603Y268293D01*
X158803Y267893D01*
X163803Y257893D02*
X164203Y258693D01*
X163803Y259493D01*
X164603Y259093D01*
X165403Y259493D01*
X165003Y258693D01*
X165403Y257893D01*
X164603Y258293D01*
X163803Y257893D01*
X189683Y292893D02*
X190084Y293293D01*
X190483D01*
X190084Y293693D01*
X190483Y294093D01*
X190084D01*
X189683Y294493D01*
X189284Y294093D01*
X188883D01*
X189284Y293693D01*
X188883Y293293D01*
X189284D01*
X189683Y292893D01*
X229683D02*
X230083Y293293D01*
X230484D01*
X230083Y293693D01*
X230484Y294093D01*
X230083D01*
X229683Y294493D01*
X229283Y294093D01*
X228884D01*
X229283Y293693D01*
X228884Y293293D01*
X229283D01*
X229683Y292893D01*
X196403Y267893D02*
X196803Y268693D01*
X196403Y269493D01*
X197203Y269093D01*
X198003Y269493D01*
X197603Y268693D01*
X198003Y267893D01*
X197203Y268293D01*
X196403Y267893D01*
X201403Y257893D02*
X201803Y258693D01*
X201403Y259493D01*
X202203Y259093D01*
X203003Y259493D01*
X202603Y258693D01*
X203003Y257893D01*
X202203Y258293D01*
X201403Y257893D01*
X206403Y267893D02*
X206803Y268693D01*
X206403Y269493D01*
X207203Y269093D01*
X208003Y269493D01*
X207603Y268693D01*
X208003Y267893D01*
X207203Y268293D01*
X206403Y267893D01*
X211403Y257893D02*
X211803Y258693D01*
X211403Y259493D01*
X212203Y259093D01*
X213003Y259493D01*
X212603Y258693D01*
X213003Y257893D01*
X212203Y258293D01*
X211403Y257893D01*
X216403Y267893D02*
X216803Y268693D01*
X216403Y269493D01*
X217203Y269093D01*
X218003Y269493D01*
X217603Y268693D01*
X218003Y267893D01*
X217203Y268293D01*
X216403Y267893D01*
X221403Y257893D02*
X221803Y258693D01*
X221403Y259493D01*
X222203Y259093D01*
X223003Y259493D01*
X222603Y258693D01*
X223003Y257893D01*
X222203Y258293D01*
X221403Y257893D01*
X247000Y312600D02*
Y312200D01*
X247800D01*
Y312600D01*
X248200D01*
Y313400D01*
X247800D01*
Y313800D01*
X247000D01*
Y313400D01*
X246600D01*
Y312600D01*
X247000D01*
X257000D02*
Y312200D01*
X257800D01*
Y312600D01*
X258200D01*
Y313400D01*
X257800D01*
Y313800D01*
X257000D01*
Y313400D01*
X256600D01*
Y312600D01*
X257000D01*
X229600Y207100D02*
X230000D01*
X230400Y207500D01*
X230800Y207100D01*
X231200D01*
Y207500D01*
X230800Y207900D01*
X231200Y208300D01*
Y208700D01*
X230800D01*
X230400Y208300D01*
X230000Y208700D01*
X229600D01*
Y208300D01*
X230000Y207900D01*
X229600Y207500D01*
Y207100D01*
X258649Y155118D02*
X259449Y155918D01*
X260249Y155118D01*
X259449Y154318D01*
X258649Y155118D01*
X223565Y216567D02*
X223965D01*
X224365Y216967D01*
X224765Y216567D01*
X225165D01*
Y216967D01*
X224765Y217367D01*
X225165Y217767D01*
Y218167D01*
X224765D01*
X224365Y217767D01*
X223965Y218167D01*
X223565D01*
Y217767D01*
X223965Y217367D01*
X223565Y216967D01*
Y216567D01*
X224003Y207074D02*
X224403D01*
X224803Y207474D01*
X225203Y207074D01*
X225603D01*
Y207474D01*
X225203Y207874D01*
X225603Y208274D01*
Y208674D01*
X225203D01*
X224803Y208274D01*
X224403Y208674D01*
X224003D01*
Y208274D01*
X224403Y207874D01*
X224003Y207474D01*
Y207074D01*
X229423Y213675D02*
X229823D01*
X230223Y214075D01*
X230623Y213675D01*
X231023D01*
Y214075D01*
X230623Y214475D01*
X231023Y214875D01*
Y215275D01*
X230623D01*
X230223Y214875D01*
X229823Y215275D01*
X229423D01*
Y214875D01*
X229823Y214475D01*
X229423Y214075D01*
Y213675D01*
X206287Y196444D02*
X206687D01*
X207087Y196844D01*
X207487Y196444D01*
X207887D01*
Y196844D01*
X207487Y197244D01*
X207887Y197644D01*
Y198044D01*
X207487D01*
X207087Y197644D01*
X206687Y198044D01*
X206287D01*
Y197644D01*
X206687Y197244D01*
X206287Y196844D01*
Y196444D01*
Y192113D02*
X206687D01*
X207087Y192513D01*
X207487Y192113D01*
X207887D01*
Y192513D01*
X207487Y192913D01*
X207887Y193313D01*
Y193713D01*
X207487D01*
X207087Y193313D01*
X206687Y193713D01*
X206287D01*
Y193313D01*
X206687Y192913D01*
X206287Y192513D01*
Y192113D01*
X231484Y171262D02*
X231884D01*
X232283Y171662D01*
X232683Y171262D01*
X233084D01*
Y171662D01*
X232683Y172062D01*
X233084Y172462D01*
Y172862D01*
X232683D01*
X232283Y172462D01*
X231884Y172862D01*
X231484D01*
Y172462D01*
X231884Y172062D01*
X231484Y171662D01*
Y171262D01*
X318491Y313373D02*
X318891D01*
X319291Y313773D01*
X319691Y313373D01*
X320091D01*
Y313773D01*
X319691Y314173D01*
X320091Y314573D01*
Y314973D01*
X319691D01*
X319291Y314573D01*
X318891Y314973D01*
X318491D01*
Y314573D01*
X318891Y314173D01*
X318491Y313773D01*
Y313373D01*
X194082Y200775D02*
X194482D01*
X194882Y201175D01*
X195282Y200775D01*
X195682D01*
Y201175D01*
X195282Y201575D01*
X195682Y201975D01*
Y202375D01*
X195282D01*
X194882Y201975D01*
X194482Y202375D01*
X194082D01*
Y201975D01*
X194482Y201575D01*
X194082Y201175D01*
Y200775D01*
X146444Y209830D02*
X146844D01*
X147244Y210230D01*
X147644Y209830D01*
X148044D01*
Y210230D01*
X147644Y210630D01*
X148044Y211030D01*
Y211430D01*
X147644D01*
X147244Y211030D01*
X146844Y211430D01*
X146444D01*
Y211030D01*
X146844Y210630D01*
X146444Y210230D01*
Y209830D01*
Y202743D02*
X146844D01*
X147244Y203143D01*
X147644Y202743D01*
X148044D01*
Y203143D01*
X147644Y203543D01*
X148044Y203943D01*
Y204343D01*
X147644D01*
X147244Y203943D01*
X146844Y204343D01*
X146444D01*
Y203943D01*
X146844Y203543D01*
X146444Y203143D01*
Y202743D01*
X227547Y227547D02*
X227946D01*
X228346Y227946D01*
X228747Y227547D01*
X229147D01*
Y227946D01*
X228747Y228346D01*
X229147Y228747D01*
Y229147D01*
X228747D01*
X228346Y228747D01*
X227946Y229147D01*
X227547D01*
Y228747D01*
X227946Y228346D01*
X227547Y227946D01*
Y227547D01*
X176759Y177547D02*
X177159D01*
X177559Y177946D01*
X177959Y177547D01*
X178359D01*
Y177946D01*
X177959Y178347D01*
X178359Y178746D01*
Y179147D01*
X177959D01*
X177559Y178746D01*
X177159Y179147D01*
X176759D01*
Y178746D01*
X177159Y178347D01*
X176759Y177946D01*
Y177547D01*
X177153Y194869D02*
X177553D01*
X177953Y195269D01*
X178353Y194869D01*
X178753D01*
Y195269D01*
X178353Y195669D01*
X178753Y196069D01*
Y196469D01*
X178353D01*
X177953Y196069D01*
X177553Y196469D01*
X177153D01*
Y196069D01*
X177553Y195669D01*
X177153Y195269D01*
Y194869D01*
X206200Y248700D02*
X206600D01*
X207000Y249100D01*
X207400Y248700D01*
X207800D01*
Y249100D01*
X207400Y249500D01*
X207800Y249900D01*
Y250300D01*
X207400D01*
X207000Y249900D01*
X206600Y250300D01*
X206200D01*
Y249900D01*
X206600Y249500D01*
X206200Y249100D01*
Y248700D01*
X227547Y188176D02*
X227946D01*
X228346Y188576D01*
X228747Y188176D01*
X229147D01*
Y188576D01*
X228747Y188976D01*
X229147Y189376D01*
Y189776D01*
X228747D01*
X228346Y189376D01*
X227946Y189776D01*
X227547D01*
Y189376D01*
X227946Y188976D01*
X227547Y188576D01*
Y188176D01*
Y194082D02*
X227946D01*
X228346Y194482D01*
X228747Y194082D01*
X229147D01*
Y194482D01*
X228747Y194882D01*
X229147Y195282D01*
Y195682D01*
X228747D01*
X228346Y195282D01*
X227946Y195682D01*
X227547D01*
Y195282D01*
X227946Y194882D01*
X227547Y194482D01*
Y194082D01*
X311798Y170066D02*
X312198D01*
X312598Y170466D01*
X312998Y170066D01*
X313398D01*
Y170466D01*
X312998Y170866D01*
X313398Y171266D01*
Y171666D01*
X312998D01*
X312598Y171266D01*
X312198Y171666D01*
X311798D01*
Y171266D01*
X312198Y170866D01*
X311798Y170466D01*
Y170066D01*
X306680D02*
X307080D01*
X307480Y170466D01*
X307880Y170066D01*
X308280D01*
Y170466D01*
X307880Y170866D01*
X308280Y171266D01*
Y171666D01*
X307880D01*
X307480Y171266D01*
X307080Y171666D01*
X306680D01*
Y171266D01*
X307080Y170866D01*
X306680Y170466D01*
Y170066D01*
X262586Y142113D02*
X262986D01*
X263386Y142513D01*
X263786Y142113D01*
X264186D01*
Y142513D01*
X263786Y142913D01*
X264186Y143313D01*
Y143713D01*
X263786D01*
X263386Y143313D01*
X262986Y143713D01*
X262586D01*
Y143313D01*
X262986Y142913D01*
X262586Y142513D01*
Y142113D01*
X297900Y142000D02*
X298300D01*
X298700Y142400D01*
X299100Y142000D01*
X299500D01*
Y142400D01*
X299100Y142800D01*
X299500Y143200D01*
Y143600D01*
X299100D01*
X298700Y143200D01*
X298300Y143600D01*
X297900D01*
Y143200D01*
X298300Y142800D01*
X297900Y142400D01*
Y142000D01*
X291800D02*
X292200D01*
X292600Y142400D01*
X293000Y142000D01*
X293400D01*
Y142400D01*
X293000Y142800D01*
X293400Y143200D01*
Y143600D01*
X293000D01*
X292600Y143200D01*
X292200Y143600D01*
X291800D01*
Y143200D01*
X292200Y142800D01*
X291800Y142400D01*
Y142000D01*
Y146500D02*
X292200D01*
X292600Y146900D01*
X293000Y146500D01*
X293400D01*
Y146900D01*
X293000Y147300D01*
X293400Y147700D01*
Y148100D01*
X293000D01*
X292600Y147700D01*
X292200Y148100D01*
X291800D01*
Y147700D01*
X292200Y147300D01*
X291800Y146900D01*
Y146500D01*
X267310Y142113D02*
X267710D01*
X268110Y142513D01*
X268510Y142113D01*
X268910D01*
Y142513D01*
X268510Y142913D01*
X268910Y143313D01*
Y143713D01*
X268510D01*
X268110Y143313D01*
X267710Y143713D01*
X267310D01*
Y143313D01*
X267710Y142913D01*
X267310Y142513D01*
Y142113D01*
X281484Y159830D02*
X281884D01*
X282283Y160230D01*
X282683Y159830D01*
X283084D01*
Y160230D01*
X282683Y160630D01*
X283084Y161030D01*
Y161430D01*
X282683D01*
X282283Y161030D01*
X281884Y161430D01*
X281484D01*
Y161030D01*
X281884Y160630D01*
X281484Y160230D01*
Y159830D01*
X278334D02*
X278734D01*
X279134Y160230D01*
X279534Y159830D01*
X279934D01*
Y160230D01*
X279534Y160630D01*
X279934Y161030D01*
Y161430D01*
X279534D01*
X279134Y161030D01*
X278734Y161430D01*
X278334D01*
Y161030D01*
X278734Y160630D01*
X278334Y160230D01*
Y159830D01*
X275184D02*
X275584D01*
X275984Y160230D01*
X276384Y159830D01*
X276784D01*
Y160230D01*
X276384Y160630D01*
X276784Y161030D01*
Y161430D01*
X276384D01*
X275984Y161030D01*
X275584Y161430D01*
X275184D01*
Y161030D01*
X275584Y160630D01*
X275184Y160230D01*
Y159830D01*
X284633D02*
X285033D01*
X285433Y160230D01*
X285833Y159830D01*
X286233D01*
Y160230D01*
X285833Y160630D01*
X286233Y161030D01*
Y161430D01*
X285833D01*
X285433Y161030D01*
X285033Y161430D01*
X284633D01*
Y161030D01*
X285033Y160630D01*
X284633Y160230D01*
Y159830D01*
X262586Y155118D02*
X263386Y155918D01*
X264186Y155118D01*
X263386Y154318D01*
X262586Y155118D01*
X266523D02*
X267323Y155918D01*
X268123Y155118D01*
X267323Y154318D01*
X266523Y155118D01*
X270460D02*
X271260Y155918D01*
X272060Y155118D01*
X271260Y154318D01*
X270460Y155118D01*
X258649Y160630D02*
X259449Y161430D01*
X260249Y160630D01*
X259449Y159830D01*
X258649Y160630D01*
X262586D02*
X263386Y161430D01*
X264186Y160630D01*
X263386Y159830D01*
X262586Y160630D01*
X266523D02*
X267323Y161430D01*
X268123Y160630D01*
X267323Y159830D01*
X266523Y160630D01*
X270460D02*
X271260Y161430D01*
X272060Y160630D01*
X271260Y159830D01*
X270460Y160630D01*
X310000Y142000D02*
X310400D01*
X310800Y142400D01*
X311200Y142000D01*
X311600D01*
Y142400D01*
X311200Y142800D01*
X311600Y143200D01*
Y143600D01*
X311200D01*
X310800Y143200D01*
X310400Y143600D01*
X310000D01*
Y143200D01*
X310400Y142800D01*
X310000Y142400D01*
Y142000D01*
Y146500D02*
X310400D01*
X310800Y146900D01*
X311200Y146500D01*
X311600D01*
Y146900D01*
X311200Y147300D01*
X311600Y147700D01*
Y148100D01*
X311200D01*
X310800Y147700D01*
X310400Y148100D01*
X310000D01*
Y147700D01*
X310400Y147300D01*
X310000Y146900D01*
Y146500D01*
X131000Y233300D02*
X131400D01*
X131800Y233700D01*
X132200Y233300D01*
X132600D01*
Y233700D01*
X132200Y234100D01*
X132600Y234500D01*
Y234900D01*
X132200D01*
X131800Y234500D01*
X131400Y234900D01*
X131000D01*
Y234500D01*
X131400Y234100D01*
X131000Y233700D01*
Y233300D01*
X130900Y230500D02*
X131300D01*
X131700Y230900D01*
X132100Y230500D01*
X132500D01*
Y230900D01*
X132100Y231300D01*
X132500Y231700D01*
Y232100D01*
X132100D01*
X131700Y231700D01*
X131300Y232100D01*
X130900D01*
Y231700D01*
X131300Y231300D01*
X130900Y230900D01*
Y230500D01*
X134100D02*
X134500D01*
X134900Y230900D01*
X135300Y230500D01*
X135700D01*
Y230900D01*
X135300Y231300D01*
X135700Y231700D01*
Y232100D01*
X135300D01*
X134900Y231700D01*
X134500Y232100D01*
X134100D01*
Y231700D01*
X134500Y231300D01*
X134100Y230900D01*
Y230500D01*
X134200Y233300D02*
X134600D01*
X135000Y233700D01*
X135400Y233300D01*
X135800D01*
Y233700D01*
X135400Y234100D01*
X135800Y234500D01*
Y234900D01*
X135400D01*
X135000Y234500D01*
X134600Y234900D01*
X134200D01*
Y234500D01*
X134600Y234100D01*
X134200Y233700D01*
Y233300D01*
X140400Y233200D02*
X140800D01*
X141200Y233600D01*
X141600Y233200D01*
X142000D01*
Y233600D01*
X141600Y234000D01*
X142000Y234400D01*
Y234800D01*
X141600D01*
X141200Y234400D01*
X140800Y234800D01*
X140400D01*
Y234400D01*
X140800Y234000D01*
X140400Y233600D01*
Y233200D01*
X140300Y230400D02*
X140700D01*
X141100Y230800D01*
X141500Y230400D01*
X141900D01*
Y230800D01*
X141500Y231200D01*
X141900Y231600D01*
Y232000D01*
X141500D01*
X141100Y231600D01*
X140700Y232000D01*
X140300D01*
Y231600D01*
X140700Y231200D01*
X140300Y230800D01*
Y230400D01*
X137100D02*
X137500D01*
X137900Y230800D01*
X138300Y230400D01*
X138700D01*
Y230800D01*
X138300Y231200D01*
X138700Y231600D01*
Y232000D01*
X138300D01*
X137900Y231600D01*
X137500Y232000D01*
X137100D01*
Y231600D01*
X137500Y231200D01*
X137100Y230800D01*
Y230400D01*
X137200Y233200D02*
X137600D01*
X138000Y233600D01*
X138400Y233200D01*
X138800D01*
Y233600D01*
X138400Y234000D01*
X138800Y234400D01*
Y234800D01*
X138400D01*
X138000Y234400D01*
X137600Y234800D01*
X137200D01*
Y234400D01*
X137600Y234000D01*
X137200Y233600D01*
Y233200D01*
X286742Y313373D02*
X287142D01*
X287543Y313773D01*
X287943Y313373D01*
X288342D01*
Y313773D01*
X287943Y314173D01*
X288342Y314573D01*
Y314973D01*
X287943D01*
X287543Y314573D01*
X287142Y314973D01*
X286742D01*
Y314573D01*
X287142Y314173D01*
X286742Y313773D01*
Y313373D01*
X255700Y177200D02*
X256100D01*
X256500Y177600D01*
X256900Y177200D01*
X257300D01*
Y177600D01*
X256900Y178000D01*
X257300Y178400D01*
Y178800D01*
X256900D01*
X256500Y178400D01*
X256100Y178800D01*
X255700D01*
Y178400D01*
X256100Y178000D01*
X255700Y177600D01*
Y177200D01*
Y188200D02*
X256100D01*
X256500Y188600D01*
X256900Y188200D01*
X257300D01*
Y188600D01*
X256900Y189000D01*
X257300Y189400D01*
Y189800D01*
X256900D01*
X256500Y189400D01*
X256100Y189800D01*
X255700D01*
Y189400D01*
X256100Y189000D01*
X255700Y188600D01*
Y188200D01*
X251200Y183200D02*
X251600D01*
X252000Y183600D01*
X252400Y183200D01*
X252800D01*
Y183600D01*
X252400Y184000D01*
X252800Y184400D01*
Y184800D01*
X252400D01*
X252000Y184400D01*
X251600Y184800D01*
X251200D01*
Y184400D01*
X251600Y184000D01*
X251200Y183600D01*
Y183200D01*
Y172200D02*
X251600D01*
X252000Y172600D01*
X252400Y172200D01*
X252800D01*
Y172600D01*
X252400Y173000D01*
X252800Y173400D01*
Y173800D01*
X252400D01*
X252000Y173400D01*
X251600Y173800D01*
X251200D01*
Y173400D01*
X251600Y173000D01*
X251200Y172600D01*
Y172200D01*
X281000Y237300D02*
X281400D01*
X281800Y237700D01*
X282200Y237300D01*
X282600D01*
Y237700D01*
X282200Y238100D01*
X282600Y238500D01*
Y238900D01*
X282200D01*
X281800Y238500D01*
X281400Y238900D01*
X281000D01*
Y238500D01*
X281400Y238100D01*
X281000Y237700D01*
Y237300D01*
X284400D02*
X284800D01*
X285200Y237700D01*
X285600Y237300D01*
X286000D01*
Y237700D01*
X285600Y238100D01*
X286000Y238500D01*
Y238900D01*
X285600D01*
X285200Y238500D01*
X284800Y238900D01*
X284400D01*
Y238500D01*
X284800Y238100D01*
X284400Y237700D01*
Y237300D01*
X277800D02*
X278200D01*
X278600Y237700D01*
X279000Y237300D01*
X279400D01*
Y237700D01*
X279000Y238100D01*
X279400Y238500D01*
Y238900D01*
X279000D01*
X278600Y238500D01*
X278200Y238900D01*
X277800D01*
Y238500D01*
X278200Y238100D01*
X277800Y237700D01*
Y237300D01*
X256800Y262000D02*
X257200D01*
X257600Y262400D01*
X258000Y262000D01*
X258400D01*
Y262400D01*
X258000Y262800D01*
X258400Y263200D01*
Y263600D01*
X258000D01*
X257600Y263200D01*
X257200Y263600D01*
X256800D01*
Y263200D01*
X257200Y262800D01*
X256800Y262400D01*
Y262000D01*
X260400D02*
X260800D01*
X261200Y262400D01*
X261600Y262000D01*
X262000D01*
Y262400D01*
X261600Y262800D01*
X262000Y263200D01*
Y263600D01*
X261600D01*
X261200Y263200D01*
X260800Y263600D01*
X260400D01*
Y263200D01*
X260800Y262800D01*
X260400Y262400D01*
Y262000D01*
X264000Y261900D02*
X264400D01*
X264800Y262300D01*
X265200Y261900D01*
X265600D01*
Y262300D01*
X265200Y262700D01*
X265600Y263100D01*
Y263500D01*
X265200D01*
X264800Y263100D01*
X264400Y263500D01*
X264000D01*
Y263100D01*
X264400Y262700D01*
X264000Y262300D01*
Y261900D01*
X278700Y261200D02*
X279100D01*
X279500Y261600D01*
X279900Y261200D01*
X280300D01*
Y261600D01*
X279900Y262000D01*
X280300Y262400D01*
Y262800D01*
X279900D01*
X279500Y262400D01*
X279100Y262800D01*
X278700D01*
Y262400D01*
X279100Y262000D01*
X278700Y261600D01*
Y261200D01*
Y264100D02*
X279100D01*
X279500Y264500D01*
X279900Y264100D01*
X280300D01*
Y264500D01*
X279900Y264900D01*
X280300Y265300D01*
Y265700D01*
X279900D01*
X279500Y265300D01*
X279100Y265700D01*
X278700D01*
Y265300D01*
X279100Y264900D01*
X278700Y264500D01*
Y264100D01*
X276000D02*
X276400D01*
X276800Y264500D01*
X277200Y264100D01*
X277600D01*
Y264500D01*
X277200Y264900D01*
X277600Y265300D01*
Y265700D01*
X277200D01*
X276800Y265300D01*
X276400Y265700D01*
X276000D01*
Y265300D01*
X276400Y264900D01*
X276000Y264500D01*
Y264100D01*
X273100Y264200D02*
X273500D01*
X273900Y264600D01*
X274300Y264200D01*
X274700D01*
Y264600D01*
X274300Y265000D01*
X274700Y265400D01*
Y265800D01*
X274300D01*
X273900Y265400D01*
X273500Y265800D01*
X273100D01*
Y265400D01*
X273500Y265000D01*
X273100Y264600D01*
Y264200D01*
X265800D02*
X266200D01*
X266600Y264600D01*
X267000Y264200D01*
X267400D01*
Y264600D01*
X267000Y265000D01*
X267400Y265400D01*
Y265800D01*
X267000D01*
X266600Y265400D01*
X266200Y265800D01*
X265800D01*
Y265400D01*
X266200Y265000D01*
X265800Y264600D01*
Y264200D01*
X262200D02*
X262600D01*
X263000Y264600D01*
X263400Y264200D01*
X263800D01*
Y264600D01*
X263400Y265000D01*
X263800Y265400D01*
Y265800D01*
X263400D01*
X263000Y265400D01*
X262600Y265800D01*
X262200D01*
Y265400D01*
X262600Y265000D01*
X262200Y264600D01*
Y264200D01*
X258800Y264300D02*
X259200D01*
X259600Y264700D01*
X260000Y264300D01*
X260400D01*
Y264700D01*
X260000Y265100D01*
X260400Y265500D01*
Y265900D01*
X260000D01*
X259600Y265500D01*
X259200Y265900D01*
X258800D01*
Y265500D01*
X259200Y265100D01*
X258800Y264700D01*
Y264300D01*
X325700Y238700D02*
X326100D01*
X326500Y239100D01*
X326900Y238700D01*
X327300D01*
Y239100D01*
X326900Y239500D01*
X327300Y239900D01*
Y240300D01*
X326900D01*
X326500Y239900D01*
X326100Y240300D01*
X325700D01*
Y239900D01*
X326100Y239500D01*
X325700Y239100D01*
Y238700D01*
X281200Y246200D02*
Y247800D01*
X282800D01*
Y246200D01*
X281200D01*
X281600Y246600D02*
Y247400D01*
X282400D01*
Y246600D01*
X281600D01*
X281200Y251200D02*
Y252800D01*
X282800D01*
Y251200D01*
X281200D01*
X281600Y251600D02*
Y252400D01*
X282400D01*
Y251600D01*
X281600D01*
X339900Y269500D02*
X340300D01*
X340700Y269900D01*
X341100Y269500D01*
X341500D01*
Y269900D01*
X341100Y270300D01*
X341500Y270700D01*
Y271100D01*
X341100D01*
X340700Y270700D01*
X340300Y271100D01*
X339900D01*
Y270700D01*
X340300Y270300D01*
X339900Y269900D01*
Y269500D01*
X339800Y266400D02*
X340200D01*
X340600Y266800D01*
X341000Y266400D01*
X341400D01*
Y266800D01*
X341000Y267200D01*
X341400Y267600D01*
Y268000D01*
X341000D01*
X340600Y267600D01*
X340200Y268000D01*
X339800D01*
Y267600D01*
X340200Y267200D01*
X339800Y266800D01*
Y266400D01*
Y263500D02*
X340200D01*
X340600Y263900D01*
X341000Y263500D01*
X341400D01*
Y263900D01*
X341000Y264300D01*
X341400Y264700D01*
Y265100D01*
X341000D01*
X340600Y264700D01*
X340200Y265100D01*
X339800D01*
Y264700D01*
X340200Y264300D01*
X339800Y263900D01*
Y263500D01*
Y260600D02*
X340200D01*
X340600Y261000D01*
X341000Y260600D01*
X341400D01*
Y261000D01*
X341000Y261400D01*
X341400Y261800D01*
Y262200D01*
X341000D01*
X340600Y261800D01*
X340200Y262200D01*
X339800D01*
Y261800D01*
X340200Y261400D01*
X339800Y261000D01*
Y260600D01*
X339700Y257800D02*
X340100D01*
X340500Y258200D01*
X340900Y257800D01*
X341300D01*
Y258200D01*
X340900Y258600D01*
X341300Y259000D01*
Y259400D01*
X340900D01*
X340500Y259000D01*
X340100Y259400D01*
X339700D01*
Y259000D01*
X340100Y258600D01*
X339700Y258200D01*
Y257800D01*
X342900D02*
X343300D01*
X343700Y258200D01*
X344100Y257800D01*
X344500D01*
Y258200D01*
X344100Y258600D01*
X344500Y259000D01*
Y259400D01*
X344100D01*
X343700Y259000D01*
X343300Y259400D01*
X342900D01*
Y259000D01*
X343300Y258600D01*
X342900Y258200D01*
Y257800D01*
X343000Y260600D02*
X343400D01*
X343800Y261000D01*
X344200Y260600D01*
X344600D01*
Y261000D01*
X344200Y261400D01*
X344600Y261800D01*
Y262200D01*
X344200D01*
X343800Y261800D01*
X343400Y262200D01*
X343000D01*
Y261800D01*
X343400Y261400D01*
X343000Y261000D01*
Y260600D01*
Y263500D02*
X343400D01*
X343800Y263900D01*
X344200Y263500D01*
X344600D01*
Y263900D01*
X344200Y264300D01*
X344600Y264700D01*
Y265100D01*
X344200D01*
X343800Y264700D01*
X343400Y265100D01*
X343000D01*
Y264700D01*
X343400Y264300D01*
X343000Y263900D01*
Y263500D01*
Y266400D02*
X343400D01*
X343800Y266800D01*
X344200Y266400D01*
X344600D01*
Y266800D01*
X344200Y267200D01*
X344600Y267600D01*
Y268000D01*
X344200D01*
X343800Y267600D01*
X343400Y268000D01*
X343000D01*
Y267600D01*
X343400Y267200D01*
X343000Y266800D01*
Y266400D01*
X343100Y269500D02*
X343500D01*
X343900Y269900D01*
X344300Y269500D01*
X344700D01*
Y269900D01*
X344300Y270300D01*
X344700Y270700D01*
Y271100D01*
X344300D01*
X343900Y270700D01*
X343500Y271100D01*
X343100D01*
Y270700D01*
X343500Y270300D01*
X343100Y269900D01*
Y269500D01*
X336900Y269600D02*
X337300D01*
X337700Y270000D01*
X338100Y269600D01*
X338500D01*
Y270000D01*
X338100Y270400D01*
X338500Y270800D01*
Y271200D01*
X338100D01*
X337700Y270800D01*
X337300Y271200D01*
X336900D01*
Y270800D01*
X337300Y270400D01*
X336900Y270000D01*
Y269600D01*
X336800Y266500D02*
X337200D01*
X337600Y266900D01*
X338000Y266500D01*
X338400D01*
Y266900D01*
X338000Y267300D01*
X338400Y267700D01*
Y268100D01*
X338000D01*
X337600Y267700D01*
X337200Y268100D01*
X336800D01*
Y267700D01*
X337200Y267300D01*
X336800Y266900D01*
Y266500D01*
Y263600D02*
X337200D01*
X337600Y264000D01*
X338000Y263600D01*
X338400D01*
Y264000D01*
X338000Y264400D01*
X338400Y264800D01*
Y265200D01*
X338000D01*
X337600Y264800D01*
X337200Y265200D01*
X336800D01*
Y264800D01*
X337200Y264400D01*
X336800Y264000D01*
Y263600D01*
Y260700D02*
X337200D01*
X337600Y261100D01*
X338000Y260700D01*
X338400D01*
Y261100D01*
X338000Y261500D01*
X338400Y261900D01*
Y262300D01*
X338000D01*
X337600Y261900D01*
X337200Y262300D01*
X336800D01*
Y261900D01*
X337200Y261500D01*
X336800Y261100D01*
Y260700D01*
X336700Y257900D02*
X337100D01*
X337500Y258300D01*
X337900Y257900D01*
X338300D01*
Y258300D01*
X337900Y258700D01*
X338300Y259100D01*
Y259500D01*
X337900D01*
X337500Y259100D01*
X337100Y259500D01*
X336700D01*
Y259100D01*
X337100Y258700D01*
X336700Y258300D01*
Y257900D01*
X333500D02*
X333900D01*
X334300Y258300D01*
X334700Y257900D01*
X335100D01*
Y258300D01*
X334700Y258700D01*
X335100Y259100D01*
Y259500D01*
X334700D01*
X334300Y259100D01*
X333900Y259500D01*
X333500D01*
Y259100D01*
X333900Y258700D01*
X333500Y258300D01*
Y257900D01*
X333600Y260700D02*
X334000D01*
X334400Y261100D01*
X334800Y260700D01*
X335200D01*
Y261100D01*
X334800Y261500D01*
X335200Y261900D01*
Y262300D01*
X334800D01*
X334400Y261900D01*
X334000Y262300D01*
X333600D01*
Y261900D01*
X334000Y261500D01*
X333600Y261100D01*
Y260700D01*
Y263600D02*
X334000D01*
X334400Y264000D01*
X334800Y263600D01*
X335200D01*
Y264000D01*
X334800Y264400D01*
X335200Y264800D01*
Y265200D01*
X334800D01*
X334400Y264800D01*
X334000Y265200D01*
X333600D01*
Y264800D01*
X334000Y264400D01*
X333600Y264000D01*
Y263600D01*
Y266500D02*
X334000D01*
X334400Y266900D01*
X334800Y266500D01*
X335200D01*
Y266900D01*
X334800Y267300D01*
X335200Y267700D01*
Y268100D01*
X334800D01*
X334400Y267700D01*
X334000Y268100D01*
X333600D01*
Y267700D01*
X334000Y267300D01*
X333600Y266900D01*
Y266500D01*
X333700Y269600D02*
X334100D01*
X334500Y270000D01*
X334900Y269600D01*
X335300D01*
Y270000D01*
X334900Y270400D01*
X335300Y270800D01*
Y271200D01*
X334900D01*
X334500Y270800D01*
X334100Y271200D01*
X333700D01*
Y270800D01*
X334100Y270400D01*
X333700Y270000D01*
Y269600D01*
X340000Y284400D02*
X340400D01*
X340800Y284800D01*
X341200Y284400D01*
X341600D01*
Y284800D01*
X341200Y285200D01*
X341600Y285600D01*
Y286000D01*
X341200D01*
X340800Y285600D01*
X340400Y286000D01*
X340000D01*
Y285600D01*
X340400Y285200D01*
X340000Y284800D01*
Y284400D01*
X339900Y281300D02*
X340300D01*
X340700Y281700D01*
X341100Y281300D01*
X341500D01*
Y281700D01*
X341100Y282100D01*
X341500Y282500D01*
Y282900D01*
X341100D01*
X340700Y282500D01*
X340300Y282900D01*
X339900D01*
Y282500D01*
X340300Y282100D01*
X339900Y281700D01*
Y281300D01*
Y278400D02*
X340300D01*
X340700Y278800D01*
X341100Y278400D01*
X341500D01*
Y278800D01*
X341100Y279200D01*
X341500Y279600D01*
Y280000D01*
X341100D01*
X340700Y279600D01*
X340300Y280000D01*
X339900D01*
Y279600D01*
X340300Y279200D01*
X339900Y278800D01*
Y278400D01*
Y275500D02*
X340300D01*
X340700Y275900D01*
X341100Y275500D01*
X341500D01*
Y275900D01*
X341100Y276300D01*
X341500Y276700D01*
Y277100D01*
X341100D01*
X340700Y276700D01*
X340300Y277100D01*
X339900D01*
Y276700D01*
X340300Y276300D01*
X339900Y275900D01*
Y275500D01*
X339800Y272700D02*
X340200D01*
X340600Y273100D01*
X341000Y272700D01*
X341400D01*
Y273100D01*
X341000Y273500D01*
X341400Y273900D01*
Y274300D01*
X341000D01*
X340600Y273900D01*
X340200Y274300D01*
X339800D01*
Y273900D01*
X340200Y273500D01*
X339800Y273100D01*
Y272700D01*
X343000D02*
X343400D01*
X343800Y273100D01*
X344200Y272700D01*
X344600D01*
Y273100D01*
X344200Y273500D01*
X344600Y273900D01*
Y274300D01*
X344200D01*
X343800Y273900D01*
X343400Y274300D01*
X343000D01*
Y273900D01*
X343400Y273500D01*
X343000Y273100D01*
Y272700D01*
X343100Y275500D02*
X343500D01*
X343900Y275900D01*
X344300Y275500D01*
X344700D01*
Y275900D01*
X344300Y276300D01*
X344700Y276700D01*
Y277100D01*
X344300D01*
X343900Y276700D01*
X343500Y277100D01*
X343100D01*
Y276700D01*
X343500Y276300D01*
X343100Y275900D01*
Y275500D01*
Y278400D02*
X343500D01*
X343900Y278800D01*
X344300Y278400D01*
X344700D01*
Y278800D01*
X344300Y279200D01*
X344700Y279600D01*
Y280000D01*
X344300D01*
X343900Y279600D01*
X343500Y280000D01*
X343100D01*
Y279600D01*
X343500Y279200D01*
X343100Y278800D01*
Y278400D01*
Y281300D02*
X343500D01*
X343900Y281700D01*
X344300Y281300D01*
X344700D01*
Y281700D01*
X344300Y282100D01*
X344700Y282500D01*
Y282900D01*
X344300D01*
X343900Y282500D01*
X343500Y282900D01*
X343100D01*
Y282500D01*
X343500Y282100D01*
X343100Y281700D01*
Y281300D01*
X343200Y284400D02*
X343600D01*
X344000Y284800D01*
X344400Y284400D01*
X344800D01*
Y284800D01*
X344400Y285200D01*
X344800Y285600D01*
Y286000D01*
X344400D01*
X344000Y285600D01*
X343600Y286000D01*
X343200D01*
Y285600D01*
X343600Y285200D01*
X343200Y284800D01*
Y284400D01*
X337000Y284500D02*
X337400D01*
X337800Y284900D01*
X338200Y284500D01*
X338600D01*
Y284900D01*
X338200Y285300D01*
X338600Y285700D01*
Y286100D01*
X338200D01*
X337800Y285700D01*
X337400Y286100D01*
X337000D01*
Y285700D01*
X337400Y285300D01*
X337000Y284900D01*
Y284500D01*
X336900Y281400D02*
X337300D01*
X337700Y281800D01*
X338100Y281400D01*
X338500D01*
Y281800D01*
X338100Y282200D01*
X338500Y282600D01*
Y283000D01*
X338100D01*
X337700Y282600D01*
X337300Y283000D01*
X336900D01*
Y282600D01*
X337300Y282200D01*
X336900Y281800D01*
Y281400D01*
Y278500D02*
X337300D01*
X337700Y278900D01*
X338100Y278500D01*
X338500D01*
Y278900D01*
X338100Y279300D01*
X338500Y279700D01*
Y280100D01*
X338100D01*
X337700Y279700D01*
X337300Y280100D01*
X336900D01*
Y279700D01*
X337300Y279300D01*
X336900Y278900D01*
Y278500D01*
Y275600D02*
X337300D01*
X337700Y276000D01*
X338100Y275600D01*
X338500D01*
Y276000D01*
X338100Y276400D01*
X338500Y276800D01*
Y277200D01*
X338100D01*
X337700Y276800D01*
X337300Y277200D01*
X336900D01*
Y276800D01*
X337300Y276400D01*
X336900Y276000D01*
Y275600D01*
X336800Y272800D02*
X337200D01*
X337600Y273200D01*
X338000Y272800D01*
X338400D01*
Y273200D01*
X338000Y273600D01*
X338400Y274000D01*
Y274400D01*
X338000D01*
X337600Y274000D01*
X337200Y274400D01*
X336800D01*
Y274000D01*
X337200Y273600D01*
X336800Y273200D01*
Y272800D01*
X333600D02*
X334000D01*
X334400Y273200D01*
X334800Y272800D01*
X335200D01*
Y273200D01*
X334800Y273600D01*
X335200Y274000D01*
Y274400D01*
X334800D01*
X334400Y274000D01*
X334000Y274400D01*
X333600D01*
Y274000D01*
X334000Y273600D01*
X333600Y273200D01*
Y272800D01*
X333700Y275600D02*
X334100D01*
X334500Y276000D01*
X334900Y275600D01*
X335300D01*
Y276000D01*
X334900Y276400D01*
X335300Y276800D01*
Y277200D01*
X334900D01*
X334500Y276800D01*
X334100Y277200D01*
X333700D01*
Y276800D01*
X334100Y276400D01*
X333700Y276000D01*
Y275600D01*
Y278500D02*
X334100D01*
X334500Y278900D01*
X334900Y278500D01*
X335300D01*
Y278900D01*
X334900Y279300D01*
X335300Y279700D01*
Y280100D01*
X334900D01*
X334500Y279700D01*
X334100Y280100D01*
X333700D01*
Y279700D01*
X334100Y279300D01*
X333700Y278900D01*
Y278500D01*
Y281400D02*
X334100D01*
X334500Y281800D01*
X334900Y281400D01*
X335300D01*
Y281800D01*
X334900Y282200D01*
X335300Y282600D01*
Y283000D01*
X334900D01*
X334500Y282600D01*
X334100Y283000D01*
X333700D01*
Y282600D01*
X334100Y282200D01*
X333700Y281800D01*
Y281400D01*
X333800Y284500D02*
X334200D01*
X334600Y284900D01*
X335000Y284500D01*
X335400D01*
Y284900D01*
X335000Y285300D01*
X335400Y285700D01*
Y286100D01*
X335000D01*
X334600Y285700D01*
X334200Y286100D01*
X333800D01*
Y285700D01*
X334200Y285300D01*
X333800Y284900D01*
Y284500D01*
X183751Y236308D02*
X184151D01*
X184551Y236708D01*
X184951Y236308D01*
X185351D01*
Y236708D01*
X184951Y237108D01*
X185351Y237508D01*
Y237908D01*
X184951D01*
X184551Y237508D01*
X184151Y237908D01*
X183751D01*
Y237508D01*
X184151Y237108D01*
X183751Y236708D01*
Y236308D01*
X186851Y236208D02*
X187251D01*
X187651Y236608D01*
X188051Y236208D01*
X188451D01*
Y236608D01*
X188051Y237008D01*
X188451Y237408D01*
Y237808D01*
X188051D01*
X187651Y237408D01*
X187251Y237808D01*
X186851D01*
Y237408D01*
X187251Y237008D01*
X186851Y236608D01*
Y236208D01*
X189751D02*
X190151D01*
X190551Y236608D01*
X190951Y236208D01*
X191351D01*
Y236608D01*
X190951Y237008D01*
X191351Y237408D01*
Y237808D01*
X190951D01*
X190551Y237408D01*
X190151Y237808D01*
X189751D01*
Y237408D01*
X190151Y237008D01*
X189751Y236608D01*
Y236208D01*
X238132Y236308D02*
X238532D01*
X238932Y236708D01*
X239332Y236308D01*
X239732D01*
Y236708D01*
X239332Y237108D01*
X239732Y237508D01*
Y237908D01*
X239332D01*
X238932Y237508D01*
X238532Y237908D01*
X238132D01*
Y237508D01*
X238532Y237108D01*
X238132Y236708D01*
Y236308D01*
X240932Y236208D02*
X241332D01*
X241732Y236608D01*
X242132Y236208D01*
X242532D01*
Y236608D01*
X242132Y237008D01*
X242532Y237408D01*
Y237808D01*
X242132D01*
X241732Y237408D01*
X241332Y237808D01*
X240932D01*
Y237408D01*
X241332Y237008D01*
X240932Y236608D01*
Y236208D01*
Y239408D02*
X241332D01*
X241732Y239808D01*
X242132Y239408D01*
X242532D01*
Y239808D01*
X242132Y240208D01*
X242532Y240608D01*
Y241008D01*
X242132D01*
X241732Y240608D01*
X241332Y241008D01*
X240932D01*
Y240608D01*
X241332Y240208D01*
X240932Y239808D01*
Y239408D01*
X238132Y239508D02*
X238532D01*
X238932Y239908D01*
X239332Y239508D01*
X239732D01*
Y239908D01*
X239332Y240308D01*
X239732Y240708D01*
Y241108D01*
X239332D01*
X238932Y240708D01*
X238532Y241108D01*
X238132D01*
Y240708D01*
X238532Y240308D01*
X238132Y239908D01*
Y239508D01*
X189751Y239408D02*
X190151D01*
X190551Y239808D01*
X190951Y239408D01*
X191351D01*
Y239808D01*
X190951Y240208D01*
X191351Y240608D01*
Y241008D01*
X190951D01*
X190551Y240608D01*
X190151Y241008D01*
X189751D01*
Y240608D01*
X190151Y240208D01*
X189751Y239808D01*
Y239408D01*
X186851D02*
X187251D01*
X187651Y239808D01*
X188051Y239408D01*
X188451D01*
Y239808D01*
X188051Y240208D01*
X188451Y240608D01*
Y241008D01*
X188051D01*
X187651Y240608D01*
X187251Y241008D01*
X186851D01*
Y240608D01*
X187251Y240208D01*
X186851Y239808D01*
Y239408D01*
X183751Y239508D02*
X184151D01*
X184551Y239908D01*
X184951Y239508D01*
X185351D01*
Y239908D01*
X184951Y240308D01*
X185351Y240708D01*
Y241108D01*
X184951D01*
X184551Y240708D01*
X184151Y241108D01*
X183751D01*
Y240708D01*
X184151Y240308D01*
X183751Y239908D01*
Y239508D01*
X183651Y233308D02*
X184051D01*
X184451Y233708D01*
X184851Y233308D01*
X185251D01*
Y233708D01*
X184851Y234108D01*
X185251Y234508D01*
Y234908D01*
X184851D01*
X184451Y234508D01*
X184051Y234908D01*
X183651D01*
Y234508D01*
X184051Y234108D01*
X183651Y233708D01*
Y233308D01*
X186751Y233208D02*
X187151D01*
X187551Y233608D01*
X187951Y233208D01*
X188351D01*
Y233608D01*
X187951Y234008D01*
X188351Y234408D01*
Y234808D01*
X187951D01*
X187551Y234408D01*
X187151Y234808D01*
X186751D01*
Y234408D01*
X187151Y234008D01*
X186751Y233608D01*
Y233208D01*
X189651D02*
X190051D01*
X190451Y233608D01*
X190851Y233208D01*
X191251D01*
Y233608D01*
X190851Y234008D01*
X191251Y234408D01*
Y234808D01*
X190851D01*
X190451Y234408D01*
X190051Y234808D01*
X189651D01*
Y234408D01*
X190051Y234008D01*
X189651Y233608D01*
Y233208D01*
X238032Y233308D02*
X238432D01*
X238832Y233708D01*
X239232Y233308D01*
X239632D01*
Y233708D01*
X239232Y234108D01*
X239632Y234508D01*
Y234908D01*
X239232D01*
X238832Y234508D01*
X238432Y234908D01*
X238032D01*
Y234508D01*
X238432Y234108D01*
X238032Y233708D01*
Y233308D01*
X240832Y233208D02*
X241232D01*
X241632Y233608D01*
X242032Y233208D01*
X242432D01*
Y233608D01*
X242032Y234008D01*
X242432Y234408D01*
Y234808D01*
X242032D01*
X241632Y234408D01*
X241232Y234808D01*
X240832D01*
Y234408D01*
X241232Y234008D01*
X240832Y233608D01*
Y233208D01*
Y230008D02*
X241232D01*
X241632Y230408D01*
X242032Y230008D01*
X242432D01*
Y230408D01*
X242032Y230808D01*
X242432Y231208D01*
Y231608D01*
X242032D01*
X241632Y231208D01*
X241232Y231608D01*
X240832D01*
Y231208D01*
X241232Y230808D01*
X240832Y230408D01*
Y230008D01*
X238032Y230108D02*
X238432D01*
X238832Y230508D01*
X239232Y230108D01*
X239632D01*
Y230508D01*
X239232Y230908D01*
X239632Y231308D01*
Y231708D01*
X239232D01*
X238832Y231308D01*
X238432Y231708D01*
X238032D01*
Y231308D01*
X238432Y230908D01*
X238032Y230508D01*
Y230108D01*
X189651Y230008D02*
X190051D01*
X190451Y230408D01*
X190851Y230008D01*
X191251D01*
Y230408D01*
X190851Y230808D01*
X191251Y231208D01*
Y231608D01*
X190851D01*
X190451Y231208D01*
X190051Y231608D01*
X189651D01*
Y231208D01*
X190051Y230808D01*
X189651Y230408D01*
Y230008D01*
X186751D02*
X187151D01*
X187551Y230408D01*
X187951Y230008D01*
X188351D01*
Y230408D01*
X187951Y230808D01*
X188351Y231208D01*
Y231608D01*
X187951D01*
X187551Y231208D01*
X187151Y231608D01*
X186751D01*
Y231208D01*
X187151Y230808D01*
X186751Y230408D01*
Y230008D01*
X183651Y230108D02*
X184051D01*
X184451Y230508D01*
X184851Y230108D01*
X185251D01*
Y230508D01*
X184851Y230908D01*
X185251Y231308D01*
Y231708D01*
X184851D01*
X184451Y231308D01*
X184051Y231708D01*
X183651D01*
Y231308D01*
X184051Y230908D01*
X183651Y230508D01*
Y230108D01*
X263200Y192200D02*
X263600D01*
X264000Y192600D01*
X264400Y192200D01*
X264800D01*
Y192600D01*
X264400Y193000D01*
X264800Y193400D01*
Y193800D01*
X264400D01*
X264000Y193400D01*
X263600Y193800D01*
X263200D01*
Y193400D01*
X263600Y193000D01*
X263200Y192600D01*
Y192200D01*
X266300Y192100D02*
X266700D01*
X267100Y192500D01*
X267500Y192100D01*
X267900D01*
Y192500D01*
X267500Y192900D01*
X267900Y193300D01*
Y193700D01*
X267500D01*
X267100Y193300D01*
X266700Y193700D01*
X266300D01*
Y193300D01*
X266700Y192900D01*
X266300Y192500D01*
Y192100D01*
X269200D02*
X269600D01*
X270000Y192500D01*
X270400Y192100D01*
X270800D01*
Y192500D01*
X270400Y192900D01*
X270800Y193300D01*
Y193700D01*
X270400D01*
X270000Y193300D01*
X269600Y193700D01*
X269200D01*
Y193300D01*
X269600Y192900D01*
X269200Y192500D01*
Y192100D01*
X272100D02*
X272500D01*
X272900Y192500D01*
X273300Y192100D01*
X273700D01*
Y192500D01*
X273300Y192900D01*
X273700Y193300D01*
Y193700D01*
X273300D01*
X272900Y193300D01*
X272500Y193700D01*
X272100D01*
Y193300D01*
X272500Y192900D01*
X272100Y192500D01*
Y192100D01*
X274900Y192000D02*
X275300D01*
X275700Y192400D01*
X276100Y192000D01*
X276500D01*
Y192400D01*
X276100Y192800D01*
X276500Y193200D01*
Y193600D01*
X276100D01*
X275700Y193200D01*
X275300Y193600D01*
X274900D01*
Y193200D01*
X275300Y192800D01*
X274900Y192400D01*
Y192000D01*
Y195200D02*
X275300D01*
X275700Y195600D01*
X276100Y195200D01*
X276500D01*
Y195600D01*
X276100Y196000D01*
X276500Y196400D01*
Y196800D01*
X276100D01*
X275700Y196400D01*
X275300Y196800D01*
X274900D01*
Y196400D01*
X275300Y196000D01*
X274900Y195600D01*
Y195200D01*
X272100Y195300D02*
X272500D01*
X272900Y195700D01*
X273300Y195300D01*
X273700D01*
Y195700D01*
X273300Y196100D01*
X273700Y196500D01*
Y196900D01*
X273300D01*
X272900Y196500D01*
X272500Y196900D01*
X272100D01*
Y196500D01*
X272500Y196100D01*
X272100Y195700D01*
Y195300D01*
X269200D02*
X269600D01*
X270000Y195700D01*
X270400Y195300D01*
X270800D01*
Y195700D01*
X270400Y196100D01*
X270800Y196500D01*
Y196900D01*
X270400D01*
X270000Y196500D01*
X269600Y196900D01*
X269200D01*
Y196500D01*
X269600Y196100D01*
X269200Y195700D01*
Y195300D01*
X266300D02*
X266700D01*
X267100Y195700D01*
X267500Y195300D01*
X267900D01*
Y195700D01*
X267500Y196100D01*
X267900Y196500D01*
Y196900D01*
X267500D01*
X267100Y196500D01*
X266700Y196900D01*
X266300D01*
Y196500D01*
X266700Y196100D01*
X266300Y195700D01*
Y195300D01*
X263200Y195400D02*
X263600D01*
X264000Y195800D01*
X264400Y195400D01*
X264800D01*
Y195800D01*
X264400Y196200D01*
X264800Y196600D01*
Y197000D01*
X264400D01*
X264000Y196600D01*
X263600Y197000D01*
X263200D01*
Y196600D01*
X263600Y196200D01*
X263200Y195800D01*
Y195400D01*
X263100Y189200D02*
X263500D01*
X263900Y189600D01*
X264300Y189200D01*
X264700D01*
Y189600D01*
X264300Y190000D01*
X264700Y190400D01*
Y190800D01*
X264300D01*
X263900Y190400D01*
X263500Y190800D01*
X263100D01*
Y190400D01*
X263500Y190000D01*
X263100Y189600D01*
Y189200D01*
X266200Y189100D02*
X266600D01*
X267000Y189500D01*
X267400Y189100D01*
X267800D01*
Y189500D01*
X267400Y189900D01*
X267800Y190300D01*
Y190700D01*
X267400D01*
X267000Y190300D01*
X266600Y190700D01*
X266200D01*
Y190300D01*
X266600Y189900D01*
X266200Y189500D01*
Y189100D01*
X269100D02*
X269500D01*
X269900Y189500D01*
X270300Y189100D01*
X270700D01*
Y189500D01*
X270300Y189900D01*
X270700Y190300D01*
Y190700D01*
X270300D01*
X269900Y190300D01*
X269500Y190700D01*
X269100D01*
Y190300D01*
X269500Y189900D01*
X269100Y189500D01*
Y189100D01*
X272000D02*
X272400D01*
X272800Y189500D01*
X273200Y189100D01*
X273600D01*
Y189500D01*
X273200Y189900D01*
X273600Y190300D01*
Y190700D01*
X273200D01*
X272800Y190300D01*
X272400Y190700D01*
X272000D01*
Y190300D01*
X272400Y189900D01*
X272000Y189500D01*
Y189100D01*
X274800Y189000D02*
X275200D01*
X275600Y189400D01*
X276000Y189000D01*
X276400D01*
Y189400D01*
X276000Y189800D01*
X276400Y190200D01*
Y190600D01*
X276000D01*
X275600Y190200D01*
X275200Y190600D01*
X274800D01*
Y190200D01*
X275200Y189800D01*
X274800Y189400D01*
Y189000D01*
Y185800D02*
X275200D01*
X275600Y186200D01*
X276000Y185800D01*
X276400D01*
Y186200D01*
X276000Y186600D01*
X276400Y187000D01*
Y187400D01*
X276000D01*
X275600Y187000D01*
X275200Y187400D01*
X274800D01*
Y187000D01*
X275200Y186600D01*
X274800Y186200D01*
Y185800D01*
X272000Y185900D02*
X272400D01*
X272800Y186300D01*
X273200Y185900D01*
X273600D01*
Y186300D01*
X273200Y186700D01*
X273600Y187100D01*
Y187500D01*
X273200D01*
X272800Y187100D01*
X272400Y187500D01*
X272000D01*
Y187100D01*
X272400Y186700D01*
X272000Y186300D01*
Y185900D01*
X269100D02*
X269500D01*
X269900Y186300D01*
X270300Y185900D01*
X270700D01*
Y186300D01*
X270300Y186700D01*
X270700Y187100D01*
Y187500D01*
X270300D01*
X269900Y187100D01*
X269500Y187500D01*
X269100D01*
Y187100D01*
X269500Y186700D01*
X269100Y186300D01*
Y185900D01*
X266200D02*
X266600D01*
X267000Y186300D01*
X267400Y185900D01*
X267800D01*
Y186300D01*
X267400Y186700D01*
X267800Y187100D01*
Y187500D01*
X267400D01*
X267000Y187100D01*
X266600Y187500D01*
X266200D01*
Y187100D01*
X266600Y186700D01*
X266200Y186300D01*
Y185900D01*
X263100Y186000D02*
X263500D01*
X263900Y186400D01*
X264300Y186000D01*
X264700D01*
Y186400D01*
X264300Y186800D01*
X264700Y187200D01*
Y187600D01*
X264300D01*
X263900Y187200D01*
X263500Y187600D01*
X263100D01*
Y187200D01*
X263500Y186800D01*
X263100Y186400D01*
Y186000D01*
X269200Y179500D02*
X269600D01*
X270000Y179900D01*
X270400Y179500D01*
X270800D01*
Y179900D01*
X270400Y180300D01*
X270800Y180700D01*
Y181100D01*
X270400D01*
X270000Y180700D01*
X269600Y181100D01*
X269200D01*
Y180700D01*
X269600Y180300D01*
X269200Y179900D01*
Y179500D01*
X269100Y176400D02*
X269500D01*
X269900Y176800D01*
X270300Y176400D01*
X270700D01*
Y176800D01*
X270300Y177200D01*
X270700Y177600D01*
Y178000D01*
X270300D01*
X269900Y177600D01*
X269500Y178000D01*
X269100D01*
Y177600D01*
X269500Y177200D01*
X269100Y176800D01*
Y176400D01*
Y173500D02*
X269500D01*
X269900Y173900D01*
X270300Y173500D01*
X270700D01*
Y173900D01*
X270300Y174300D01*
X270700Y174700D01*
Y175100D01*
X270300D01*
X269900Y174700D01*
X269500Y175100D01*
X269100D01*
Y174700D01*
X269500Y174300D01*
X269100Y173900D01*
Y173500D01*
Y170600D02*
X269500D01*
X269900Y171000D01*
X270300Y170600D01*
X270700D01*
Y171000D01*
X270300Y171400D01*
X270700Y171800D01*
Y172200D01*
X270300D01*
X269900Y171800D01*
X269500Y172200D01*
X269100D01*
Y171800D01*
X269500Y171400D01*
X269100Y171000D01*
Y170600D01*
X269000Y167800D02*
X269400D01*
X269800Y168200D01*
X270200Y167800D01*
X270600D01*
Y168200D01*
X270200Y168600D01*
X270600Y169000D01*
Y169400D01*
X270200D01*
X269800Y169000D01*
X269400Y169400D01*
X269000D01*
Y169000D01*
X269400Y168600D01*
X269000Y168200D01*
Y167800D01*
X272200D02*
X272600D01*
X273000Y168200D01*
X273400Y167800D01*
X273800D01*
Y168200D01*
X273400Y168600D01*
X273800Y169000D01*
Y169400D01*
X273400D01*
X273000Y169000D01*
X272600Y169400D01*
X272200D01*
Y169000D01*
X272600Y168600D01*
X272200Y168200D01*
Y167800D01*
X272300Y170600D02*
X272700D01*
X273100Y171000D01*
X273500Y170600D01*
X273900D01*
Y171000D01*
X273500Y171400D01*
X273900Y171800D01*
Y172200D01*
X273500D01*
X273100Y171800D01*
X272700Y172200D01*
X272300D01*
Y171800D01*
X272700Y171400D01*
X272300Y171000D01*
Y170600D01*
Y173500D02*
X272700D01*
X273100Y173900D01*
X273500Y173500D01*
X273900D01*
Y173900D01*
X273500Y174300D01*
X273900Y174700D01*
Y175100D01*
X273500D01*
X273100Y174700D01*
X272700Y175100D01*
X272300D01*
Y174700D01*
X272700Y174300D01*
X272300Y173900D01*
Y173500D01*
Y176400D02*
X272700D01*
X273100Y176800D01*
X273500Y176400D01*
X273900D01*
Y176800D01*
X273500Y177200D01*
X273900Y177600D01*
Y178000D01*
X273500D01*
X273100Y177600D01*
X272700Y178000D01*
X272300D01*
Y177600D01*
X272700Y177200D01*
X272300Y176800D01*
Y176400D01*
X272400Y179500D02*
X272800D01*
X273200Y179900D01*
X273600Y179500D01*
X274000D01*
Y179900D01*
X273600Y180300D01*
X274000Y180700D01*
Y181100D01*
X273600D01*
X273200Y180700D01*
X272800Y181100D01*
X272400D01*
Y180700D01*
X272800Y180300D01*
X272400Y179900D01*
Y179500D01*
X266200Y179600D02*
X266600D01*
X267000Y180000D01*
X267400Y179600D01*
X267800D01*
Y180000D01*
X267400Y180400D01*
X267800Y180800D01*
Y181200D01*
X267400D01*
X267000Y180800D01*
X266600Y181200D01*
X266200D01*
Y180800D01*
X266600Y180400D01*
X266200Y180000D01*
Y179600D01*
X266100Y176500D02*
X266500D01*
X266900Y176900D01*
X267300Y176500D01*
X267700D01*
Y176900D01*
X267300Y177300D01*
X267700Y177700D01*
Y178100D01*
X267300D01*
X266900Y177700D01*
X266500Y178100D01*
X266100D01*
Y177700D01*
X266500Y177300D01*
X266100Y176900D01*
Y176500D01*
Y173600D02*
X266500D01*
X266900Y174000D01*
X267300Y173600D01*
X267700D01*
Y174000D01*
X267300Y174400D01*
X267700Y174800D01*
Y175200D01*
X267300D01*
X266900Y174800D01*
X266500Y175200D01*
X266100D01*
Y174800D01*
X266500Y174400D01*
X266100Y174000D01*
Y173600D01*
Y170700D02*
X266500D01*
X266900Y171100D01*
X267300Y170700D01*
X267700D01*
Y171100D01*
X267300Y171500D01*
X267700Y171900D01*
Y172300D01*
X267300D01*
X266900Y171900D01*
X266500Y172300D01*
X266100D01*
Y171900D01*
X266500Y171500D01*
X266100Y171100D01*
Y170700D01*
X266000Y167900D02*
X266400D01*
X266800Y168300D01*
X267200Y167900D01*
X267600D01*
Y168300D01*
X267200Y168700D01*
X267600Y169100D01*
Y169500D01*
X267200D01*
X266800Y169100D01*
X266400Y169500D01*
X266000D01*
Y169100D01*
X266400Y168700D01*
X266000Y168300D01*
Y167900D01*
X262800D02*
X263200D01*
X263600Y168300D01*
X264000Y167900D01*
X264400D01*
Y168300D01*
X264000Y168700D01*
X264400Y169100D01*
Y169500D01*
X264000D01*
X263600Y169100D01*
X263200Y169500D01*
X262800D01*
Y169100D01*
X263200Y168700D01*
X262800Y168300D01*
Y167900D01*
X262900Y170700D02*
X263300D01*
X263700Y171100D01*
X264100Y170700D01*
X264500D01*
Y171100D01*
X264100Y171500D01*
X264500Y171900D01*
Y172300D01*
X264100D01*
X263700Y171900D01*
X263300Y172300D01*
X262900D01*
Y171900D01*
X263300Y171500D01*
X262900Y171100D01*
Y170700D01*
Y173600D02*
X263300D01*
X263700Y174000D01*
X264100Y173600D01*
X264500D01*
Y174000D01*
X264100Y174400D01*
X264500Y174800D01*
Y175200D01*
X264100D01*
X263700Y174800D01*
X263300Y175200D01*
X262900D01*
Y174800D01*
X263300Y174400D01*
X262900Y174000D01*
Y173600D01*
Y176500D02*
X263300D01*
X263700Y176900D01*
X264100Y176500D01*
X264500D01*
Y176900D01*
X264100Y177300D01*
X264500Y177700D01*
Y178100D01*
X264100D01*
X263700Y177700D01*
X263300Y178100D01*
X262900D01*
Y177700D01*
X263300Y177300D01*
X262900Y176900D01*
Y176500D01*
X263000Y179600D02*
X263400D01*
X263800Y180000D01*
X264200Y179600D01*
X264600D01*
Y180000D01*
X264200Y180400D01*
X264600Y180800D01*
Y181200D01*
X264200D01*
X263800Y180800D01*
X263400Y181200D01*
X263000D01*
Y180800D01*
X263400Y180400D01*
X263000Y180000D01*
Y179600D01*
X182000Y316400D02*
X182400D01*
X182800Y316800D01*
X183200Y316400D01*
X183600D01*
Y316800D01*
X183200Y317200D01*
X183600Y317600D01*
Y318000D01*
X183200D01*
X182800Y317600D01*
X182400Y318000D01*
X182000D01*
Y317600D01*
X182400Y317200D01*
X182000Y316800D01*
Y316400D01*
X181900Y313300D02*
X182300D01*
X182700Y313700D01*
X183100Y313300D01*
X183500D01*
Y313700D01*
X183100Y314100D01*
X183500Y314500D01*
Y314900D01*
X183100D01*
X182700Y314500D01*
X182300Y314900D01*
X181900D01*
Y314500D01*
X182300Y314100D01*
X181900Y313700D01*
Y313300D01*
Y310400D02*
X182300D01*
X182700Y310800D01*
X183100Y310400D01*
X183500D01*
Y310800D01*
X183100Y311200D01*
X183500Y311600D01*
Y312000D01*
X183100D01*
X182700Y311600D01*
X182300Y312000D01*
X181900D01*
Y311600D01*
X182300Y311200D01*
X181900Y310800D01*
Y310400D01*
Y307500D02*
X182300D01*
X182700Y307900D01*
X183100Y307500D01*
X183500D01*
Y307900D01*
X183100Y308300D01*
X183500Y308700D01*
Y309100D01*
X183100D01*
X182700Y308700D01*
X182300Y309100D01*
X181900D01*
Y308700D01*
X182300Y308300D01*
X181900Y307900D01*
Y307500D01*
X181800Y304700D02*
X182200D01*
X182600Y305100D01*
X183000Y304700D01*
X183400D01*
Y305100D01*
X183000Y305500D01*
X183400Y305900D01*
Y306300D01*
X183000D01*
X182600Y305900D01*
X182200Y306300D01*
X181800D01*
Y305900D01*
X182200Y305500D01*
X181800Y305100D01*
Y304700D01*
X185000D02*
X185400D01*
X185800Y305100D01*
X186200Y304700D01*
X186600D01*
Y305100D01*
X186200Y305500D01*
X186600Y305900D01*
Y306300D01*
X186200D01*
X185800Y305900D01*
X185400Y306300D01*
X185000D01*
Y305900D01*
X185400Y305500D01*
X185000Y305100D01*
Y304700D01*
X185100Y307500D02*
X185500D01*
X185900Y307900D01*
X186300Y307500D01*
X186700D01*
Y307900D01*
X186300Y308300D01*
X186700Y308700D01*
Y309100D01*
X186300D01*
X185900Y308700D01*
X185500Y309100D01*
X185100D01*
Y308700D01*
X185500Y308300D01*
X185100Y307900D01*
Y307500D01*
Y310400D02*
X185500D01*
X185900Y310800D01*
X186300Y310400D01*
X186700D01*
Y310800D01*
X186300Y311200D01*
X186700Y311600D01*
Y312000D01*
X186300D01*
X185900Y311600D01*
X185500Y312000D01*
X185100D01*
Y311600D01*
X185500Y311200D01*
X185100Y310800D01*
Y310400D01*
Y313300D02*
X185500D01*
X185900Y313700D01*
X186300Y313300D01*
X186700D01*
Y313700D01*
X186300Y314100D01*
X186700Y314500D01*
Y314900D01*
X186300D01*
X185900Y314500D01*
X185500Y314900D01*
X185100D01*
Y314500D01*
X185500Y314100D01*
X185100Y313700D01*
Y313300D01*
X185200Y316400D02*
X185600D01*
X186000Y316800D01*
X186400Y316400D01*
X186800D01*
Y316800D01*
X186400Y317200D01*
X186800Y317600D01*
Y318000D01*
X186400D01*
X186000Y317600D01*
X185600Y318000D01*
X185200D01*
Y317600D01*
X185600Y317200D01*
X185200Y316800D01*
Y316400D01*
X179000Y316500D02*
X179400D01*
X179800Y316900D01*
X180200Y316500D01*
X180600D01*
Y316900D01*
X180200Y317300D01*
X180600Y317700D01*
Y318100D01*
X180200D01*
X179800Y317700D01*
X179400Y318100D01*
X179000D01*
Y317700D01*
X179400Y317300D01*
X179000Y316900D01*
Y316500D01*
X178900Y313400D02*
X179300D01*
X179700Y313800D01*
X180100Y313400D01*
X180500D01*
Y313800D01*
X180100Y314200D01*
X180500Y314600D01*
Y315000D01*
X180100D01*
X179700Y314600D01*
X179300Y315000D01*
X178900D01*
Y314600D01*
X179300Y314200D01*
X178900Y313800D01*
Y313400D01*
Y310500D02*
X179300D01*
X179700Y310900D01*
X180100Y310500D01*
X180500D01*
Y310900D01*
X180100Y311300D01*
X180500Y311700D01*
Y312100D01*
X180100D01*
X179700Y311700D01*
X179300Y312100D01*
X178900D01*
Y311700D01*
X179300Y311300D01*
X178900Y310900D01*
Y310500D01*
Y307600D02*
X179300D01*
X179700Y308000D01*
X180100Y307600D01*
X180500D01*
Y308000D01*
X180100Y308400D01*
X180500Y308800D01*
Y309200D01*
X180100D01*
X179700Y308800D01*
X179300Y309200D01*
X178900D01*
Y308800D01*
X179300Y308400D01*
X178900Y308000D01*
Y307600D01*
X178800Y304800D02*
X179200D01*
X179600Y305200D01*
X180000Y304800D01*
X180400D01*
Y305200D01*
X180000Y305600D01*
X180400Y306000D01*
Y306400D01*
X180000D01*
X179600Y306000D01*
X179200Y306400D01*
X178800D01*
Y306000D01*
X179200Y305600D01*
X178800Y305200D01*
Y304800D01*
X175600D02*
X176000D01*
X176400Y305200D01*
X176800Y304800D01*
X177200D01*
Y305200D01*
X176800Y305600D01*
X177200Y306000D01*
Y306400D01*
X176800D01*
X176400Y306000D01*
X176000Y306400D01*
X175600D01*
Y306000D01*
X176000Y305600D01*
X175600Y305200D01*
Y304800D01*
X175700Y307600D02*
X176100D01*
X176500Y308000D01*
X176900Y307600D01*
X177300D01*
Y308000D01*
X176900Y308400D01*
X177300Y308800D01*
Y309200D01*
X176900D01*
X176500Y308800D01*
X176100Y309200D01*
X175700D01*
Y308800D01*
X176100Y308400D01*
X175700Y308000D01*
Y307600D01*
Y310500D02*
X176100D01*
X176500Y310900D01*
X176900Y310500D01*
X177300D01*
Y310900D01*
X176900Y311300D01*
X177300Y311700D01*
Y312100D01*
X176900D01*
X176500Y311700D01*
X176100Y312100D01*
X175700D01*
Y311700D01*
X176100Y311300D01*
X175700Y310900D01*
Y310500D01*
Y313400D02*
X176100D01*
X176500Y313800D01*
X176900Y313400D01*
X177300D01*
Y313800D01*
X176900Y314200D01*
X177300Y314600D01*
Y315000D01*
X176900D01*
X176500Y314600D01*
X176100Y315000D01*
X175700D01*
Y314600D01*
X176100Y314200D01*
X175700Y313800D01*
Y313400D01*
X175800Y316500D02*
X176200D01*
X176600Y316900D01*
X177000Y316500D01*
X177400D01*
Y316900D01*
X177000Y317300D01*
X177400Y317700D01*
Y318100D01*
X177000D01*
X176600Y317700D01*
X176200Y318100D01*
X175800D01*
Y317700D01*
X176200Y317300D01*
X175800Y316900D01*
Y316500D01*
X231900Y316400D02*
X232300D01*
X232700Y316800D01*
X233100Y316400D01*
X233500D01*
Y316800D01*
X233100Y317200D01*
X233500Y317600D01*
Y318000D01*
X233100D01*
X232700Y317600D01*
X232300Y318000D01*
X231900D01*
Y317600D01*
X232300Y317200D01*
X231900Y316800D01*
Y316400D01*
X231800Y313300D02*
X232200D01*
X232600Y313700D01*
X233000Y313300D01*
X233400D01*
Y313700D01*
X233000Y314100D01*
X233400Y314500D01*
Y314900D01*
X233000D01*
X232600Y314500D01*
X232200Y314900D01*
X231800D01*
Y314500D01*
X232200Y314100D01*
X231800Y313700D01*
Y313300D01*
Y310400D02*
X232200D01*
X232600Y310800D01*
X233000Y310400D01*
X233400D01*
Y310800D01*
X233000Y311200D01*
X233400Y311600D01*
Y312000D01*
X233000D01*
X232600Y311600D01*
X232200Y312000D01*
X231800D01*
Y311600D01*
X232200Y311200D01*
X231800Y310800D01*
Y310400D01*
Y307500D02*
X232200D01*
X232600Y307900D01*
X233000Y307500D01*
X233400D01*
Y307900D01*
X233000Y308300D01*
X233400Y308700D01*
Y309100D01*
X233000D01*
X232600Y308700D01*
X232200Y309100D01*
X231800D01*
Y308700D01*
X232200Y308300D01*
X231800Y307900D01*
Y307500D01*
X231700Y304700D02*
X232100D01*
X232500Y305100D01*
X232900Y304700D01*
X233300D01*
Y305100D01*
X232900Y305500D01*
X233300Y305900D01*
Y306300D01*
X232900D01*
X232500Y305900D01*
X232100Y306300D01*
X231700D01*
Y305900D01*
X232100Y305500D01*
X231700Y305100D01*
Y304700D01*
X234900D02*
X235300D01*
X235700Y305100D01*
X236100Y304700D01*
X236500D01*
Y305100D01*
X236100Y305500D01*
X236500Y305900D01*
Y306300D01*
X236100D01*
X235700Y305900D01*
X235300Y306300D01*
X234900D01*
Y305900D01*
X235300Y305500D01*
X234900Y305100D01*
Y304700D01*
X235000Y307500D02*
X235400D01*
X235800Y307900D01*
X236200Y307500D01*
X236600D01*
Y307900D01*
X236200Y308300D01*
X236600Y308700D01*
Y309100D01*
X236200D01*
X235800Y308700D01*
X235400Y309100D01*
X235000D01*
Y308700D01*
X235400Y308300D01*
X235000Y307900D01*
Y307500D01*
Y310400D02*
X235400D01*
X235800Y310800D01*
X236200Y310400D01*
X236600D01*
Y310800D01*
X236200Y311200D01*
X236600Y311600D01*
Y312000D01*
X236200D01*
X235800Y311600D01*
X235400Y312000D01*
X235000D01*
Y311600D01*
X235400Y311200D01*
X235000Y310800D01*
Y310400D01*
Y313300D02*
X235400D01*
X235800Y313700D01*
X236200Y313300D01*
X236600D01*
Y313700D01*
X236200Y314100D01*
X236600Y314500D01*
Y314900D01*
X236200D01*
X235800Y314500D01*
X235400Y314900D01*
X235000D01*
Y314500D01*
X235400Y314100D01*
X235000Y313700D01*
Y313300D01*
X235100Y316400D02*
X235500D01*
X235900Y316800D01*
X236300Y316400D01*
X236700D01*
Y316800D01*
X236300Y317200D01*
X236700Y317600D01*
Y318000D01*
X236300D01*
X235900Y317600D01*
X235500Y318000D01*
X235100D01*
Y317600D01*
X235500Y317200D01*
X235100Y316800D01*
Y316400D01*
X228900Y316500D02*
X229300D01*
X229700Y316900D01*
X230100Y316500D01*
X230500D01*
Y316900D01*
X230100Y317300D01*
X230500Y317700D01*
Y318100D01*
X230100D01*
X229700Y317700D01*
X229300Y318100D01*
X228900D01*
Y317700D01*
X229300Y317300D01*
X228900Y316900D01*
Y316500D01*
X228800Y313400D02*
X229200D01*
X229600Y313800D01*
X230000Y313400D01*
X230400D01*
Y313800D01*
X230000Y314200D01*
X230400Y314600D01*
Y315000D01*
X230000D01*
X229600Y314600D01*
X229200Y315000D01*
X228800D01*
Y314600D01*
X229200Y314200D01*
X228800Y313800D01*
Y313400D01*
Y310500D02*
X229200D01*
X229600Y310900D01*
X230000Y310500D01*
X230400D01*
Y310900D01*
X230000Y311300D01*
X230400Y311700D01*
Y312100D01*
X230000D01*
X229600Y311700D01*
X229200Y312100D01*
X228800D01*
Y311700D01*
X229200Y311300D01*
X228800Y310900D01*
Y310500D01*
Y307600D02*
X229200D01*
X229600Y308000D01*
X230000Y307600D01*
X230400D01*
Y308000D01*
X230000Y308400D01*
X230400Y308800D01*
Y309200D01*
X230000D01*
X229600Y308800D01*
X229200Y309200D01*
X228800D01*
Y308800D01*
X229200Y308400D01*
X228800Y308000D01*
Y307600D01*
X228700Y304800D02*
X229100D01*
X229500Y305200D01*
X229900Y304800D01*
X230300D01*
Y305200D01*
X229900Y305600D01*
X230300Y306000D01*
Y306400D01*
X229900D01*
X229500Y306000D01*
X229100Y306400D01*
X228700D01*
Y306000D01*
X229100Y305600D01*
X228700Y305200D01*
Y304800D01*
X225500D02*
X225900D01*
X226300Y305200D01*
X226700Y304800D01*
X227100D01*
Y305200D01*
X226700Y305600D01*
X227100Y306000D01*
Y306400D01*
X226700D01*
X226300Y306000D01*
X225900Y306400D01*
X225500D01*
Y306000D01*
X225900Y305600D01*
X225500Y305200D01*
Y304800D01*
X225600Y307600D02*
X226000D01*
X226400Y308000D01*
X226800Y307600D01*
X227200D01*
Y308000D01*
X226800Y308400D01*
X227200Y308800D01*
Y309200D01*
X226800D01*
X226400Y308800D01*
X226000Y309200D01*
X225600D01*
Y308800D01*
X226000Y308400D01*
X225600Y308000D01*
Y307600D01*
Y310500D02*
X226000D01*
X226400Y310900D01*
X226800Y310500D01*
X227200D01*
Y310900D01*
X226800Y311300D01*
X227200Y311700D01*
Y312100D01*
X226800D01*
X226400Y311700D01*
X226000Y312100D01*
X225600D01*
Y311700D01*
X226000Y311300D01*
X225600Y310900D01*
Y310500D01*
Y313400D02*
X226000D01*
X226400Y313800D01*
X226800Y313400D01*
X227200D01*
Y313800D01*
X226800Y314200D01*
X227200Y314600D01*
Y315000D01*
X226800D01*
X226400Y314600D01*
X226000Y315000D01*
X225600D01*
Y314600D01*
X226000Y314200D01*
X225600Y313800D01*
Y313400D01*
X225700Y316500D02*
X226100D01*
X226500Y316900D01*
X226900Y316500D01*
X227300D01*
Y316900D01*
X226900Y317300D01*
X227300Y317700D01*
Y318100D01*
X226900D01*
X226500Y317700D01*
X226100Y318100D01*
X225700D01*
Y317700D01*
X226100Y317300D01*
X225700Y316900D01*
Y316500D01*
X137000Y315200D02*
X137400D01*
X137800Y315600D01*
X138200Y315200D01*
X138600D01*
Y315600D01*
X138200Y316000D01*
X138600Y316400D01*
Y316800D01*
X138200D01*
X137800Y316400D01*
X137400Y316800D01*
X137000D01*
Y316400D01*
X137400Y316000D01*
X137000Y315600D01*
Y315200D01*
X136900Y312100D02*
X137300D01*
X137700Y312500D01*
X138100Y312100D01*
X138500D01*
Y312500D01*
X138100Y312900D01*
X138500Y313300D01*
Y313700D01*
X138100D01*
X137700Y313300D01*
X137300Y313700D01*
X136900D01*
Y313300D01*
X137300Y312900D01*
X136900Y312500D01*
Y312100D01*
Y309200D02*
X137300D01*
X137700Y309600D01*
X138100Y309200D01*
X138500D01*
Y309600D01*
X138100Y310000D01*
X138500Y310400D01*
Y310800D01*
X138100D01*
X137700Y310400D01*
X137300Y310800D01*
X136900D01*
Y310400D01*
X137300Y310000D01*
X136900Y309600D01*
Y309200D01*
Y306300D02*
X137300D01*
X137700Y306700D01*
X138100Y306300D01*
X138500D01*
Y306700D01*
X138100Y307100D01*
X138500Y307500D01*
Y307900D01*
X138100D01*
X137700Y307500D01*
X137300Y307900D01*
X136900D01*
Y307500D01*
X137300Y307100D01*
X136900Y306700D01*
Y306300D01*
X136800Y303500D02*
X137200D01*
X137600Y303900D01*
X138000Y303500D01*
X138400D01*
Y303900D01*
X138000Y304300D01*
X138400Y304700D01*
Y305100D01*
X138000D01*
X137600Y304700D01*
X137200Y305100D01*
X136800D01*
Y304700D01*
X137200Y304300D01*
X136800Y303900D01*
Y303500D01*
X140000D02*
X140400D01*
X140800Y303900D01*
X141200Y303500D01*
X141600D01*
Y303900D01*
X141200Y304300D01*
X141600Y304700D01*
Y305100D01*
X141200D01*
X140800Y304700D01*
X140400Y305100D01*
X140000D01*
Y304700D01*
X140400Y304300D01*
X140000Y303900D01*
Y303500D01*
X140100Y306300D02*
X140500D01*
X140900Y306700D01*
X141300Y306300D01*
X141700D01*
Y306700D01*
X141300Y307100D01*
X141700Y307500D01*
Y307900D01*
X141300D01*
X140900Y307500D01*
X140500Y307900D01*
X140100D01*
Y307500D01*
X140500Y307100D01*
X140100Y306700D01*
Y306300D01*
Y309200D02*
X140500D01*
X140900Y309600D01*
X141300Y309200D01*
X141700D01*
Y309600D01*
X141300Y310000D01*
X141700Y310400D01*
Y310800D01*
X141300D01*
X140900Y310400D01*
X140500Y310800D01*
X140100D01*
Y310400D01*
X140500Y310000D01*
X140100Y309600D01*
Y309200D01*
Y312100D02*
X140500D01*
X140900Y312500D01*
X141300Y312100D01*
X141700D01*
Y312500D01*
X141300Y312900D01*
X141700Y313300D01*
Y313700D01*
X141300D01*
X140900Y313300D01*
X140500Y313700D01*
X140100D01*
Y313300D01*
X140500Y312900D01*
X140100Y312500D01*
Y312100D01*
X140200Y315200D02*
X140600D01*
X141000Y315600D01*
X141400Y315200D01*
X141800D01*
Y315600D01*
X141400Y316000D01*
X141800Y316400D01*
Y316800D01*
X141400D01*
X141000Y316400D01*
X140600Y316800D01*
X140200D01*
Y316400D01*
X140600Y316000D01*
X140200Y315600D01*
Y315200D01*
X134000Y315300D02*
X134400D01*
X134800Y315700D01*
X135200Y315300D01*
X135600D01*
Y315700D01*
X135200Y316100D01*
X135600Y316500D01*
Y316900D01*
X135200D01*
X134800Y316500D01*
X134400Y316900D01*
X134000D01*
Y316500D01*
X134400Y316100D01*
X134000Y315700D01*
Y315300D01*
X133900Y312200D02*
X134300D01*
X134700Y312600D01*
X135100Y312200D01*
X135500D01*
Y312600D01*
X135100Y313000D01*
X135500Y313400D01*
Y313800D01*
X135100D01*
X134700Y313400D01*
X134300Y313800D01*
X133900D01*
Y313400D01*
X134300Y313000D01*
X133900Y312600D01*
Y312200D01*
Y309300D02*
X134300D01*
X134700Y309700D01*
X135100Y309300D01*
X135500D01*
Y309700D01*
X135100Y310100D01*
X135500Y310500D01*
Y310900D01*
X135100D01*
X134700Y310500D01*
X134300Y310900D01*
X133900D01*
Y310500D01*
X134300Y310100D01*
X133900Y309700D01*
Y309300D01*
Y306400D02*
X134300D01*
X134700Y306800D01*
X135100Y306400D01*
X135500D01*
Y306800D01*
X135100Y307200D01*
X135500Y307600D01*
Y308000D01*
X135100D01*
X134700Y307600D01*
X134300Y308000D01*
X133900D01*
Y307600D01*
X134300Y307200D01*
X133900Y306800D01*
Y306400D01*
X133800Y303600D02*
X134200D01*
X134600Y304000D01*
X135000Y303600D01*
X135400D01*
Y304000D01*
X135000Y304400D01*
X135400Y304800D01*
Y305200D01*
X135000D01*
X134600Y304800D01*
X134200Y305200D01*
X133800D01*
Y304800D01*
X134200Y304400D01*
X133800Y304000D01*
Y303600D01*
X130600D02*
X131000D01*
X131400Y304000D01*
X131800Y303600D01*
X132200D01*
Y304000D01*
X131800Y304400D01*
X132200Y304800D01*
Y305200D01*
X131800D01*
X131400Y304800D01*
X131000Y305200D01*
X130600D01*
Y304800D01*
X131000Y304400D01*
X130600Y304000D01*
Y303600D01*
X130700Y306400D02*
X131100D01*
X131500Y306800D01*
X131900Y306400D01*
X132300D01*
Y306800D01*
X131900Y307200D01*
X132300Y307600D01*
Y308000D01*
X131900D01*
X131500Y307600D01*
X131100Y308000D01*
X130700D01*
Y307600D01*
X131100Y307200D01*
X130700Y306800D01*
Y306400D01*
Y309300D02*
X131100D01*
X131500Y309700D01*
X131900Y309300D01*
X132300D01*
Y309700D01*
X131900Y310100D01*
X132300Y310500D01*
Y310900D01*
X131900D01*
X131500Y310500D01*
X131100Y310900D01*
X130700D01*
Y310500D01*
X131100Y310100D01*
X130700Y309700D01*
Y309300D01*
Y312200D02*
X131100D01*
X131500Y312600D01*
X131900Y312200D01*
X132300D01*
Y312600D01*
X131900Y313000D01*
X132300Y313400D01*
Y313800D01*
X131900D01*
X131500Y313400D01*
X131100Y313800D01*
X130700D01*
Y313400D01*
X131100Y313000D01*
X130700Y312600D01*
Y312200D01*
X130800Y315300D02*
X131200D01*
X131600Y315700D01*
X132000Y315300D01*
X132400D01*
Y315700D01*
X132000Y316100D01*
X132400Y316500D01*
Y316900D01*
X132000D01*
X131600Y316500D01*
X131200Y316900D01*
X130800D01*
Y316500D01*
X131200Y316100D01*
X130800Y315700D01*
Y315300D01*
X112800Y274300D02*
X113200D01*
X113600Y274700D01*
X114000Y274300D01*
X114400D01*
Y274700D01*
X114000Y275100D01*
X114400Y275500D01*
Y275900D01*
X114000D01*
X113600Y275500D01*
X113200Y275900D01*
X112800D01*
Y275500D01*
X113200Y275100D01*
X112800Y274700D01*
Y274300D01*
X112700Y271200D02*
X113100D01*
X113500Y271600D01*
X113900Y271200D01*
X114300D01*
Y271600D01*
X113900Y272000D01*
X114300Y272400D01*
Y272800D01*
X113900D01*
X113500Y272400D01*
X113100Y272800D01*
X112700D01*
Y272400D01*
X113100Y272000D01*
X112700Y271600D01*
Y271200D01*
Y268300D02*
X113100D01*
X113500Y268700D01*
X113900Y268300D01*
X114300D01*
Y268700D01*
X113900Y269100D01*
X114300Y269500D01*
Y269900D01*
X113900D01*
X113500Y269500D01*
X113100Y269900D01*
X112700D01*
Y269500D01*
X113100Y269100D01*
X112700Y268700D01*
Y268300D01*
Y265400D02*
X113100D01*
X113500Y265800D01*
X113900Y265400D01*
X114300D01*
Y265800D01*
X113900Y266200D01*
X114300Y266600D01*
Y267000D01*
X113900D01*
X113500Y266600D01*
X113100Y267000D01*
X112700D01*
Y266600D01*
X113100Y266200D01*
X112700Y265800D01*
Y265400D01*
X112600Y262600D02*
X113000D01*
X113400Y263000D01*
X113800Y262600D01*
X114200D01*
Y263000D01*
X113800Y263400D01*
X114200Y263800D01*
Y264200D01*
X113800D01*
X113400Y263800D01*
X113000Y264200D01*
X112600D01*
Y263800D01*
X113000Y263400D01*
X112600Y263000D01*
Y262600D01*
X115800D02*
X116200D01*
X116600Y263000D01*
X117000Y262600D01*
X117400D01*
Y263000D01*
X117000Y263400D01*
X117400Y263800D01*
Y264200D01*
X117000D01*
X116600Y263800D01*
X116200Y264200D01*
X115800D01*
Y263800D01*
X116200Y263400D01*
X115800Y263000D01*
Y262600D01*
X115900Y265400D02*
X116300D01*
X116700Y265800D01*
X117100Y265400D01*
X117500D01*
Y265800D01*
X117100Y266200D01*
X117500Y266600D01*
Y267000D01*
X117100D01*
X116700Y266600D01*
X116300Y267000D01*
X115900D01*
Y266600D01*
X116300Y266200D01*
X115900Y265800D01*
Y265400D01*
Y268300D02*
X116300D01*
X116700Y268700D01*
X117100Y268300D01*
X117500D01*
Y268700D01*
X117100Y269100D01*
X117500Y269500D01*
Y269900D01*
X117100D01*
X116700Y269500D01*
X116300Y269900D01*
X115900D01*
Y269500D01*
X116300Y269100D01*
X115900Y268700D01*
Y268300D01*
Y271200D02*
X116300D01*
X116700Y271600D01*
X117100Y271200D01*
X117500D01*
Y271600D01*
X117100Y272000D01*
X117500Y272400D01*
Y272800D01*
X117100D01*
X116700Y272400D01*
X116300Y272800D01*
X115900D01*
Y272400D01*
X116300Y272000D01*
X115900Y271600D01*
Y271200D01*
X116000Y274300D02*
X116400D01*
X116800Y274700D01*
X117200Y274300D01*
X117600D01*
Y274700D01*
X117200Y275100D01*
X117600Y275500D01*
Y275900D01*
X117200D01*
X116800Y275500D01*
X116400Y275900D01*
X116000D01*
Y275500D01*
X116400Y275100D01*
X116000Y274700D01*
Y274300D01*
X109800Y274400D02*
X110200D01*
X110600Y274800D01*
X111000Y274400D01*
X111400D01*
Y274800D01*
X111000Y275200D01*
X111400Y275600D01*
Y276000D01*
X111000D01*
X110600Y275600D01*
X110200Y276000D01*
X109800D01*
Y275600D01*
X110200Y275200D01*
X109800Y274800D01*
Y274400D01*
X109700Y271300D02*
X110100D01*
X110500Y271700D01*
X110900Y271300D01*
X111300D01*
Y271700D01*
X110900Y272100D01*
X111300Y272500D01*
Y272900D01*
X110900D01*
X110500Y272500D01*
X110100Y272900D01*
X109700D01*
Y272500D01*
X110100Y272100D01*
X109700Y271700D01*
Y271300D01*
Y268400D02*
X110100D01*
X110500Y268800D01*
X110900Y268400D01*
X111300D01*
Y268800D01*
X110900Y269200D01*
X111300Y269600D01*
Y270000D01*
X110900D01*
X110500Y269600D01*
X110100Y270000D01*
X109700D01*
Y269600D01*
X110100Y269200D01*
X109700Y268800D01*
Y268400D01*
Y265500D02*
X110100D01*
X110500Y265900D01*
X110900Y265500D01*
X111300D01*
Y265900D01*
X110900Y266300D01*
X111300Y266700D01*
Y267100D01*
X110900D01*
X110500Y266700D01*
X110100Y267100D01*
X109700D01*
Y266700D01*
X110100Y266300D01*
X109700Y265900D01*
Y265500D01*
X109600Y262700D02*
X110000D01*
X110400Y263100D01*
X110800Y262700D01*
X111200D01*
Y263100D01*
X110800Y263500D01*
X111200Y263900D01*
Y264300D01*
X110800D01*
X110400Y263900D01*
X110000Y264300D01*
X109600D01*
Y263900D01*
X110000Y263500D01*
X109600Y263100D01*
Y262700D01*
X106400D02*
X106800D01*
X107200Y263100D01*
X107600Y262700D01*
X108000D01*
Y263100D01*
X107600Y263500D01*
X108000Y263900D01*
Y264300D01*
X107600D01*
X107200Y263900D01*
X106800Y264300D01*
X106400D01*
Y263900D01*
X106800Y263500D01*
X106400Y263100D01*
Y262700D01*
X106500Y265500D02*
X106900D01*
X107300Y265900D01*
X107700Y265500D01*
X108100D01*
Y265900D01*
X107700Y266300D01*
X108100Y266700D01*
Y267100D01*
X107700D01*
X107300Y266700D01*
X106900Y267100D01*
X106500D01*
Y266700D01*
X106900Y266300D01*
X106500Y265900D01*
Y265500D01*
Y268400D02*
X106900D01*
X107300Y268800D01*
X107700Y268400D01*
X108100D01*
Y268800D01*
X107700Y269200D01*
X108100Y269600D01*
Y270000D01*
X107700D01*
X107300Y269600D01*
X106900Y270000D01*
X106500D01*
Y269600D01*
X106900Y269200D01*
X106500Y268800D01*
Y268400D01*
Y271300D02*
X106900D01*
X107300Y271700D01*
X107700Y271300D01*
X108100D01*
Y271700D01*
X107700Y272100D01*
X108100Y272500D01*
Y272900D01*
X107700D01*
X107300Y272500D01*
X106900Y272900D01*
X106500D01*
Y272500D01*
X106900Y272100D01*
X106500Y271700D01*
Y271300D01*
X106600Y274400D02*
X107000D01*
X107400Y274800D01*
X107800Y274400D01*
X108200D01*
Y274800D01*
X107800Y275200D01*
X108200Y275600D01*
Y276000D01*
X107800D01*
X107400Y275600D01*
X107000Y276000D01*
X106600D01*
Y275600D01*
X107000Y275200D01*
X106600Y274800D01*
Y274400D01*
X106900Y289400D02*
X107300D01*
X107700Y289800D01*
X108100Y289400D01*
X108500D01*
Y289800D01*
X108100Y290200D01*
X108500Y290600D01*
Y291000D01*
X108100D01*
X107700Y290600D01*
X107300Y291000D01*
X106900D01*
Y290600D01*
X107300Y290200D01*
X106900Y289800D01*
Y289400D01*
X106800Y286300D02*
X107200D01*
X107600Y286700D01*
X108000Y286300D01*
X108400D01*
Y286700D01*
X108000Y287100D01*
X108400Y287500D01*
Y287900D01*
X108000D01*
X107600Y287500D01*
X107200Y287900D01*
X106800D01*
Y287500D01*
X107200Y287100D01*
X106800Y286700D01*
Y286300D01*
Y283400D02*
X107200D01*
X107600Y283800D01*
X108000Y283400D01*
X108400D01*
Y283800D01*
X108000Y284200D01*
X108400Y284600D01*
Y285000D01*
X108000D01*
X107600Y284600D01*
X107200Y285000D01*
X106800D01*
Y284600D01*
X107200Y284200D01*
X106800Y283800D01*
Y283400D01*
Y280500D02*
X107200D01*
X107600Y280900D01*
X108000Y280500D01*
X108400D01*
Y280900D01*
X108000Y281300D01*
X108400Y281700D01*
Y282100D01*
X108000D01*
X107600Y281700D01*
X107200Y282100D01*
X106800D01*
Y281700D01*
X107200Y281300D01*
X106800Y280900D01*
Y280500D01*
X106700Y277700D02*
X107100D01*
X107500Y278100D01*
X107900Y277700D01*
X108300D01*
Y278100D01*
X107900Y278500D01*
X108300Y278900D01*
Y279300D01*
X107900D01*
X107500Y278900D01*
X107100Y279300D01*
X106700D01*
Y278900D01*
X107100Y278500D01*
X106700Y278100D01*
Y277700D01*
X109900D02*
X110300D01*
X110700Y278100D01*
X111100Y277700D01*
X111500D01*
Y278100D01*
X111100Y278500D01*
X111500Y278900D01*
Y279300D01*
X111100D01*
X110700Y278900D01*
X110300Y279300D01*
X109900D01*
Y278900D01*
X110300Y278500D01*
X109900Y278100D01*
Y277700D01*
X110000Y280500D02*
X110400D01*
X110800Y280900D01*
X111200Y280500D01*
X111600D01*
Y280900D01*
X111200Y281300D01*
X111600Y281700D01*
Y282100D01*
X111200D01*
X110800Y281700D01*
X110400Y282100D01*
X110000D01*
Y281700D01*
X110400Y281300D01*
X110000Y280900D01*
Y280500D01*
Y283400D02*
X110400D01*
X110800Y283800D01*
X111200Y283400D01*
X111600D01*
Y283800D01*
X111200Y284200D01*
X111600Y284600D01*
Y285000D01*
X111200D01*
X110800Y284600D01*
X110400Y285000D01*
X110000D01*
Y284600D01*
X110400Y284200D01*
X110000Y283800D01*
Y283400D01*
Y286300D02*
X110400D01*
X110800Y286700D01*
X111200Y286300D01*
X111600D01*
Y286700D01*
X111200Y287100D01*
X111600Y287500D01*
Y287900D01*
X111200D01*
X110800Y287500D01*
X110400Y287900D01*
X110000D01*
Y287500D01*
X110400Y287100D01*
X110000Y286700D01*
Y286300D01*
X110100Y289400D02*
X110500D01*
X110900Y289800D01*
X111300Y289400D01*
X111700D01*
Y289800D01*
X111300Y290200D01*
X111700Y290600D01*
Y291000D01*
X111300D01*
X110900Y290600D01*
X110500Y291000D01*
X110100D01*
Y290600D01*
X110500Y290200D01*
X110100Y289800D01*
Y289400D01*
X209700Y248600D02*
X210100D01*
X210500Y249000D01*
X210900Y248600D01*
X211300D01*
Y249000D01*
X210900Y249400D01*
X211300Y249800D01*
Y250200D01*
X210900D01*
X210500Y249800D01*
X210100Y250200D01*
X209700D01*
Y249800D01*
X210100Y249400D01*
X209700Y249000D01*
Y248600D01*
X203100D02*
X203500D01*
X203900Y249000D01*
X204300Y248600D01*
X204700D01*
Y249000D01*
X204300Y249400D01*
X204700Y249800D01*
Y250200D01*
X204300D01*
X203900Y249800D01*
X203500Y250200D01*
X203100D01*
Y249800D01*
X203500Y249400D01*
X203100Y249000D01*
Y248600D01*
X200000Y248700D02*
X200400D01*
X200800Y249100D01*
X201200Y248700D01*
X201600D01*
Y249100D01*
X201200Y249500D01*
X201600Y249900D01*
Y250300D01*
X201200D01*
X200800Y249900D01*
X200400Y250300D01*
X200000D01*
Y249900D01*
X200400Y249500D01*
X200000Y249100D01*
Y248700D01*
X196900D02*
X197300D01*
X197700Y249100D01*
X198100Y248700D01*
X198500D01*
Y249100D01*
X198100Y249500D01*
X198500Y249900D01*
Y250300D01*
X198100D01*
X197700Y249900D01*
X197300Y250300D01*
X196900D01*
Y249900D01*
X197300Y249500D01*
X196900Y249100D01*
Y248700D01*
X227547Y221247D02*
X227946D01*
X228346Y221647D01*
X228747Y221247D01*
X229147D01*
Y221647D01*
X228747Y222047D01*
X229147Y222447D01*
Y222847D01*
X228747D01*
X228346Y222447D01*
X227946Y222847D01*
X227547D01*
Y222447D01*
X227946Y222047D01*
X227547Y221647D01*
Y221247D01*
X272700Y208700D02*
X273100D01*
X273500Y209100D01*
X273900Y208700D01*
X274300D01*
Y209100D01*
X273900Y209500D01*
X274300Y209900D01*
Y210300D01*
X273900D01*
X273500Y209900D01*
X273100Y210300D01*
X272700D01*
Y209900D01*
X273100Y209500D01*
X272700Y209100D01*
Y208700D01*
X277700D02*
X278100D01*
X278500Y209100D01*
X278900Y208700D01*
X279300D01*
Y209100D01*
X278900Y209500D01*
X279300Y209900D01*
Y210300D01*
X278900D01*
X278500Y209900D01*
X278100Y210300D01*
X277700D01*
Y209900D01*
X278100Y209500D01*
X277700Y209100D01*
Y208700D01*
X267700D02*
X268100D01*
X268500Y209100D01*
X268900Y208700D01*
X269300D01*
Y209100D01*
X268900Y209500D01*
X269300Y209900D01*
Y210300D01*
X268900D01*
X268500Y209900D01*
X268100Y210300D01*
X267700D01*
Y209900D01*
X268100Y209500D01*
X267700Y209100D01*
Y208700D01*
X116300Y289300D02*
X116700D01*
X117100Y289700D01*
X117500Y289300D01*
X117900D01*
Y289700D01*
X117500Y290100D01*
X117900Y290500D01*
Y290900D01*
X117500D01*
X117100Y290500D01*
X116700Y290900D01*
X116300D01*
Y290500D01*
X116700Y290100D01*
X116300Y289700D01*
Y289300D01*
X116200Y286200D02*
X116600D01*
X117000Y286600D01*
X117400Y286200D01*
X117800D01*
Y286600D01*
X117400Y287000D01*
X117800Y287400D01*
Y287800D01*
X117400D01*
X117000Y287400D01*
X116600Y287800D01*
X116200D01*
Y287400D01*
X116600Y287000D01*
X116200Y286600D01*
Y286200D01*
Y283300D02*
X116600D01*
X117000Y283700D01*
X117400Y283300D01*
X117800D01*
Y283700D01*
X117400Y284100D01*
X117800Y284500D01*
Y284900D01*
X117400D01*
X117000Y284500D01*
X116600Y284900D01*
X116200D01*
Y284500D01*
X116600Y284100D01*
X116200Y283700D01*
Y283300D01*
Y280400D02*
X116600D01*
X117000Y280800D01*
X117400Y280400D01*
X117800D01*
Y280800D01*
X117400Y281200D01*
X117800Y281600D01*
Y282000D01*
X117400D01*
X117000Y281600D01*
X116600Y282000D01*
X116200D01*
Y281600D01*
X116600Y281200D01*
X116200Y280800D01*
Y280400D01*
X116100Y277600D02*
X116500D01*
X116900Y278000D01*
X117300Y277600D01*
X117700D01*
Y278000D01*
X117300Y278400D01*
X117700Y278800D01*
Y279200D01*
X117300D01*
X116900Y278800D01*
X116500Y279200D01*
X116100D01*
Y278800D01*
X116500Y278400D01*
X116100Y278000D01*
Y277600D01*
X112900D02*
X113300D01*
X113700Y278000D01*
X114100Y277600D01*
X114500D01*
Y278000D01*
X114100Y278400D01*
X114500Y278800D01*
Y279200D01*
X114100D01*
X113700Y278800D01*
X113300Y279200D01*
X112900D01*
Y278800D01*
X113300Y278400D01*
X112900Y278000D01*
Y277600D01*
X113000Y280400D02*
X113400D01*
X113800Y280800D01*
X114200Y280400D01*
X114600D01*
Y280800D01*
X114200Y281200D01*
X114600Y281600D01*
Y282000D01*
X114200D01*
X113800Y281600D01*
X113400Y282000D01*
X113000D01*
Y281600D01*
X113400Y281200D01*
X113000Y280800D01*
Y280400D01*
Y283300D02*
X113400D01*
X113800Y283700D01*
X114200Y283300D01*
X114600D01*
Y283700D01*
X114200Y284100D01*
X114600Y284500D01*
Y284900D01*
X114200D01*
X113800Y284500D01*
X113400Y284900D01*
X113000D01*
Y284500D01*
X113400Y284100D01*
X113000Y283700D01*
Y283300D01*
Y286200D02*
X113400D01*
X113800Y286600D01*
X114200Y286200D01*
X114600D01*
Y286600D01*
X114200Y287000D01*
X114600Y287400D01*
Y287800D01*
X114200D01*
X113800Y287400D01*
X113400Y287800D01*
X113000D01*
Y287400D01*
X113400Y287000D01*
X113000Y286600D01*
Y286200D01*
X113100Y289300D02*
X113500D01*
X113900Y289700D01*
X114300Y289300D01*
X114700D01*
Y289700D01*
X114300Y290100D01*
X114700Y290500D01*
Y290900D01*
X114300D01*
X113900Y290500D01*
X113500Y290900D01*
X113100D01*
Y290500D01*
X113500Y290100D01*
X113100Y289700D01*
Y289300D01*
X240431Y188300D02*
X240831D01*
X241231Y188700D01*
X241631Y188300D01*
X242031D01*
Y188700D01*
X241631Y189100D01*
X242031Y189500D01*
Y189900D01*
X241631D01*
X241231Y189500D01*
X240831Y189900D01*
X240431D01*
Y189500D01*
X240831Y189100D01*
X240431Y188700D01*
Y188300D01*
X240331Y177500D02*
X240731D01*
X241131Y177900D01*
X241531Y177500D01*
X241931D01*
Y177900D01*
X241531Y178300D01*
X241931Y178700D01*
Y179100D01*
X241531D01*
X241131Y178700D01*
X240731Y179100D01*
X240331D01*
Y178700D01*
X240731Y178300D01*
X240331Y177900D01*
Y177500D01*
X303900Y142000D02*
X304300D01*
X304700Y142400D01*
X305100Y142000D01*
X305500D01*
Y142400D01*
X305100Y142800D01*
X305500Y143200D01*
Y143600D01*
X305100D01*
X304700Y143200D01*
X304300Y143600D01*
X303900D01*
Y143200D01*
X304300Y142800D01*
X303900Y142400D01*
Y142000D01*
Y146500D02*
X304300D01*
X304700Y146900D01*
X305100Y146500D01*
X305500D01*
Y146900D01*
X305100Y147300D01*
X305500Y147700D01*
Y148100D01*
X305100D01*
X304700Y147700D01*
X304300Y148100D01*
X303900D01*
Y147700D01*
X304300Y147300D01*
X303900Y146900D01*
Y146500D01*
X297900D02*
X298300D01*
X298700Y146900D01*
X299100Y146500D01*
X299500D01*
Y146900D01*
X299100Y147300D01*
X299500Y147700D01*
Y148100D01*
X299100D01*
X298700Y147700D01*
X298300Y148100D01*
X297900D01*
Y147700D01*
X298300Y147300D01*
X297900Y146900D01*
Y146500D01*
D28*
X317000Y281843D02*
X316447Y282604D01*
X315553Y282313D01*
Y281373D01*
X316447Y281082D01*
X317000Y281843D01*
Y262043D02*
X316447Y262804D01*
X315553Y262513D01*
Y261573D01*
X316447Y261282D01*
X317000Y262043D01*
M02*
