M48
;Layer_Color=9474304
;FILE_FORMAT=2:5
INCH,TZ
;TYPE=PLATED
T1F00S00C0.01181
T2F00S00C0.01200
T3F00S00C0.02992
T4F00S00C0.03000
T5F00S00C0.03500
T6F00S00C0.04000
T7F00S00C0.06299
T8F00S00C0.12598
T9F00S00C0.12795
%
T01
X259449Y155118
X263386
X267323
X271260
Y160630
X267323
X263386
X259449
T02
X263386Y142913
X268110
X292600Y142800
Y147300
X298700
Y142800
X304700
Y147300
X310800
Y142800
X312598Y170866
X326500Y239500
X334300Y258700
X334400Y261500
Y264400
Y267300
X337600
Y264400
Y261500
X337500Y258700
X340500Y258600
X340600Y261400
Y264300
Y267200
X340700Y270300
X337700Y270400
X334500
X334400Y273600
X334500Y276400
Y279300
Y282200
X337700
Y279300
Y276400
X337600Y273600
X340600Y273500
X340700Y276300
Y279200
Y282100
X340800Y285200
X337800Y285300
X334600
X344000Y285200
X343900Y282100
Y279200
Y276300
X343800Y273500
X343900Y270300
X343800Y267200
Y264300
Y261400
X343700Y258600
X279500Y262000
Y264900
X276800
X273900Y265000
X266600
X263000
X259600Y265100
X261200Y262800
X257600
X264800Y262700
X278600Y238100
X281800
X285200
X278500Y209500
X273500
X268500
X267100Y196100
X270000
X272900
X275700Y196000
Y192800
X272900Y192900
X270000
X267100
X267000Y189900
X269900
X272800
X275600Y189800
Y186600
X272800Y186700
X269900
X267000
X263900Y186800
Y190000
X264000Y193000
Y196200
X256500Y189000
X252000Y184000
X256500Y178000
X263700Y177300
Y174400
Y171500
X263600Y168700
X266800
X266900Y171500
Y174400
Y177300
X269900Y177200
Y174300
Y171400
X269800Y168600
X273000
X273100Y171400
Y174300
Y177200
X273200Y180300
X270000
X267000Y180400
X263800
X252000Y173000
X241131Y178300
X241231Y189100
X228346Y188976
Y194882
X230400Y207900
X224803Y207874
X224365Y217367
X228346Y222047
Y228346
X238832Y230908
X241632Y230808
Y234008
X238832Y234108
X238932Y237108
X241732Y237008
Y240208
X238932Y240308
X230223Y214475
X207087Y197244
Y192913
X194882Y201575
X177953Y195669
X177559Y178347
X184451Y230908
Y234108
X184551Y237108
X187651Y237008
X190551
X190451Y234008
X187551
Y230808
X190451
X190551Y240208
X187651
X184551Y240308
X197700Y249500
X200800
X203900Y249400
X207000Y249500
X210500Y249400
X226300Y305600
X226400Y308400
Y311300
X229600
Y308400
X229500Y305600
X232500Y305500
X232600Y308300
Y311200
X235800
Y308300
X235700Y305500
X185800
X185900Y308300
Y311200
X182700
Y308300
X182600Y305500
X179600Y305600
X179700Y308400
Y311300
X176500
Y308400
X176400Y305600
X232283Y172062
X275984Y160630
X279134
X282283
X285433
X307480Y170866
X147244Y203543
Y210630
X141100Y231200
X141200Y234000
X138000
X137900Y231200
X134900Y231300
X135000Y234100
X131800
X131700Y231300
X116600Y263400
X116700Y266200
Y269100
Y272000
X113500
Y269100
Y266200
X113400Y263400
X110400Y263500
X110500Y266300
Y269200
Y272100
X110600Y275200
X113600Y275100
X116800
X116900Y278400
X117000Y281200
Y284100
Y287000
X117100Y290100
X113900
X110900Y290200
X107700
X107600Y287100
Y284200
Y281300
X107500Y278500
X110700
X110800Y281300
Y284200
Y287100
X113800Y287000
Y284100
Y281200
X113700Y278400
X107400Y275200
X107300Y272100
Y269200
Y266300
X107200Y263500
X131400Y304400
X131500Y307200
Y310100
X134700
Y307200
X134600Y304400
X137600Y304300
X137700Y307100
Y310000
X140900
Y307100
X140800Y304300
X140900Y312900
X137700
X134700Y313000
X134800Y316100
X137800Y316000
X141000
X131600Y316100
X131500Y313000
X176500Y314200
X179700
X182700Y314100
X182800Y317200
X179800Y317300
X176600
X186000Y317200
X185900Y314100
X226400Y314200
X229600
X232600Y314100
X232700Y317200
X229700Y317300
X226500
X235900Y317200
X235800Y314100
X287543Y314173
X319291
T03
X164603Y258693
X159603Y268693
X197203
X207203
X217203
X212203Y258693
X202203
X222203
X154603
X144603
X139603Y268693
X149603
T04
X282000Y247000
Y252000
T05
X247400Y313000
X257400
T06
X134400Y110200
X144400
X154400
Y120200
X144400
X134400
X111900Y143400
Y153400
X171800Y153300
Y143300
Y133300
X174400Y120200
Y110200
X184400
X194400
X204400
X214400
X224400
X234400
X244400
X254400
X264400
X274400
X284400
X294400
X304400
Y120200
X294400
X284400
X274400
X264400
X254400
X244400
X234400
X224400
X214400
X204400
X194400
X184400
X164400
Y110200
X196400Y133300
Y143300
Y153300
X221000Y153000
Y143000
Y133000
X244500
Y143000
Y153000
X325400Y134000
X335400
X345400
X324400Y120200
Y110200
X314400
Y120200
X244500Y163000
X221000
X196400Y163300
X171800
X111900Y163400
Y173400
Y183400
Y193400
Y203400
Y213400
Y223400
Y233400
X268622Y312992
X278622
T07
X316200Y262043
Y281843
T08
X115000Y115000
X343347Y307913
X115000
T09
X172083Y293693
X189683
X229683
X132083
M30
