G04*
G04 #@! TF.GenerationSoftware,Altium Limited,Altium Designer,21.8.1 (53)*
G04*
G04 Layer_Physical_Order=3*
G04 Layer_Color=128*
%FSLAX25Y25*%
%MOIN*%
G70*
G04*
G04 #@! TF.SameCoordinates,4A88703C-FF3E-4B1E-BF10-83D339521CC7*
G04*
G04*
G04 #@! TF.FilePolarity,Negative*
G04*
G01*
G75*
%ADD67C,0.04000*%
%ADD83C,0.08000*%
G04:AMPARAMS|DCode=84|XSize=100mil|YSize=100mil|CornerRadius=0mil|HoleSize=0mil|Usage=FLASHONLY|Rotation=0.000|XOffset=0mil|YOffset=0mil|HoleType=Round|Shape=Relief|Width=10mil|Gap=10mil|Entries=4|*
%AMTHD84*
7,0,0,0.10000,0.08000,0.01000,45*
%
%ADD84THD84*%
%ADD85C,0.10299*%
%ADD87C,0.16598*%
%ADD88C,0.16795*%
%ADD89C,0.06992*%
G04:AMPARAMS|DCode=90|XSize=89.921mil|YSize=89.921mil|CornerRadius=0mil|HoleSize=0mil|Usage=FLASHONLY|Rotation=0.000|XOffset=0mil|YOffset=0mil|HoleType=Round|Shape=Relief|Width=10mil|Gap=10mil|Entries=4|*
%AMTHD90*
7,0,0,0.08992,0.06992,0.01000,45*
%
%ADD90THD90*%
%ADD91C,0.07500*%
%ADD92C,0.05200*%
%ADD94C,0.07000*%
D67*
X100919Y114903D02*
X100900Y114793D01*
X100899Y115014D02*
X100919Y114903D01*
X114707Y322013D02*
X113717Y321964D01*
X112733Y321844D01*
X111760Y321656D01*
X110803Y321399D01*
X109867Y321075D01*
X108955Y320685D01*
X108074Y320233D01*
X107226Y319719D01*
X106417Y319146D01*
X105651Y318518D01*
X104931Y317837D01*
X104261Y317107D01*
X103644Y316331D01*
X103083Y315514D01*
X102582Y314659D01*
X102142Y313771D01*
X101766Y312854D01*
X101456Y311912D01*
X101213Y310952D01*
X101039Y309976D01*
X100934Y308990D01*
X100899Y308000D01*
X114829Y321989D02*
X114707Y322013D01*
X114913Y322002D02*
X114829Y321989D01*
X343333Y322015D02*
X343244Y322002D01*
X357448Y307913D02*
X357412Y308920D01*
X357304Y309922D01*
X357125Y310913D01*
X356876Y311889D01*
X356558Y312844D01*
X356172Y313775D01*
X355721Y314675D01*
X355207Y315541D01*
X354632Y316369D01*
X353999Y317153D01*
X353313Y317889D01*
X352575Y318576D01*
X351791Y319207D01*
X350963Y319781D01*
X350096Y320294D01*
X349195Y320745D01*
X348264Y321129D01*
X347308Y321447D01*
X346332Y321695D01*
X345341Y321873D01*
X344339Y321980D01*
X343333Y322015D01*
X357448Y307900D02*
X357448Y307913D01*
X357401Y307739D02*
X357448Y307900D01*
X357448Y115014D02*
X357401Y115174D01*
X357448Y115000D02*
X357448Y115014D01*
X343554Y100900D02*
X344550Y100950D01*
X345540Y101070D01*
X346519Y101260D01*
X347482Y101518D01*
X348424Y101845D01*
X349341Y102236D01*
X350228Y102692D01*
X351081Y103209D01*
X351895Y103785D01*
X352666Y104417D01*
X353391Y105102D01*
X354065Y105837D01*
X354686Y106617D01*
X355250Y107440D01*
X355755Y108300D01*
X356197Y109194D01*
X356575Y110116D01*
X356887Y111063D01*
X357132Y112030D01*
X357307Y113012D01*
X357413Y114003D01*
X357448Y115000D01*
X343443Y100919D02*
X343554Y100900D01*
X343333Y100899D02*
X343443Y100919D01*
X100900Y114793D02*
X100950Y113796D01*
X101070Y112805D01*
X101260Y111826D01*
X101519Y110862D01*
X101846Y109919D01*
X102238Y109002D01*
X102694Y108114D01*
X103212Y107261D01*
X103788Y106447D01*
X104421Y105676D01*
X105107Y104951D01*
X105843Y104276D01*
X106624Y103656D01*
X107447Y103092D01*
X108308Y102587D01*
X109203Y102145D01*
X110126Y101768D01*
X111074Y101456D01*
X112042Y101212D01*
X113024Y101038D01*
X114016Y100933D01*
X115014Y100899D01*
X115014Y100899D02*
X115014Y100899D01*
X115014Y100899D02*
X343333D01*
X343554Y100900D02*
Y100900D01*
X357401Y115174D02*
Y307739D01*
X114913Y322002D02*
X343244D01*
X114707Y322013D02*
X114707Y322013D01*
X100899Y115014D02*
Y308000D01*
D83*
X268622Y312992D02*
D03*
X278622D02*
D03*
X325400Y134000D02*
D03*
X335400D02*
D03*
X345400D02*
D03*
X244500Y163000D02*
D03*
Y153000D02*
D03*
Y143000D02*
D03*
Y133000D02*
D03*
X221000Y163000D02*
D03*
Y153000D02*
D03*
Y143000D02*
D03*
X171800Y163300D02*
D03*
Y153300D02*
D03*
Y143300D02*
D03*
X196400Y163300D02*
D03*
Y153300D02*
D03*
Y143300D02*
D03*
X111900Y143400D02*
D03*
Y153400D02*
D03*
Y203400D02*
D03*
Y213400D02*
D03*
Y193400D02*
D03*
Y183400D02*
D03*
Y223400D02*
D03*
Y173400D02*
D03*
Y163400D02*
D03*
X324400Y110200D02*
D03*
X314400D02*
D03*
X304400D02*
D03*
X294400D02*
D03*
X284400D02*
D03*
X274400D02*
D03*
X264400D02*
D03*
X254400D02*
D03*
X244400D02*
D03*
X234400D02*
D03*
X224400D02*
D03*
X214400D02*
D03*
X204400D02*
D03*
X194400D02*
D03*
X184400D02*
D03*
X174400D02*
D03*
X144400D02*
D03*
X134400D02*
D03*
X324400Y120200D02*
D03*
X164400Y110200D02*
D03*
X154400D02*
D03*
Y120200D02*
D03*
X164400D02*
D03*
X134400D02*
D03*
X144400D02*
D03*
X174400D02*
D03*
X184400D02*
D03*
X194400D02*
D03*
X204400D02*
D03*
X214400D02*
D03*
X224400D02*
D03*
X234400D02*
D03*
X244400D02*
D03*
X254400D02*
D03*
X264400D02*
D03*
X274400D02*
D03*
X284400D02*
D03*
X294400D02*
D03*
X304400D02*
D03*
X314400D02*
D03*
D84*
X221000Y133000D02*
D03*
X171800Y133300D02*
D03*
X196400D02*
D03*
X111900Y233400D02*
D03*
D85*
X316200Y281843D02*
D03*
Y262043D02*
D03*
D87*
X115000Y115000D02*
D03*
X343347Y307913D02*
D03*
X115000D02*
D03*
D88*
X132083Y293693D02*
D03*
X172083D02*
D03*
X189683D02*
D03*
X229683D02*
D03*
D89*
X139603Y268693D02*
D03*
X144603Y258693D02*
D03*
X149603Y268693D02*
D03*
X154603Y258693D02*
D03*
X164603D02*
D03*
X197203Y268693D02*
D03*
X202203Y258693D02*
D03*
X207203Y268693D02*
D03*
X212203Y258693D02*
D03*
X222203D02*
D03*
D90*
X159603Y268693D02*
D03*
X217203D02*
D03*
D91*
X247400Y313000D02*
D03*
X257400D02*
D03*
D92*
X230400Y207900D02*
D03*
X224365Y217367D02*
D03*
X224803Y207874D02*
D03*
X230223Y214475D02*
D03*
X207087Y197244D02*
D03*
Y192913D02*
D03*
X232283Y172062D02*
D03*
X319291Y314173D02*
D03*
X194882Y201575D02*
D03*
X147244Y210630D02*
D03*
Y203543D02*
D03*
X228346Y228346D02*
D03*
X177559Y178347D02*
D03*
X177953Y195669D02*
D03*
X207000Y249500D02*
D03*
X228346Y194882D02*
D03*
X312598Y170866D02*
D03*
X307480D02*
D03*
X263386Y142913D02*
D03*
X298700Y142800D02*
D03*
X292600D02*
D03*
Y147300D02*
D03*
X268110Y142913D02*
D03*
X310800Y142800D02*
D03*
Y147300D02*
D03*
X131800Y234100D02*
D03*
X131700Y231300D02*
D03*
X134900D02*
D03*
X135000Y234100D02*
D03*
X141200Y234000D02*
D03*
X141100Y231200D02*
D03*
X137900D02*
D03*
X138000Y234000D02*
D03*
X252000Y184000D02*
D03*
Y173000D02*
D03*
X281800Y238100D02*
D03*
X285200D02*
D03*
X278600D02*
D03*
X257600Y262800D02*
D03*
X261200D02*
D03*
X264800Y262700D02*
D03*
X279500Y262000D02*
D03*
Y264900D02*
D03*
X276800D02*
D03*
X273900Y265000D02*
D03*
X266600D02*
D03*
X263000D02*
D03*
X259600Y265100D02*
D03*
X326500Y239500D02*
D03*
X340700Y270300D02*
D03*
X340600Y267200D02*
D03*
Y264300D02*
D03*
Y261400D02*
D03*
X340500Y258600D02*
D03*
X343700D02*
D03*
X343800Y261400D02*
D03*
Y264300D02*
D03*
Y267200D02*
D03*
X343900Y270300D02*
D03*
X337700Y270400D02*
D03*
X337600Y267300D02*
D03*
Y264400D02*
D03*
Y261500D02*
D03*
X337500Y258700D02*
D03*
X334300D02*
D03*
X334400Y261500D02*
D03*
Y264400D02*
D03*
Y267300D02*
D03*
X334500Y270400D02*
D03*
X340800Y285200D02*
D03*
X340700Y282100D02*
D03*
Y279200D02*
D03*
Y276300D02*
D03*
X340600Y273500D02*
D03*
X343800D02*
D03*
X343900Y276300D02*
D03*
Y279200D02*
D03*
Y282100D02*
D03*
X344000Y285200D02*
D03*
X337800Y285300D02*
D03*
X337700Y282200D02*
D03*
Y279300D02*
D03*
Y276400D02*
D03*
X337600Y273600D02*
D03*
X334400D02*
D03*
X334500Y276400D02*
D03*
Y279300D02*
D03*
Y282200D02*
D03*
X334600Y285300D02*
D03*
X184551Y237108D02*
D03*
X187651Y237008D02*
D03*
X190551D02*
D03*
X238932Y237108D02*
D03*
X241732Y237008D02*
D03*
Y240208D02*
D03*
X238932Y240308D02*
D03*
X190551Y240208D02*
D03*
X187651D02*
D03*
X184551Y240308D02*
D03*
X184451Y234108D02*
D03*
X187551Y234008D02*
D03*
X190451D02*
D03*
X238832Y234108D02*
D03*
X241632Y234008D02*
D03*
Y230808D02*
D03*
X238832Y230908D02*
D03*
X190451Y230808D02*
D03*
X187551D02*
D03*
X184451Y230908D02*
D03*
X264000Y193000D02*
D03*
X267100Y192900D02*
D03*
X270000D02*
D03*
X272900D02*
D03*
X275700Y192800D02*
D03*
Y196000D02*
D03*
X272900Y196100D02*
D03*
X270000D02*
D03*
X267100D02*
D03*
X264000Y196200D02*
D03*
X263900Y190000D02*
D03*
X267000Y189900D02*
D03*
X269900D02*
D03*
X272800D02*
D03*
X275600Y189800D02*
D03*
Y186600D02*
D03*
X272800Y186700D02*
D03*
X269900D02*
D03*
X267000D02*
D03*
X263900Y186800D02*
D03*
X270000Y180300D02*
D03*
X269900Y177200D02*
D03*
Y174300D02*
D03*
Y171400D02*
D03*
X269800Y168600D02*
D03*
X273000D02*
D03*
X273100Y171400D02*
D03*
Y174300D02*
D03*
Y177200D02*
D03*
X273200Y180300D02*
D03*
X267000Y180400D02*
D03*
X266900Y177300D02*
D03*
Y174400D02*
D03*
Y171500D02*
D03*
X266800Y168700D02*
D03*
X263600D02*
D03*
X263700Y171500D02*
D03*
Y174400D02*
D03*
Y177300D02*
D03*
X263800Y180400D02*
D03*
X182800Y317200D02*
D03*
X182700Y314100D02*
D03*
Y311200D02*
D03*
Y308300D02*
D03*
X182600Y305500D02*
D03*
X185800D02*
D03*
X185900Y308300D02*
D03*
Y311200D02*
D03*
Y314100D02*
D03*
X186000Y317200D02*
D03*
X179800Y317300D02*
D03*
X179700Y314200D02*
D03*
Y311300D02*
D03*
Y308400D02*
D03*
X179600Y305600D02*
D03*
X176400D02*
D03*
X176500Y308400D02*
D03*
Y311300D02*
D03*
Y314200D02*
D03*
X176600Y317300D02*
D03*
X232700Y317200D02*
D03*
X232600Y314100D02*
D03*
Y311200D02*
D03*
Y308300D02*
D03*
X232500Y305500D02*
D03*
X235700D02*
D03*
X235800Y308300D02*
D03*
Y311200D02*
D03*
Y314100D02*
D03*
X235900Y317200D02*
D03*
X229700Y317300D02*
D03*
X229600Y314200D02*
D03*
Y311300D02*
D03*
Y308400D02*
D03*
X229500Y305600D02*
D03*
X226300D02*
D03*
X226400Y308400D02*
D03*
Y311300D02*
D03*
Y314200D02*
D03*
X226500Y317300D02*
D03*
X137800Y316000D02*
D03*
X137700Y312900D02*
D03*
Y310000D02*
D03*
Y307100D02*
D03*
X137600Y304300D02*
D03*
X140800D02*
D03*
X140900Y307100D02*
D03*
Y310000D02*
D03*
Y312900D02*
D03*
X141000Y316000D02*
D03*
X134800Y316100D02*
D03*
X134700Y313000D02*
D03*
Y310100D02*
D03*
Y307200D02*
D03*
X134600Y304400D02*
D03*
X131400D02*
D03*
X131500Y307200D02*
D03*
Y310100D02*
D03*
Y313000D02*
D03*
X131600Y316100D02*
D03*
X113600Y275100D02*
D03*
X113500Y272000D02*
D03*
Y269100D02*
D03*
Y266200D02*
D03*
X113400Y263400D02*
D03*
X116600D02*
D03*
X116700Y266200D02*
D03*
Y269100D02*
D03*
Y272000D02*
D03*
X116800Y275100D02*
D03*
X110600Y275200D02*
D03*
X110500Y272100D02*
D03*
Y269200D02*
D03*
Y266300D02*
D03*
X110400Y263500D02*
D03*
X107200D02*
D03*
X107300Y266300D02*
D03*
Y269200D02*
D03*
Y272100D02*
D03*
X107400Y275200D02*
D03*
X107700Y290200D02*
D03*
X107600Y287100D02*
D03*
Y284200D02*
D03*
Y281300D02*
D03*
X107500Y278500D02*
D03*
X110700D02*
D03*
X110800Y281300D02*
D03*
Y284200D02*
D03*
Y287100D02*
D03*
X110900Y290200D02*
D03*
X210500Y249400D02*
D03*
X203900D02*
D03*
X200800Y249500D02*
D03*
X197700D02*
D03*
X273500Y209500D02*
D03*
X278500D02*
D03*
X268500D02*
D03*
X117100Y290100D02*
D03*
X117000Y287000D02*
D03*
Y284100D02*
D03*
Y281200D02*
D03*
X116900Y278400D02*
D03*
X113700D02*
D03*
X113800Y281200D02*
D03*
Y284100D02*
D03*
Y287000D02*
D03*
X113900Y290100D02*
D03*
X241231Y189100D02*
D03*
X241131Y178300D02*
D03*
X304700Y142800D02*
D03*
Y147300D02*
D03*
X298700D02*
D03*
D94*
X282000Y247000D02*
D03*
Y252000D02*
D03*
M02*
