G04*
G04 #@! TF.GenerationSoftware,Altium Limited,Altium Designer,21.8.1 (53)*
G04*
G04 Layer_Physical_Order=2*
G04 Layer_Color=32768*
%FSLAX25Y25*%
%MOIN*%
G70*
G04*
G04 #@! TF.SameCoordinates,4A88703C-FF3E-4B1E-BF10-83D339521CC7*
G04*
G04*
G04 #@! TF.FilePolarity,Negative*
G04*
G01*
G75*
%ADD67C,0.04000*%
%ADD83C,0.08000*%
G04:AMPARAMS|DCode=84|XSize=100mil|YSize=100mil|CornerRadius=0mil|HoleSize=0mil|Usage=FLASHONLY|Rotation=0.000|XOffset=0mil|YOffset=0mil|HoleType=Round|Shape=Relief|Width=10mil|Gap=10mil|Entries=4|*
%AMTHD84*
7,0,0,0.10000,0.08000,0.01000,45*
%
%ADD84THD84*%
%ADD85C,0.10299*%
G04:AMPARAMS|DCode=86|XSize=122.992mil|YSize=122.992mil|CornerRadius=0mil|HoleSize=0mil|Usage=FLASHONLY|Rotation=0.000|XOffset=0mil|YOffset=0mil|HoleType=Round|Shape=Relief|Width=10mil|Gap=10mil|Entries=4|*
%AMTHD86*
7,0,0,0.12299,0.10299,0.01000,45*
%
%ADD86THD86*%
%ADD87C,0.16598*%
%ADD88C,0.16795*%
%ADD89C,0.06992*%
G04:AMPARAMS|DCode=90|XSize=89.921mil|YSize=89.921mil|CornerRadius=0mil|HoleSize=0mil|Usage=FLASHONLY|Rotation=0.000|XOffset=0mil|YOffset=0mil|HoleType=Round|Shape=Relief|Width=10mil|Gap=10mil|Entries=4|*
%AMTHD90*
7,0,0,0.08992,0.06992,0.01000,45*
%
%ADD90THD90*%
%ADD91C,0.07500*%
%ADD92C,0.05200*%
%ADD93C,0.05181*%
D67*
X100919Y114903D02*
X100900Y114793D01*
X100899Y115014D02*
X100919Y114903D01*
X114707Y322013D02*
X113717Y321964D01*
X112733Y321844D01*
X111760Y321656D01*
X110803Y321399D01*
X109867Y321075D01*
X108955Y320685D01*
X108074Y320233D01*
X107226Y319719D01*
X106417Y319146D01*
X105651Y318518D01*
X104931Y317837D01*
X104261Y317107D01*
X103644Y316331D01*
X103083Y315514D01*
X102582Y314659D01*
X102142Y313771D01*
X101766Y312854D01*
X101456Y311912D01*
X101213Y310952D01*
X101039Y309976D01*
X100934Y308990D01*
X100899Y308000D01*
X114829Y321989D02*
X114707Y322013D01*
X114913Y322002D02*
X114829Y321989D01*
X343333Y322015D02*
X343244Y322002D01*
X357448Y307913D02*
X357412Y308920D01*
X357304Y309922D01*
X357125Y310913D01*
X356876Y311889D01*
X356558Y312844D01*
X356172Y313775D01*
X355721Y314675D01*
X355207Y315541D01*
X354632Y316369D01*
X353999Y317153D01*
X353313Y317889D01*
X352575Y318576D01*
X351791Y319207D01*
X350963Y319781D01*
X350096Y320294D01*
X349195Y320745D01*
X348264Y321129D01*
X347308Y321447D01*
X346332Y321695D01*
X345341Y321873D01*
X344339Y321980D01*
X343333Y322015D01*
X357448Y307900D02*
X357448Y307913D01*
X357401Y307739D02*
X357448Y307900D01*
X357448Y115014D02*
X357401Y115174D01*
X357448Y115000D02*
X357448Y115014D01*
X343554Y100900D02*
X344550Y100950D01*
X345540Y101070D01*
X346519Y101260D01*
X347482Y101518D01*
X348424Y101845D01*
X349341Y102236D01*
X350228Y102692D01*
X351081Y103209D01*
X351895Y103785D01*
X352666Y104417D01*
X353391Y105102D01*
X354065Y105837D01*
X354686Y106617D01*
X355250Y107440D01*
X355755Y108300D01*
X356197Y109194D01*
X356575Y110116D01*
X356887Y111063D01*
X357132Y112030D01*
X357307Y113012D01*
X357413Y114003D01*
X357448Y115000D01*
X343443Y100919D02*
X343554Y100900D01*
X343333Y100899D02*
X343443Y100919D01*
X100900Y114793D02*
X100950Y113796D01*
X101070Y112805D01*
X101260Y111826D01*
X101519Y110862D01*
X101846Y109919D01*
X102238Y109002D01*
X102694Y108114D01*
X103212Y107261D01*
X103788Y106447D01*
X104421Y105676D01*
X105107Y104951D01*
X105843Y104276D01*
X106624Y103656D01*
X107447Y103092D01*
X108308Y102587D01*
X109203Y102145D01*
X110126Y101768D01*
X111074Y101456D01*
X112042Y101212D01*
X113024Y101038D01*
X114016Y100933D01*
X115014Y100899D01*
X115014Y100899D02*
X115014Y100899D01*
X115014Y100899D02*
X343333D01*
X343554Y100900D02*
Y100900D01*
X357401Y115174D02*
Y307739D01*
X114913Y322002D02*
X343244D01*
X114707Y322013D02*
X114707Y322013D01*
X100899Y115014D02*
Y308000D01*
D83*
X268622Y312992D02*
D03*
X278622D02*
D03*
X335400Y134000D02*
D03*
X345400D02*
D03*
X244500Y163000D02*
D03*
Y153000D02*
D03*
Y143000D02*
D03*
X221000Y153000D02*
D03*
Y143000D02*
D03*
Y133000D02*
D03*
X171800Y153300D02*
D03*
Y143300D02*
D03*
Y133300D02*
D03*
X196400Y153300D02*
D03*
Y143300D02*
D03*
Y133300D02*
D03*
X111900Y153400D02*
D03*
Y203400D02*
D03*
Y213400D02*
D03*
Y193400D02*
D03*
Y233400D02*
D03*
Y183400D02*
D03*
Y223400D02*
D03*
Y173400D02*
D03*
Y163400D02*
D03*
X324400Y110200D02*
D03*
X314400D02*
D03*
X294400D02*
D03*
X284400D02*
D03*
X274400D02*
D03*
X254400D02*
D03*
X244400D02*
D03*
X224400D02*
D03*
X214400D02*
D03*
X204400D02*
D03*
X194400D02*
D03*
X174400D02*
D03*
X144400D02*
D03*
X134400D02*
D03*
X324400Y120200D02*
D03*
X154400Y110200D02*
D03*
Y120200D02*
D03*
X164400D02*
D03*
X144400D02*
D03*
X174400D02*
D03*
X184400D02*
D03*
X194400D02*
D03*
X214400D02*
D03*
X224400D02*
D03*
X234400D02*
D03*
X244400D02*
D03*
X254400D02*
D03*
X264400D02*
D03*
X274400D02*
D03*
X294400D02*
D03*
X304400D02*
D03*
X314400D02*
D03*
D84*
X325400Y134000D02*
D03*
X244500Y133000D02*
D03*
X221000Y163000D02*
D03*
X171800Y163300D02*
D03*
X196400D02*
D03*
X111900Y143400D02*
D03*
X304400Y110200D02*
D03*
X264400D02*
D03*
X234400D02*
D03*
X184400D02*
D03*
X164400D02*
D03*
X134400Y120200D02*
D03*
X204400D02*
D03*
X284400D02*
D03*
D85*
X316200Y281843D02*
D03*
D86*
Y262043D02*
D03*
D87*
X115000Y115000D02*
D03*
X343347Y307913D02*
D03*
X115000D02*
D03*
D88*
X132083Y293693D02*
D03*
X172083D02*
D03*
X189683D02*
D03*
X229683D02*
D03*
D89*
X139603Y268693D02*
D03*
X149603D02*
D03*
X154603Y258693D02*
D03*
X159603Y268693D02*
D03*
X164603Y258693D02*
D03*
X197203Y268693D02*
D03*
X207203D02*
D03*
X212203Y258693D02*
D03*
X217203Y268693D02*
D03*
X222203Y258693D02*
D03*
D90*
X144603D02*
D03*
X202203D02*
D03*
D91*
X247400Y313000D02*
D03*
X257400D02*
D03*
D92*
X230400Y207900D02*
D03*
X224365Y217367D02*
D03*
X224803Y207874D02*
D03*
X230223Y214475D02*
D03*
X207087Y197244D02*
D03*
Y192913D02*
D03*
X232283Y172062D02*
D03*
X177953Y195669D02*
D03*
X228346Y188976D02*
D03*
X312598Y170866D02*
D03*
X307480D02*
D03*
X263386Y142913D02*
D03*
X268110D02*
D03*
X282283Y160630D02*
D03*
X279134D02*
D03*
X275984D02*
D03*
X285433D02*
D03*
X287543Y314173D02*
D03*
X256500Y178000D02*
D03*
Y189000D02*
D03*
X252000Y184000D02*
D03*
Y173000D02*
D03*
X326500Y239500D02*
D03*
X228346Y222047D02*
D03*
X241231Y189100D02*
D03*
X241131Y178300D02*
D03*
D93*
X259449Y155118D02*
D03*
X263386D02*
D03*
X267323D02*
D03*
X271260D02*
D03*
X259449Y160630D02*
D03*
X263386D02*
D03*
X267323D02*
D03*
X271260D02*
D03*
M02*
