G04*
G04 #@! TF.GenerationSoftware,Altium Limited,Altium Designer,21.8.1 (53)*
G04*
G04 Layer_Physical_Order=4*
G04 Layer_Color=16711680*
%FSLAX25Y25*%
%MOIN*%
G70*
G04*
G04 #@! TF.SameCoordinates,4A88703C-FF3E-4B1E-BF10-83D339521CC7*
G04*
G04*
G04 #@! TF.FilePolarity,Positive*
G04*
G01*
G75*
%ADD12C,0.01000*%
G04:AMPARAMS|DCode=22|XSize=50mil|YSize=37.4mil|CornerRadius=5.61mil|HoleSize=0mil|Usage=FLASHONLY|Rotation=90.000|XOffset=0mil|YOffset=0mil|HoleType=Round|Shape=RoundedRectangle|*
%AMROUNDEDRECTD22*
21,1,0.05000,0.02618,0,0,90.0*
21,1,0.03878,0.03740,0,0,90.0*
1,1,0.01122,0.01309,0.01939*
1,1,0.01122,0.01309,-0.01939*
1,1,0.01122,-0.01309,-0.01939*
1,1,0.01122,-0.01309,0.01939*
%
%ADD22ROUNDEDRECTD22*%
%ADD65C,0.01378*%
%ADD66C,0.02000*%
%ADD67C,0.04000*%
%ADD69C,0.06500*%
%ADD70R,0.06500X0.06500*%
%ADD71R,0.10000X0.10000*%
%ADD72R,0.07087X0.05906*%
%ADD73R,0.09449X0.12205*%
%ADD74C,0.19685*%
%ADD75R,0.06500X0.06500*%
%ADD76O,0.05500X0.07000*%
%ADD77R,0.05500X0.07000*%
%ADD78C,0.05906*%
%ADD79C,0.06000*%
%ADD80C,0.02400*%
%ADD81C,0.02362*%
%ADD82C,0.05000*%
G36*
X345300Y320248D02*
X347206Y319791D01*
X349016Y319041D01*
X350687Y318017D01*
X352177Y316744D01*
X353450Y315254D01*
X354474Y313583D01*
X355224Y311772D01*
X355681Y309867D01*
X355816Y308155D01*
X355774Y307946D01*
Y234543D01*
X355304Y234389D01*
X355275Y234388D01*
X349081Y240581D01*
X348585Y240913D01*
X348000Y241029D01*
X328124D01*
X328086Y241086D01*
X327358Y241572D01*
X326500Y241743D01*
X325642Y241572D01*
X324914Y241086D01*
X324428Y240358D01*
X324257Y239500D01*
X324428Y238642D01*
X324914Y237914D01*
X325642Y237428D01*
X326500Y237257D01*
X327358Y237428D01*
X328086Y237914D01*
X328124Y237971D01*
X347366D01*
X352671Y232666D01*
Y143433D01*
X349757Y140520D01*
X332000D01*
X331610Y140442D01*
X331279Y140221D01*
X330279Y139221D01*
X330058Y138890D01*
X329980Y138500D01*
Y136500D01*
Y116422D01*
X329078Y115520D01*
X316017D01*
X315917Y116020D01*
X316291Y116174D01*
X317074Y116776D01*
X317676Y117559D01*
X318054Y118471D01*
X318182Y119450D01*
Y120950D01*
X318054Y121929D01*
X317676Y122841D01*
X317074Y123625D01*
X316291Y124226D01*
X315379Y124603D01*
X314400Y124732D01*
X313421Y124603D01*
X313059Y124454D01*
X303931Y133581D01*
X303435Y133913D01*
X302850Y134029D01*
X258134D01*
X256529Y135634D01*
Y148500D01*
X256413Y149085D01*
X256081Y149581D01*
X251581Y154081D01*
X251085Y154413D01*
X250500Y154529D01*
X249043D01*
Y156953D01*
X240029D01*
Y159047D01*
X249043D01*
Y166953D01*
X239957D01*
Y164421D01*
X239915Y164413D01*
X239419Y164081D01*
X237419Y162081D01*
X237087Y161585D01*
X236971Y161000D01*
Y150383D01*
X237087Y149797D01*
X237419Y149301D01*
X239360Y147360D01*
X239568Y147221D01*
X239957Y146953D01*
Y139047D01*
X249043D01*
Y145141D01*
X249505Y145332D01*
X250971Y143867D01*
Y133172D01*
X251087Y132586D01*
X251419Y132090D01*
X253017Y130491D01*
X252826Y130029D01*
X248643D01*
Y132500D01*
X244500D01*
X240357D01*
Y130029D01*
X239151D01*
X238899Y130281D01*
X238403Y130613D01*
X237817Y130729D01*
X235933D01*
X230029Y136634D01*
Y153150D01*
Y159866D01*
X241634Y171471D01*
X250376D01*
X250414Y171414D01*
X251142Y170928D01*
X252000Y170757D01*
X252858Y170928D01*
X253586Y171414D01*
X254072Y172142D01*
X254243Y173000D01*
X254072Y173858D01*
X253613Y174545D01*
X253649Y174782D01*
X253745Y175081D01*
X253792Y175091D01*
X254309Y175436D01*
X254654Y175952D01*
X254671Y176037D01*
X255477D01*
X255642Y175928D01*
X256500Y175757D01*
X257358Y175928D01*
X258086Y176414D01*
X258572Y177142D01*
X258743Y178000D01*
X258572Y178858D01*
X258086Y179586D01*
X257358Y180072D01*
X256500Y180243D01*
X255860Y180116D01*
X254775D01*
Y180439D01*
X254654Y181048D01*
X254309Y181564D01*
X253792Y181909D01*
X253745Y181919D01*
X253649Y182218D01*
X253613Y182455D01*
X254072Y183142D01*
X254243Y184000D01*
X254072Y184858D01*
X253646Y185496D01*
X253686Y185591D01*
X254202Y185936D01*
X254547Y186452D01*
X254648Y186961D01*
X255592D01*
X255642Y186928D01*
X256500Y186757D01*
X257358Y186928D01*
X258086Y187414D01*
X258572Y188142D01*
X258743Y189000D01*
X258572Y189858D01*
X258086Y190586D01*
X257358Y191072D01*
X256500Y191243D01*
X255642Y191072D01*
X255592Y191039D01*
X254648D01*
X254547Y191548D01*
X254202Y192064D01*
X253686Y192409D01*
X253077Y192531D01*
X250459D01*
X249850Y192409D01*
X249333Y192064D01*
X248988Y191548D01*
X248867Y190939D01*
Y187061D01*
X248988Y186452D01*
X249271Y186029D01*
X249161Y185690D01*
X249049Y185529D01*
X246612D01*
X246500Y185690D01*
X246391Y186029D01*
X246673Y186452D01*
X246794Y187061D01*
Y190939D01*
X246673Y191548D01*
X246328Y192064D01*
X245812Y192409D01*
X245203Y192531D01*
X242585D01*
X241976Y192409D01*
X241459Y192064D01*
X241114Y191548D01*
X241067Y191311D01*
X240372Y191172D01*
X240150Y191024D01*
X239950Y190984D01*
X239289Y190542D01*
X238847Y189880D01*
X238691Y189100D01*
X238847Y188320D01*
X239289Y187658D01*
X239950Y187216D01*
X240150Y187176D01*
X240372Y187028D01*
X241025Y186898D01*
X241114Y186452D01*
X241406Y186015D01*
X241331Y185671D01*
X241239Y185481D01*
X240895Y185413D01*
X240399Y185081D01*
X236714Y181396D01*
X236382Y180900D01*
X236266Y180315D01*
Y173257D01*
X235771Y172763D01*
X235309Y172954D01*
Y174822D01*
X235206Y175605D01*
X234904Y176335D01*
X234423Y176962D01*
X234423Y176962D01*
X232080Y179305D01*
X231453Y179786D01*
X230724Y180088D01*
X229940Y180191D01*
X197710D01*
X180092Y197809D01*
X179466Y198290D01*
X178736Y198592D01*
X177953Y198695D01*
X177170Y198592D01*
X176440Y198290D01*
X175813Y197809D01*
X175332Y197182D01*
X175030Y196452D01*
X174927Y195669D01*
X175030Y194886D01*
X175332Y194156D01*
X175813Y193530D01*
X194317Y175026D01*
X194944Y174545D01*
X194981Y174529D01*
X194882Y174029D01*
X163434D01*
X115786Y221677D01*
X116041Y222290D01*
X116187Y223400D01*
X116041Y224510D01*
X115612Y225543D01*
X114931Y226431D01*
X114043Y227112D01*
X113010Y227541D01*
X111900Y227687D01*
X110791Y227541D01*
X109757Y227112D01*
X108869Y226431D01*
X108188Y225543D01*
X107759Y224510D01*
X107613Y223400D01*
X107759Y222290D01*
X108188Y221257D01*
X108869Y220369D01*
X109757Y219688D01*
X110791Y219259D01*
X111900Y219113D01*
X113010Y219259D01*
X113623Y219514D01*
X161719Y171419D01*
X162215Y171087D01*
X162504Y171029D01*
X162455Y170529D01*
X156933D01*
X115786Y211677D01*
X116041Y212291D01*
X116187Y213400D01*
X116041Y214510D01*
X115612Y215543D01*
X114931Y216431D01*
X114043Y217112D01*
X113010Y217541D01*
X111900Y217687D01*
X110791Y217541D01*
X109757Y217112D01*
X108869Y216431D01*
X108188Y215543D01*
X107759Y214510D01*
X107613Y213400D01*
X107759Y212291D01*
X108188Y211257D01*
X108869Y210369D01*
X109757Y209688D01*
X110791Y209259D01*
X111900Y209113D01*
X113010Y209259D01*
X113623Y209514D01*
X155219Y167919D01*
X155715Y167587D01*
X156300Y167471D01*
X199609D01*
X199688Y167353D01*
X199421Y166853D01*
X196900D01*
Y163800D01*
X200543D01*
Y166204D01*
X201043Y166411D01*
X204971Y162484D01*
Y148409D01*
X204509Y148217D01*
X200943Y151783D01*
Y157253D01*
X191857D01*
Y149347D01*
X198508D01*
X200141Y147715D01*
X199949Y147253D01*
X191857D01*
Y141783D01*
X183182Y133108D01*
X182809Y132550D01*
X182678Y131891D01*
Y124296D01*
X182509Y124226D01*
X181726Y123625D01*
X181124Y122841D01*
X180746Y121929D01*
X180618Y120950D01*
Y119450D01*
X180746Y118471D01*
X181124Y117559D01*
X181726Y116776D01*
X182509Y116174D01*
X183421Y115796D01*
X184400Y115668D01*
X185379Y115796D01*
X186291Y116174D01*
X187074Y116776D01*
X187676Y117559D01*
X188054Y118471D01*
X188182Y119450D01*
Y120950D01*
X188054Y121929D01*
X187676Y122841D01*
X187074Y123625D01*
X186291Y124226D01*
X186122Y124296D01*
Y131177D01*
X191395Y136450D01*
X191857Y136259D01*
Y129347D01*
X200159D01*
X200350Y128885D01*
X198282Y126818D01*
X197909Y126259D01*
X197778Y125600D01*
Y123529D01*
X197278Y123359D01*
X197074Y123625D01*
X196291Y124226D01*
X195379Y124603D01*
X194400Y124732D01*
X193421Y124603D01*
X192509Y124226D01*
X191726Y123625D01*
X191124Y122841D01*
X190746Y121929D01*
X190618Y120950D01*
Y119450D01*
X190746Y118471D01*
X191124Y117559D01*
X191726Y116776D01*
X192509Y116174D01*
X193421Y115796D01*
X194400Y115668D01*
X195379Y115796D01*
X196291Y116174D01*
X197074Y116776D01*
X197278Y117041D01*
X197778Y116871D01*
Y113529D01*
X197278Y113359D01*
X197074Y113625D01*
X196291Y114226D01*
X195379Y114603D01*
X194400Y114732D01*
X193421Y114603D01*
X192509Y114226D01*
X191726Y113625D01*
X191124Y112841D01*
X190746Y111929D01*
X190618Y110950D01*
Y109450D01*
X190746Y108471D01*
X191124Y107559D01*
X191726Y106775D01*
X192509Y106174D01*
X193421Y105797D01*
X194400Y105668D01*
X195379Y105797D01*
X196291Y106174D01*
X197074Y106775D01*
X197278Y107041D01*
X197778Y106871D01*
Y106307D01*
X197909Y105648D01*
X198282Y105089D01*
X199590Y103782D01*
X200148Y103409D01*
X200807Y103278D01*
X298193D01*
X298852Y103409D01*
X299411Y103782D01*
X300218Y104589D01*
X300591Y105148D01*
X300709Y105741D01*
X300892Y105933D01*
X301115Y106100D01*
X301222Y106100D01*
X303900D01*
Y110200D01*
Y114300D01*
X301172D01*
X301050Y114300D01*
X300626Y114483D01*
X300591Y114659D01*
X300218Y115218D01*
X297734Y117701D01*
X298054Y118471D01*
X298182Y119450D01*
Y120950D01*
X298054Y121929D01*
X297676Y122841D01*
X297075Y123625D01*
X296291Y124226D01*
X295379Y124603D01*
X294400Y124732D01*
X293421Y124603D01*
X292509Y124226D01*
X291725Y123625D01*
X291529Y123369D01*
X291029Y123539D01*
Y124000D01*
X290913Y124585D01*
X290581Y125081D01*
X287154Y128509D01*
X287346Y128971D01*
X294866D01*
X301087Y122750D01*
X300746Y121929D01*
X300618Y120950D01*
Y119450D01*
X300746Y118471D01*
X301124Y117559D01*
X301726Y116776D01*
X302509Y116174D01*
X303421Y115796D01*
X304400Y115668D01*
X305379Y115796D01*
X306291Y116174D01*
X307074Y116776D01*
X307676Y117559D01*
X308053Y118471D01*
X308182Y119450D01*
Y120950D01*
X308053Y121929D01*
X307676Y122841D01*
X307074Y123625D01*
X306291Y124226D01*
X305379Y124603D01*
X304400Y124732D01*
X303543Y124620D01*
X297654Y130509D01*
X297846Y130971D01*
X302217D01*
X310896Y122291D01*
X310747Y121929D01*
X310618Y120950D01*
Y119450D01*
X310747Y118471D01*
X311124Y117559D01*
X311725Y116776D01*
X312509Y116174D01*
X312882Y116020D01*
X312783Y115520D01*
X312000D01*
X311610Y115442D01*
X311279Y115221D01*
X309779Y113721D01*
X309558Y113390D01*
X309480Y113000D01*
Y107000D01*
X309558Y106610D01*
X309779Y106279D01*
X311779Y104279D01*
X312110Y104058D01*
X312500Y103980D01*
X345000D01*
X345390Y104058D01*
X345721Y104279D01*
X351721Y110279D01*
X351942Y110610D01*
X352020Y111000D01*
Y138457D01*
X355275Y141712D01*
X355304Y141711D01*
X355774Y141557D01*
Y114967D01*
X355816Y114759D01*
X355681Y113046D01*
X355224Y111141D01*
X354474Y109330D01*
X353450Y107659D01*
X352177Y106169D01*
X350687Y104897D01*
X349016Y103873D01*
X347206Y103123D01*
X345300Y102665D01*
X343530Y102526D01*
X343530Y102526D01*
X343032Y102525D01*
X115512D01*
X115014Y102525D01*
X115014Y102525D01*
X115012Y102525D01*
X114522Y102549D01*
X113046Y102665D01*
X111141Y103123D01*
X109330Y103873D01*
X107659Y104897D01*
X106169Y106169D01*
X104897Y107659D01*
X103873Y109330D01*
X103123Y111141D01*
X102665Y113046D01*
X102526Y114816D01*
X102526Y114816D01*
X102525Y115314D01*
Y307986D01*
X102525Y307987D01*
X102525Y307987D01*
Y308000D01*
X102516Y308049D01*
X102664Y309940D01*
X103119Y311832D01*
X103863Y313630D01*
X104880Y315289D01*
X106144Y316769D01*
X107624Y318033D01*
X109283Y319050D01*
X111081Y319795D01*
X112973Y320249D01*
X114731Y320387D01*
X114731Y320387D01*
Y320387D01*
X114913Y320375D01*
X114913Y320374D01*
X115223Y320374D01*
X343346D01*
X343445Y320394D01*
X345300Y320248D01*
D02*
G37*
G36*
X229258Y173569D02*
Y172062D01*
X229361Y171279D01*
X229663Y170549D01*
X229714Y170482D01*
X229493Y170033D01*
X216142D01*
X215557Y169917D01*
X215060Y169585D01*
X212698Y167223D01*
X212367Y166727D01*
X212250Y166142D01*
Y144488D01*
X212367Y143903D01*
X212698Y143407D01*
X214186Y141919D01*
X214683Y141587D01*
X215268Y141471D01*
X216457D01*
Y139047D01*
X224971D01*
Y136953D01*
X216457D01*
Y129047D01*
X225543D01*
Y132641D01*
X226005Y132832D01*
X231646Y127191D01*
X231454Y126729D01*
X213434D01*
X211029Y129133D01*
Y164000D01*
X210913Y164585D01*
X210581Y165081D01*
X202081Y173581D01*
X201995Y173640D01*
X202146Y174139D01*
X228687D01*
X229258Y173569D01*
D02*
G37*
G36*
X351000Y111000D02*
X345000Y105000D01*
X312500D01*
X310500Y107000D01*
Y113000D01*
X312000Y114500D01*
X329500D01*
X331000Y116000D01*
Y136500D01*
Y138500D01*
X332000Y139500D01*
X351000D01*
Y111000D01*
D02*
G37*
%LPC*%
G36*
X287543Y316416D02*
X286684Y316246D01*
X285956Y315759D01*
X285470Y315032D01*
X285299Y314173D01*
X285470Y313315D01*
X285956Y312587D01*
X286684Y312101D01*
X287543Y311930D01*
X288401Y312101D01*
X289129Y312587D01*
X289615Y313315D01*
X289786Y314173D01*
X289615Y315032D01*
X289129Y315759D01*
X288401Y316246D01*
X287543Y316416D01*
D02*
G37*
G36*
X261650Y317250D02*
X253150D01*
Y308750D01*
X261650D01*
Y317250D01*
D02*
G37*
G36*
X282872Y317242D02*
X274372D01*
Y308742D01*
X282872D01*
Y317242D01*
D02*
G37*
G36*
X247400Y317287D02*
X246290Y317141D01*
X245257Y316712D01*
X244369Y316031D01*
X243688Y315143D01*
X243259Y314109D01*
X243113Y313000D01*
X243259Y311891D01*
X243688Y310857D01*
X244369Y309969D01*
X245257Y309288D01*
X246290Y308859D01*
X247400Y308713D01*
X248510Y308859D01*
X249543Y309288D01*
X250431Y309969D01*
X251112Y310857D01*
X251541Y311891D01*
X251687Y313000D01*
X251541Y314109D01*
X251112Y315143D01*
X250431Y316031D01*
X249543Y316712D01*
X248510Y317141D01*
X247400Y317287D01*
D02*
G37*
G36*
X268622Y317279D02*
X267513Y317133D01*
X266479Y316705D01*
X265591Y316023D01*
X264910Y315136D01*
X264481Y314102D01*
X264335Y312992D01*
X264481Y311883D01*
X264910Y310849D01*
X265591Y309961D01*
X266479Y309280D01*
X267513Y308852D01*
X268622Y308705D01*
X269731Y308852D01*
X270765Y309280D01*
X271653Y309961D01*
X272334Y310849D01*
X272763Y311883D01*
X272909Y312992D01*
X272763Y314102D01*
X272334Y315136D01*
X271653Y316023D01*
X270765Y316705D01*
X269731Y317133D01*
X268622Y317279D01*
D02*
G37*
G36*
X343347Y318789D02*
X341645Y318655D01*
X339986Y318257D01*
X338409Y317604D01*
X336954Y316712D01*
X335656Y315604D01*
X334547Y314306D01*
X333656Y312851D01*
X333003Y311274D01*
X332604Y309615D01*
X332470Y307913D01*
X332604Y306212D01*
X333003Y304553D01*
X333656Y302976D01*
X334547Y301521D01*
X335656Y300223D01*
X336954Y299114D01*
X338409Y298223D01*
X339986Y297570D01*
X341645Y297171D01*
X343347Y297037D01*
X345048Y297171D01*
X346707Y297570D01*
X348284Y298223D01*
X349739Y299114D01*
X351037Y300223D01*
X352145Y301521D01*
X353037Y302976D01*
X353690Y304553D01*
X354089Y306212D01*
X354222Y307913D01*
X354089Y309615D01*
X353690Y311274D01*
X353037Y312851D01*
X352145Y314306D01*
X351037Y315604D01*
X349739Y316712D01*
X348284Y317604D01*
X346707Y318257D01*
X345048Y318655D01*
X343347Y318789D01*
D02*
G37*
G36*
X115000D02*
X113299Y318655D01*
X111639Y318257D01*
X110062Y317604D01*
X108607Y316712D01*
X107309Y315604D01*
X106201Y314306D01*
X105309Y312851D01*
X104656Y311274D01*
X104258Y309615D01*
X104124Y307913D01*
X104258Y306212D01*
X104656Y304553D01*
X105309Y302976D01*
X106201Y301521D01*
X107309Y300223D01*
X108607Y299114D01*
X110062Y298223D01*
X111639Y297570D01*
X113299Y297171D01*
X115000Y297037D01*
X116701Y297171D01*
X118361Y297570D01*
X119938Y298223D01*
X121393Y299114D01*
X122690Y300223D01*
X123799Y301521D01*
X124691Y302976D01*
X125344Y304553D01*
X125742Y306212D01*
X125876Y307913D01*
X125742Y309615D01*
X125344Y311274D01*
X124691Y312851D01*
X123799Y314306D01*
X122690Y315604D01*
X121393Y316712D01*
X119938Y317604D01*
X118361Y318257D01*
X116701Y318655D01*
X115000Y318789D01*
D02*
G37*
G36*
X229683Y301126D02*
X228233Y300984D01*
X226839Y300560D01*
X225554Y299874D01*
X224427Y298949D01*
X223503Y297823D01*
X222816Y296538D01*
X222393Y295143D01*
X222250Y293693D01*
X222393Y292243D01*
X222816Y290848D01*
X223503Y289563D01*
X224427Y288437D01*
X225554Y287512D01*
X226839Y286825D01*
X228233Y286402D01*
X229683Y286260D01*
X231134Y286402D01*
X232528Y286825D01*
X233813Y287512D01*
X234940Y288437D01*
X235864Y289563D01*
X236551Y290848D01*
X236974Y292243D01*
X237117Y293693D01*
X236974Y295143D01*
X236551Y296538D01*
X235864Y297823D01*
X234940Y298949D01*
X233813Y299874D01*
X232528Y300560D01*
X231134Y300984D01*
X229683Y301126D01*
D02*
G37*
G36*
X189683D02*
X188233Y300984D01*
X186839Y300560D01*
X185554Y299874D01*
X184427Y298949D01*
X183503Y297823D01*
X182816Y296538D01*
X182393Y295143D01*
X182250Y293693D01*
X182393Y292243D01*
X182816Y290848D01*
X183503Y289563D01*
X184427Y288437D01*
X185554Y287512D01*
X186839Y286825D01*
X188233Y286402D01*
X189683Y286260D01*
X191134Y286402D01*
X192528Y286825D01*
X193813Y287512D01*
X194940Y288437D01*
X195864Y289563D01*
X196551Y290848D01*
X196974Y292243D01*
X197117Y293693D01*
X196974Y295143D01*
X196551Y296538D01*
X195864Y297823D01*
X194940Y298949D01*
X193813Y299874D01*
X192528Y300560D01*
X191134Y300984D01*
X189683Y301126D01*
D02*
G37*
G36*
X172083D02*
X170633Y300984D01*
X169239Y300560D01*
X167954Y299874D01*
X166827Y298949D01*
X165903Y297823D01*
X165216Y296538D01*
X164793Y295143D01*
X164650Y293693D01*
X164793Y292243D01*
X165216Y290848D01*
X165903Y289563D01*
X166827Y288437D01*
X167954Y287512D01*
X169239Y286825D01*
X170633Y286402D01*
X172083Y286260D01*
X173534Y286402D01*
X174928Y286825D01*
X176213Y287512D01*
X177340Y288437D01*
X178264Y289563D01*
X178951Y290848D01*
X179374Y292243D01*
X179517Y293693D01*
X179374Y295143D01*
X178951Y296538D01*
X178264Y297823D01*
X177340Y298949D01*
X176213Y299874D01*
X174928Y300560D01*
X173534Y300984D01*
X172083Y301126D01*
D02*
G37*
G36*
X132083D02*
X130633Y300984D01*
X129239Y300560D01*
X127954Y299874D01*
X126827Y298949D01*
X125903Y297823D01*
X125216Y296538D01*
X124793Y295143D01*
X124650Y293693D01*
X124793Y292243D01*
X125216Y290848D01*
X125903Y289563D01*
X126827Y288437D01*
X127954Y287512D01*
X129239Y286825D01*
X130633Y286402D01*
X132083Y286260D01*
X133534Y286402D01*
X134928Y286825D01*
X136213Y287512D01*
X137340Y288437D01*
X138264Y289563D01*
X138951Y290848D01*
X139374Y292243D01*
X139517Y293693D01*
X139374Y295143D01*
X138951Y296538D01*
X138264Y297823D01*
X137340Y298949D01*
X136213Y299874D01*
X134928Y300560D01*
X133534Y300984D01*
X132083Y301126D01*
D02*
G37*
G36*
X322200Y287843D02*
X310200D01*
Y275843D01*
X322200D01*
Y287843D01*
D02*
G37*
G36*
X217203Y272727D02*
X216159Y272590D01*
X215186Y272187D01*
X214350Y271546D01*
X213709Y270710D01*
X213306Y269737D01*
X213169Y268693D01*
X213306Y267649D01*
X213570Y267012D01*
X213555Y266979D01*
X213193Y266616D01*
X212785Y266697D01*
X211362D01*
X210898Y267161D01*
X211100Y267649D01*
X211238Y268693D01*
X211100Y269737D01*
X210697Y270710D01*
X210056Y271546D01*
X209220Y272187D01*
X208247Y272590D01*
X207203Y272727D01*
X206159Y272590D01*
X205186Y272187D01*
X204350Y271546D01*
X203709Y270710D01*
X203306Y269737D01*
X203169Y268693D01*
X203306Y267649D01*
X203508Y267161D01*
X201377Y265029D01*
X199821D01*
X199651Y265529D01*
X200056Y265840D01*
X200697Y266676D01*
X201100Y267649D01*
X201238Y268693D01*
X201100Y269737D01*
X200697Y270710D01*
X200056Y271546D01*
X199220Y272187D01*
X198247Y272590D01*
X197203Y272727D01*
X196159Y272590D01*
X195186Y272187D01*
X194350Y271546D01*
X193709Y270710D01*
X193306Y269737D01*
X193169Y268693D01*
X193306Y267649D01*
X193709Y266676D01*
X194350Y265840D01*
X194755Y265529D01*
X194586Y265029D01*
X162221D01*
X162051Y265529D01*
X162456Y265840D01*
X163097Y266676D01*
X163500Y267649D01*
X163638Y268693D01*
X163500Y269737D01*
X163097Y270710D01*
X162456Y271546D01*
X161620Y272187D01*
X160647Y272590D01*
X159603Y272727D01*
X158559Y272590D01*
X157586Y272187D01*
X156750Y271546D01*
X156109Y270710D01*
X155706Y269737D01*
X155569Y268693D01*
X155706Y267649D01*
X156109Y266676D01*
X156750Y265840D01*
X157155Y265529D01*
X156985Y265029D01*
X155430D01*
X153298Y267161D01*
X153500Y267649D01*
X153638Y268693D01*
X153500Y269737D01*
X153097Y270710D01*
X152456Y271546D01*
X151620Y272187D01*
X150647Y272590D01*
X149603Y272727D01*
X148559Y272590D01*
X147586Y272187D01*
X146750Y271546D01*
X146109Y270710D01*
X145706Y269737D01*
X145569Y268693D01*
X145706Y267649D01*
X146109Y266676D01*
X146750Y265840D01*
X147586Y265199D01*
X148559Y264796D01*
X149603Y264658D01*
X150647Y264796D01*
X151135Y264998D01*
X153230Y262903D01*
X153132Y262413D01*
X152586Y262187D01*
X151750Y261546D01*
X151109Y260710D01*
X150706Y259737D01*
X150569Y258693D01*
X150706Y257649D01*
X151109Y256676D01*
X151750Y255840D01*
X152586Y255199D01*
X153559Y254796D01*
X154603Y254658D01*
X155647Y254796D01*
X156620Y255199D01*
X157456Y255840D01*
X158097Y256676D01*
X158500Y257649D01*
X158638Y258693D01*
X158500Y259737D01*
X158097Y260710D01*
X157514Y261471D01*
X157644Y261971D01*
X161562D01*
X161693Y261471D01*
X161109Y260710D01*
X160706Y259737D01*
X160569Y258693D01*
X160706Y257649D01*
X161109Y256676D01*
X161750Y255840D01*
X162586Y255199D01*
X163559Y254796D01*
X164603Y254658D01*
X165647Y254796D01*
X166620Y255199D01*
X167456Y255840D01*
X168097Y256676D01*
X168500Y257649D01*
X168638Y258693D01*
X168500Y259737D01*
X168097Y260710D01*
X167514Y261471D01*
X167644Y261971D01*
X199740D01*
X199909Y261471D01*
X199636Y261261D01*
X199059Y260508D01*
X198696Y259633D01*
X198638Y259193D01*
X202203D01*
X205768D01*
X205711Y259633D01*
X205348Y260508D01*
X204771Y261261D01*
X204019Y261838D01*
X203452Y262072D01*
X203335Y262662D01*
X205671Y264998D01*
X206159Y264796D01*
X207203Y264658D01*
X208247Y264796D01*
X208735Y264998D01*
X209647Y264086D01*
X210143Y263754D01*
X210729Y263638D01*
X212152D01*
X212643Y263147D01*
X212422Y262699D01*
X212203Y262727D01*
X211159Y262590D01*
X210186Y262187D01*
X209350Y261546D01*
X208709Y260710D01*
X208306Y259737D01*
X208169Y258693D01*
X208306Y257649D01*
X208709Y256676D01*
X209350Y255840D01*
X210186Y255199D01*
X211159Y254796D01*
X212203Y254658D01*
X213063Y254772D01*
X213431Y254431D01*
Y249452D01*
X203249Y239270D01*
X202918Y238774D01*
X202801Y238189D01*
Y195669D01*
X202918Y195084D01*
X203249Y194588D01*
X204857Y192980D01*
X204843Y192913D01*
X205014Y192055D01*
X205501Y191327D01*
X206228Y190841D01*
X207087Y190670D01*
X207945Y190841D01*
X208673Y191327D01*
X209159Y192055D01*
X209330Y192913D01*
X209159Y193772D01*
X208673Y194500D01*
X208256Y194778D01*
Y195379D01*
X208673Y195658D01*
X209159Y196386D01*
X209330Y197244D01*
X209159Y198102D01*
X208673Y198830D01*
X208616Y198868D01*
Y237483D01*
X218042Y246909D01*
X218374Y247405D01*
X218490Y247990D01*
Y256140D01*
X218990Y256310D01*
X219350Y255840D01*
X220186Y255199D01*
X221159Y254796D01*
X222203Y254658D01*
X223247Y254796D01*
X224220Y255199D01*
X225056Y255840D01*
X225697Y256676D01*
X226100Y257649D01*
X226238Y258693D01*
X226100Y259737D01*
X225697Y260710D01*
X225056Y261546D01*
X224220Y262187D01*
X223247Y262590D01*
X222203Y262727D01*
X221159Y262590D01*
X220186Y262187D01*
X219350Y261546D01*
X218973Y261055D01*
X218450Y261194D01*
X218374Y261577D01*
X218042Y262074D01*
X215650Y264465D01*
X215933Y264889D01*
X216159Y264796D01*
X217203Y264658D01*
X218247Y264796D01*
X219220Y265199D01*
X220056Y265840D01*
X220697Y266676D01*
X221100Y267649D01*
X221238Y268693D01*
X221100Y269737D01*
X220697Y270710D01*
X220056Y271546D01*
X219220Y272187D01*
X218247Y272590D01*
X217203Y272727D01*
D02*
G37*
G36*
X139603D02*
X138559Y272590D01*
X137586Y272187D01*
X136750Y271546D01*
X136109Y270710D01*
X135706Y269737D01*
X135569Y268693D01*
X135706Y267649D01*
X136109Y266676D01*
X136750Y265840D01*
X137586Y265199D01*
X138559Y264796D01*
X139603Y264658D01*
X140647Y264796D01*
X141620Y265199D01*
X142456Y265840D01*
X143097Y266676D01*
X143500Y267649D01*
X143638Y268693D01*
X143500Y269737D01*
X143097Y270710D01*
X142456Y271546D01*
X141620Y272187D01*
X140647Y272590D01*
X139603Y272727D01*
D02*
G37*
G36*
X321800Y267643D02*
X316700D01*
Y262543D01*
X321800D01*
Y267643D01*
D02*
G37*
G36*
X315700D02*
X310600D01*
Y262543D01*
X315700D01*
Y267643D01*
D02*
G37*
G36*
X145103Y262258D02*
Y259193D01*
X148168D01*
X148110Y259633D01*
X147748Y260508D01*
X147171Y261261D01*
X146419Y261838D01*
X145543Y262200D01*
X145103Y262258D01*
D02*
G37*
G36*
X144103D02*
X143663Y262200D01*
X142788Y261838D01*
X142036Y261261D01*
X141459Y260508D01*
X141096Y259633D01*
X141038Y259193D01*
X144103D01*
Y262258D01*
D02*
G37*
G36*
X321800Y261543D02*
X316700D01*
Y256443D01*
X321800D01*
Y261543D01*
D02*
G37*
G36*
X315700D02*
X310600D01*
Y256443D01*
X315700D01*
Y261543D01*
D02*
G37*
G36*
X201703Y258193D02*
X198638D01*
X198696Y257753D01*
X199059Y256877D01*
X199636Y256125D01*
X200388Y255548D01*
X201263Y255186D01*
X201703Y255128D01*
Y258193D01*
D02*
G37*
G36*
X144103D02*
X141038D01*
X141096Y257753D01*
X141459Y256877D01*
X142036Y256125D01*
X142788Y255548D01*
X143663Y255186D01*
X144103Y255128D01*
Y258193D01*
D02*
G37*
G36*
X205768D02*
X202703D01*
Y255128D01*
X203143Y255186D01*
X204019Y255548D01*
X204771Y256125D01*
X205348Y256877D01*
X205711Y257753D01*
X205768Y258193D01*
D02*
G37*
G36*
X148168D02*
X145103D01*
Y255128D01*
X145543Y255186D01*
X146419Y255548D01*
X147171Y256125D01*
X147748Y256877D01*
X148110Y257753D01*
X148168Y258193D01*
D02*
G37*
G36*
X287324Y256202D02*
X282500D01*
Y250000D01*
X287324D01*
Y256202D01*
D02*
G37*
G36*
X281500D02*
X276676D01*
Y250000D01*
X281500D01*
Y256202D01*
D02*
G37*
G36*
X287324Y249000D02*
X282500D01*
Y242798D01*
X287324D01*
Y249000D01*
D02*
G37*
G36*
X281500D02*
X276676D01*
Y242798D01*
X281500D01*
Y249000D01*
D02*
G37*
G36*
X116150Y237650D02*
X107650D01*
Y229150D01*
X116150D01*
Y237650D01*
D02*
G37*
G36*
X228346Y224290D02*
X227488Y224120D01*
X226760Y223633D01*
X226274Y222906D01*
X226103Y222047D01*
X226274Y221189D01*
X226760Y220461D01*
X227488Y219975D01*
X228346Y219804D01*
X229205Y219975D01*
X229933Y220461D01*
X230419Y221189D01*
X230590Y222047D01*
X230419Y222906D01*
X229933Y223633D01*
X229205Y224120D01*
X228346Y224290D01*
D02*
G37*
G36*
X230223Y216718D02*
X229364Y216547D01*
X228637Y216061D01*
X228151Y215333D01*
X227980Y214475D01*
X228151Y213616D01*
X228637Y212889D01*
X228782Y212792D01*
Y209438D01*
X228328Y208758D01*
X228157Y207900D01*
X228328Y207042D01*
X228814Y206314D01*
X229542Y205828D01*
X230400Y205657D01*
X231258Y205828D01*
X231986Y206314D01*
X232472Y207042D01*
X232643Y207900D01*
X232472Y208758D01*
X231986Y209486D01*
X231841Y209583D01*
Y212936D01*
X232295Y213616D01*
X232466Y214475D01*
X232295Y215333D01*
X231809Y216061D01*
X231081Y216547D01*
X230223Y216718D01*
D02*
G37*
G36*
X224365Y219610D02*
X223507Y219440D01*
X222779Y218953D01*
X222293Y218226D01*
X222122Y217367D01*
X222293Y216509D01*
X222779Y215781D01*
X223274Y215451D01*
Y209498D01*
X223217Y209460D01*
X222731Y208732D01*
X222560Y207874D01*
X222731Y207016D01*
X223217Y206288D01*
X223945Y205802D01*
X224803Y205631D01*
X225661Y205802D01*
X226389Y206288D01*
X226875Y207016D01*
X227046Y207874D01*
X226875Y208732D01*
X226389Y209460D01*
X226332Y209498D01*
Y216352D01*
X226437Y216509D01*
X226608Y217367D01*
X226437Y218226D01*
X225951Y218953D01*
X225223Y219440D01*
X224365Y219610D01*
D02*
G37*
G36*
X228346Y191219D02*
X227488Y191049D01*
X226760Y190562D01*
X226274Y189835D01*
X226103Y188976D01*
X226274Y188118D01*
X226760Y187390D01*
X227488Y186904D01*
X228346Y186733D01*
X229205Y186904D01*
X229933Y187390D01*
X230419Y188118D01*
X230590Y188976D01*
X230419Y189835D01*
X229933Y190562D01*
X229205Y191049D01*
X228346Y191219D01*
D02*
G37*
G36*
X111900Y187687D02*
X110791Y187541D01*
X109757Y187112D01*
X108869Y186431D01*
X108188Y185543D01*
X107759Y184510D01*
X107613Y183400D01*
X107759Y182290D01*
X108188Y181257D01*
X108869Y180369D01*
X109757Y179688D01*
X110791Y179259D01*
X111900Y179113D01*
X113010Y179259D01*
X114043Y179688D01*
X114931Y180369D01*
X115612Y181257D01*
X116041Y182290D01*
X116187Y183400D01*
X116041Y184510D01*
X115612Y185543D01*
X114931Y186431D01*
X114043Y187112D01*
X113010Y187541D01*
X111900Y187687D01*
D02*
G37*
G36*
X175943Y166853D02*
X172300D01*
Y163800D01*
X175943D01*
Y166853D01*
D02*
G37*
G36*
X195900D02*
X192257D01*
Y163800D01*
X195900D01*
Y166853D01*
D02*
G37*
G36*
X171300D02*
X167657D01*
Y163800D01*
X171300D01*
Y166853D01*
D02*
G37*
G36*
X285433Y162873D02*
X284575Y162702D01*
X283858Y162224D01*
X283142Y162702D01*
X282283Y162873D01*
X281425Y162702D01*
X280709Y162224D01*
X279992Y162702D01*
X279134Y162873D01*
X278275Y162702D01*
X277559Y162224D01*
X276843Y162702D01*
X275984Y162873D01*
X275126Y162702D01*
X274398Y162216D01*
X273912Y161488D01*
X273867Y161264D01*
X273358D01*
X273314Y161481D01*
X272832Y162202D01*
X272111Y162685D01*
X271260Y162854D01*
X270409Y162685D01*
X269687Y162202D01*
X269541Y161984D01*
X269041D01*
X268895Y162202D01*
X268174Y162685D01*
X267323Y162854D01*
X266472Y162685D01*
X265750Y162202D01*
X265604Y161984D01*
X265104D01*
X264958Y162202D01*
X264237Y162685D01*
X263386Y162854D01*
X262535Y162685D01*
X261813Y162202D01*
X261667Y161984D01*
X261167D01*
X261021Y162202D01*
X260300Y162685D01*
X259449Y162854D01*
X258598Y162685D01*
X257876Y162202D01*
X257394Y161481D01*
X257225Y160630D01*
X257394Y159779D01*
X257876Y159057D01*
X258598Y158575D01*
X259449Y158406D01*
X260300Y158575D01*
X261021Y159057D01*
X261167Y159276D01*
X261667D01*
X261813Y159057D01*
X262535Y158575D01*
X263386Y158406D01*
X264237Y158575D01*
X264958Y159057D01*
X265104Y159276D01*
X265604D01*
X265750Y159057D01*
X266472Y158575D01*
X267323Y158406D01*
X268174Y158575D01*
X268895Y159057D01*
X269041Y159276D01*
X269541D01*
X269687Y159057D01*
X270409Y158575D01*
X271260Y158406D01*
X272111Y158575D01*
X272832Y159057D01*
X273314Y159779D01*
X273358Y159996D01*
X273867D01*
X273912Y159772D01*
X274398Y159044D01*
X275126Y158558D01*
X275984Y158387D01*
X276843Y158558D01*
X277559Y159036D01*
X278275Y158558D01*
X279134Y158387D01*
X279992Y158558D01*
X280709Y159036D01*
X281425Y158558D01*
X282283Y158387D01*
X283142Y158558D01*
X283858Y159036D01*
X284575Y158558D01*
X285433Y158387D01*
X286292Y158558D01*
X287019Y159044D01*
X287505Y159772D01*
X287676Y160630D01*
X287505Y161488D01*
X287019Y162216D01*
X286292Y162702D01*
X285433Y162873D01*
D02*
G37*
G36*
X200543Y162800D02*
X196900D01*
Y159747D01*
X200543D01*
Y162800D01*
D02*
G37*
G36*
X195900D02*
X192257D01*
Y159747D01*
X195900D01*
Y162800D01*
D02*
G37*
G36*
X175943D02*
X172300D01*
Y159747D01*
X175943D01*
Y162800D01*
D02*
G37*
G36*
X171300D02*
X167657D01*
Y159747D01*
X171300D01*
Y162800D01*
D02*
G37*
G36*
X271260Y157342D02*
X270409Y157173D01*
X269687Y156691D01*
X269541Y156472D01*
X269041D01*
X268895Y156691D01*
X268174Y157173D01*
X267323Y157342D01*
X266472Y157173D01*
X265750Y156691D01*
X265604Y156472D01*
X265104D01*
X264958Y156691D01*
X264237Y157173D01*
X263386Y157342D01*
X262535Y157173D01*
X261813Y156691D01*
X261667Y156472D01*
X261167D01*
X261021Y156691D01*
X260300Y157173D01*
X259449Y157342D01*
X258598Y157173D01*
X257876Y156691D01*
X257394Y155969D01*
X257225Y155118D01*
X257394Y154267D01*
X257876Y153546D01*
X258598Y153064D01*
X259449Y152894D01*
X260300Y153064D01*
X261021Y153546D01*
X261167Y153764D01*
X261667D01*
X261813Y153546D01*
X262535Y153064D01*
X263386Y152894D01*
X264237Y153064D01*
X264958Y153546D01*
X265104Y153764D01*
X265604D01*
X265750Y153546D01*
X266472Y153064D01*
X267323Y152894D01*
X268174Y153064D01*
X268895Y153546D01*
X269041Y153764D01*
X269541D01*
X269687Y153546D01*
X270409Y153064D01*
X271260Y152894D01*
X272111Y153064D01*
X272832Y153546D01*
X273314Y154267D01*
X273484Y155118D01*
X273314Y155969D01*
X272832Y156691D01*
X272111Y157173D01*
X271260Y157342D01*
D02*
G37*
G36*
X176343Y157253D02*
X167257D01*
Y149347D01*
X176343D01*
Y157253D01*
D02*
G37*
G36*
X112400Y147217D02*
Y143900D01*
X115717D01*
X115651Y144405D01*
X115263Y145342D01*
X114646Y146146D01*
X113842Y146763D01*
X112905Y147151D01*
X112400Y147217D01*
D02*
G37*
G36*
X111400D02*
X110895Y147151D01*
X109958Y146763D01*
X109154Y146146D01*
X108537Y145342D01*
X108149Y144405D01*
X108083Y143900D01*
X111400D01*
Y147217D01*
D02*
G37*
G36*
X305118Y173892D02*
X304727Y173840D01*
X304335Y173789D01*
X303605Y173487D01*
X302978Y173006D01*
X275912Y145939D01*
X263386D01*
X262603Y145836D01*
X261873Y145534D01*
X261246Y145053D01*
X260765Y144426D01*
X260463Y143697D01*
X260360Y142913D01*
X260463Y142130D01*
X260765Y141400D01*
X261246Y140774D01*
X261873Y140293D01*
X262603Y139991D01*
X263386Y139887D01*
X277165D01*
X277948Y139991D01*
X278678Y140293D01*
X279305Y140774D01*
X306371Y167840D01*
X313386D01*
X314169Y167943D01*
X314899Y168246D01*
X315526Y168727D01*
X316006Y169353D01*
X316309Y170083D01*
X316412Y170866D01*
X316309Y171649D01*
X316006Y172379D01*
X315526Y173006D01*
X314899Y173487D01*
X314169Y173789D01*
X313386Y173892D01*
X305118D01*
X305118Y173892D01*
D02*
G37*
G36*
X115717Y142900D02*
X112400D01*
Y139583D01*
X112905Y139649D01*
X113842Y140037D01*
X114646Y140654D01*
X115263Y141458D01*
X115651Y142395D01*
X115717Y142900D01*
D02*
G37*
G36*
X111400D02*
X108083D01*
X108149Y142395D01*
X108537Y141458D01*
X109154Y140654D01*
X109958Y140037D01*
X110895Y139649D01*
X111400Y139583D01*
Y142900D01*
D02*
G37*
G36*
X176343Y147253D02*
X167257D01*
Y139347D01*
X176343D01*
Y147253D01*
D02*
G37*
G36*
X329250Y137850D02*
X325900D01*
Y134500D01*
X329250D01*
Y137850D01*
D02*
G37*
G36*
X324900D02*
X321550D01*
Y134500D01*
X324900D01*
Y137850D01*
D02*
G37*
G36*
X111900Y207687D02*
X110791Y207541D01*
X109757Y207112D01*
X108869Y206431D01*
X108188Y205543D01*
X107759Y204509D01*
X107613Y203400D01*
X107759Y202291D01*
X108188Y201257D01*
X108869Y200369D01*
X109757Y199688D01*
X110791Y199259D01*
X111900Y199113D01*
X113010Y199259D01*
X113623Y199514D01*
X140471Y172667D01*
Y133706D01*
X140009Y133515D01*
X139529Y133994D01*
Y167300D01*
X139413Y167885D01*
X139081Y168381D01*
X115786Y191677D01*
X116041Y192290D01*
X116187Y193400D01*
X116041Y194509D01*
X115612Y195543D01*
X114931Y196431D01*
X114043Y197112D01*
X113010Y197541D01*
X111900Y197687D01*
X110791Y197541D01*
X109757Y197112D01*
X108869Y196431D01*
X108188Y195543D01*
X107759Y194509D01*
X107613Y193400D01*
X107759Y192290D01*
X108188Y191257D01*
X108869Y190369D01*
X109757Y189688D01*
X110791Y189259D01*
X111900Y189113D01*
X113010Y189259D01*
X113623Y189514D01*
X136471Y166666D01*
Y133360D01*
X136587Y132775D01*
X136919Y132279D01*
X144012Y125186D01*
X143833Y124658D01*
X143421Y124603D01*
X142509Y124226D01*
X142260Y124035D01*
X134529Y131766D01*
Y152300D01*
X134413Y152885D01*
X134081Y153381D01*
X115786Y171677D01*
X116041Y172291D01*
X116187Y173400D01*
X116041Y174510D01*
X115612Y175543D01*
X114931Y176431D01*
X114043Y177112D01*
X113010Y177541D01*
X111900Y177687D01*
X110791Y177541D01*
X109757Y177112D01*
X108869Y176431D01*
X108188Y175543D01*
X107759Y174510D01*
X107613Y173400D01*
X107759Y172291D01*
X108188Y171257D01*
X108869Y170369D01*
X109757Y169688D01*
X110791Y169259D01*
X111900Y169113D01*
X113010Y169259D01*
X113623Y169514D01*
X131471Y151666D01*
Y146145D01*
X130971Y146096D01*
X130913Y146385D01*
X130581Y146881D01*
X115786Y161677D01*
X116041Y162291D01*
X116187Y163400D01*
X116041Y164509D01*
X115612Y165543D01*
X114931Y166431D01*
X114043Y167112D01*
X113010Y167541D01*
X111900Y167687D01*
X110791Y167541D01*
X109757Y167112D01*
X108869Y166431D01*
X108188Y165543D01*
X107759Y164509D01*
X107613Y163400D01*
X107759Y162291D01*
X108188Y161257D01*
X108869Y160369D01*
X109757Y159688D01*
X110791Y159259D01*
X111900Y159113D01*
X113010Y159259D01*
X113623Y159514D01*
X127971Y145167D01*
Y142846D01*
X127509Y142654D01*
X116099Y154064D01*
X116041Y154509D01*
X115612Y155543D01*
X114931Y156431D01*
X114043Y157112D01*
X113010Y157541D01*
X111900Y157687D01*
X110791Y157541D01*
X109757Y157112D01*
X108869Y156431D01*
X108188Y155543D01*
X107759Y154509D01*
X107613Y153400D01*
X107759Y152290D01*
X108188Y151257D01*
X108869Y150369D01*
X109757Y149688D01*
X110791Y149259D01*
X111900Y149113D01*
X113010Y149259D01*
X114043Y149688D01*
X114931Y150369D01*
X114934Y150372D01*
X115432Y150405D01*
X125471Y140366D01*
Y119361D01*
X124971Y119262D01*
X124691Y119938D01*
X123799Y121393D01*
X122690Y122690D01*
X121393Y123799D01*
X119938Y124691D01*
X118361Y125344D01*
X116701Y125742D01*
X115000Y125876D01*
X113299Y125742D01*
X111639Y125344D01*
X110062Y124691D01*
X108607Y123799D01*
X107309Y122690D01*
X106201Y121393D01*
X105309Y119938D01*
X104656Y118361D01*
X104258Y116701D01*
X104124Y115000D01*
X104258Y113299D01*
X104656Y111639D01*
X105309Y110062D01*
X106201Y108607D01*
X107309Y107309D01*
X108607Y106201D01*
X110062Y105309D01*
X111639Y104656D01*
X113299Y104258D01*
X115000Y104124D01*
X116701Y104258D01*
X118361Y104656D01*
X119938Y105309D01*
X121393Y106201D01*
X122690Y107309D01*
X123799Y108607D01*
X124691Y110062D01*
X124971Y110738D01*
X125471Y110639D01*
Y110000D01*
X125587Y109415D01*
X125919Y108919D01*
X130919Y103919D01*
X131415Y103587D01*
X132000Y103471D01*
X139950D01*
X140535Y103587D01*
X141031Y103919D01*
X143059Y105946D01*
X143421Y105797D01*
X144400Y105668D01*
X145379Y105797D01*
X146291Y106174D01*
X147074Y106775D01*
X147676Y107559D01*
X148054Y108471D01*
X148182Y109450D01*
Y110950D01*
X148054Y111929D01*
X147676Y112841D01*
X147074Y113625D01*
X146291Y114226D01*
X145379Y114603D01*
X144400Y114732D01*
X143421Y114603D01*
X142509Y114226D01*
X141726Y113625D01*
X141124Y112841D01*
X140746Y111929D01*
X140618Y110950D01*
Y109450D01*
X140746Y108471D01*
X140896Y108109D01*
X139316Y106529D01*
X137516D01*
X137269Y107029D01*
X137676Y107559D01*
X138054Y108471D01*
X138182Y109450D01*
Y110950D01*
X138054Y111929D01*
X137676Y112841D01*
X137074Y113625D01*
X136291Y114226D01*
X135379Y114603D01*
X134400Y114732D01*
X133421Y114603D01*
X132812Y114351D01*
X131525Y115638D01*
X131716Y116100D01*
X133900D01*
Y120200D01*
X134400D01*
Y120700D01*
X137750D01*
Y123566D01*
X138212Y123758D01*
X140664Y121305D01*
X140618Y120950D01*
Y119450D01*
X140746Y118471D01*
X141124Y117559D01*
X141726Y116776D01*
X142509Y116174D01*
X143421Y115796D01*
X144400Y115668D01*
X145379Y115796D01*
X146291Y116174D01*
X147015Y116729D01*
X147277Y116693D01*
X147554Y116579D01*
X147587Y116415D01*
X147919Y115919D01*
X151087Y112750D01*
X150747Y111929D01*
X150618Y110950D01*
Y109450D01*
X150747Y108471D01*
X151124Y107559D01*
X151725Y106775D01*
X152509Y106174D01*
X153421Y105797D01*
X154400Y105668D01*
X155379Y105797D01*
X156291Y106174D01*
X157074Y106775D01*
X157676Y107559D01*
X158054Y108471D01*
X158182Y109450D01*
Y110950D01*
X158054Y111929D01*
X157676Y112841D01*
X157074Y113625D01*
X156291Y114226D01*
X155379Y114603D01*
X154400Y114732D01*
X153543Y114620D01*
X152544Y115618D01*
X152828Y116042D01*
X153421Y115796D01*
X154400Y115668D01*
X155379Y115796D01*
X156291Y116174D01*
X157074Y116776D01*
X157676Y117559D01*
X158054Y118471D01*
X158182Y119450D01*
Y120950D01*
X158054Y121929D01*
X157676Y122841D01*
X157074Y123625D01*
X156291Y124226D01*
X155379Y124603D01*
X154400Y124732D01*
X153421Y124603D01*
X152509Y124226D01*
X151725Y123625D01*
X151124Y122841D01*
X151002Y122546D01*
X150482Y122598D01*
X150413Y122946D01*
X150081Y123442D01*
X147573Y125950D01*
X147765Y126412D01*
X166425D01*
X170794Y122043D01*
X170747Y121929D01*
X170618Y120950D01*
Y119450D01*
X170747Y118471D01*
X171124Y117559D01*
X171725Y116776D01*
X172509Y116174D01*
X173421Y115796D01*
X174400Y115668D01*
X175379Y115796D01*
X176291Y116174D01*
X177075Y116776D01*
X177676Y117559D01*
X178053Y118471D01*
X178182Y119450D01*
Y120950D01*
X178053Y121929D01*
X177676Y122841D01*
X177075Y123625D01*
X176291Y124226D01*
X175379Y124603D01*
X174400Y124732D01*
X173421Y124603D01*
X172812Y124351D01*
X168316Y128847D01*
X168523Y129347D01*
X176343D01*
Y137253D01*
X167257D01*
Y129633D01*
X167059Y129471D01*
X147575D01*
X143529Y133516D01*
Y173300D01*
X143413Y173885D01*
X143081Y174381D01*
X115786Y201677D01*
X116041Y202291D01*
X116187Y203400D01*
X116041Y204509D01*
X115612Y205543D01*
X114931Y206431D01*
X114043Y207112D01*
X113010Y207541D01*
X111900Y207687D01*
D02*
G37*
G36*
X248643Y136553D02*
X245000D01*
Y133500D01*
X248643D01*
Y136553D01*
D02*
G37*
G36*
X244000D02*
X240357D01*
Y133500D01*
X244000D01*
Y136553D01*
D02*
G37*
G36*
X329250Y133500D02*
X325900D01*
Y130150D01*
X329250D01*
Y133500D01*
D02*
G37*
G36*
X324900D02*
X321550D01*
Y130150D01*
X324900D01*
Y133500D01*
D02*
G37*
G36*
X324400Y124187D02*
X323368Y124051D01*
X322407Y123653D01*
X321581Y123019D01*
X320947Y122193D01*
X320549Y121232D01*
X320413Y120200D01*
X320549Y119168D01*
X320947Y118207D01*
X321581Y117381D01*
X322407Y116747D01*
X323368Y116349D01*
X324400Y116213D01*
X325432Y116349D01*
X326393Y116747D01*
X327219Y117381D01*
X327853Y118207D01*
X328251Y119168D01*
X328387Y120200D01*
X328251Y121232D01*
X327853Y122193D01*
X327219Y123019D01*
X326393Y123653D01*
X325432Y124051D01*
X324400Y124187D01*
D02*
G37*
G36*
X137750Y119700D02*
X134900D01*
Y116100D01*
X137750D01*
Y119700D01*
D02*
G37*
G36*
X164400Y124732D02*
X163421Y124603D01*
X162509Y124226D01*
X161725Y123625D01*
X161124Y122841D01*
X160747Y121929D01*
X160618Y120950D01*
Y119450D01*
X160747Y118471D01*
X161124Y117559D01*
X161725Y116776D01*
X162509Y116174D01*
X163421Y115796D01*
X164400Y115668D01*
X165379Y115796D01*
X166291Y116174D01*
X167075Y116776D01*
X167676Y117559D01*
X168053Y118471D01*
X168182Y119450D01*
Y120950D01*
X168053Y121929D01*
X167676Y122841D01*
X167075Y123625D01*
X166291Y124226D01*
X165379Y124603D01*
X164400Y124732D01*
D02*
G37*
G36*
X304900Y114300D02*
Y110700D01*
X307750D01*
Y114300D01*
X304900D01*
D02*
G37*
G36*
X187750D02*
X184900D01*
Y110700D01*
X187750D01*
Y114300D01*
D02*
G37*
G36*
X167750D02*
X164900D01*
Y110700D01*
X167750D01*
Y114300D01*
D02*
G37*
G36*
X163900D02*
X161050D01*
Y110700D01*
X163900D01*
Y114300D01*
D02*
G37*
G36*
X183900D02*
X181050D01*
Y110700D01*
X183900D01*
Y114300D01*
D02*
G37*
G36*
X307750Y109700D02*
X304900D01*
Y106100D01*
X307750D01*
Y109700D01*
D02*
G37*
G36*
X187750D02*
X184900D01*
Y106100D01*
X187750D01*
Y109700D01*
D02*
G37*
G36*
X183900D02*
X181050D01*
Y106100D01*
X183900D01*
Y109700D01*
D02*
G37*
G36*
X167750D02*
X164900D01*
Y106100D01*
X167750D01*
Y109700D01*
D02*
G37*
G36*
X163900D02*
X161050D01*
Y106100D01*
X163900D01*
Y109700D01*
D02*
G37*
G36*
X174400Y114732D02*
X173421Y114603D01*
X172509Y114226D01*
X171725Y113625D01*
X171124Y112841D01*
X170747Y111929D01*
X170618Y110950D01*
Y109450D01*
X170747Y108471D01*
X171124Y107559D01*
X171725Y106775D01*
X172509Y106174D01*
X173421Y105797D01*
X174400Y105668D01*
X175379Y105797D01*
X176291Y106174D01*
X177075Y106775D01*
X177676Y107559D01*
X178053Y108471D01*
X178182Y109450D01*
Y110950D01*
X178053Y111929D01*
X177676Y112841D01*
X177075Y113625D01*
X176291Y114226D01*
X175379Y114603D01*
X174400Y114732D01*
D02*
G37*
%LPD*%
D12*
X239811Y115200D02*
X241811Y113200D01*
X212300Y115200D02*
X239811D01*
X230311Y207989D02*
Y214386D01*
Y207989D02*
X230400Y207900D01*
X230223Y214475D02*
X230311Y214386D01*
X224803Y207874D02*
Y216929D01*
X224365Y217367D02*
X224803Y216929D01*
X216961Y247990D02*
Y260992D01*
X212785Y265167D02*
X216961Y260992D01*
X210729Y265167D02*
X212785D01*
X207203Y268693D02*
X210729Y265167D01*
X207087Y238117D02*
X216961Y247990D01*
X207087Y197244D02*
Y238117D01*
X204331Y195669D02*
Y238189D01*
Y195669D02*
X207087Y192913D01*
X257400Y313000D02*
X257408Y312992D01*
X212203Y257844D02*
Y258693D01*
Y257844D02*
X214961Y255086D01*
Y248819D02*
Y255086D01*
X204331Y238189D02*
X214961Y248819D01*
X201000Y172500D02*
X209500Y164000D01*
X162800Y172500D02*
X201000D01*
X209500Y128500D02*
Y164000D01*
X111900Y223400D02*
X162800Y172500D01*
X237795Y172624D02*
Y180315D01*
X241480Y184000D01*
X252000D01*
X233676Y168504D02*
X237795Y172624D01*
X216142Y168504D02*
X233676D01*
X213779Y166142D02*
X216142Y168504D01*
X268478Y312848D02*
X268622Y312992D01*
X212203Y258693D02*
X213160Y259650D01*
X213779Y144488D02*
Y166142D01*
Y144488D02*
X215268Y143000D01*
X225898D02*
X226500Y142398D01*
X221000Y143000D02*
X225898D01*
X226500Y134500D02*
Y142398D01*
X215268Y143000D02*
X221000D01*
X228500Y153150D02*
Y160500D01*
Y136000D02*
Y153150D01*
X221000Y153000D02*
X221150Y153150D01*
X228500D01*
X345400Y134000D02*
X354200Y142800D01*
X127000Y110000D02*
Y141000D01*
X114600Y153400D02*
X127000Y141000D01*
X111900Y153400D02*
X114600D01*
X111900Y163400D02*
X129500Y145800D01*
Y115500D02*
Y145800D01*
X111900Y173400D02*
X133000Y152300D01*
X277000Y126000D02*
X280150Y122850D01*
X238189Y126000D02*
X277000D01*
X236989Y127200D02*
X238189Y126000D01*
X285000Y128500D02*
X289500Y124000D01*
X238517Y128500D02*
X285000D01*
X237817Y129200D02*
X238517Y128500D01*
X295500Y130500D02*
X304400Y121600D01*
X255172Y130500D02*
X295500D01*
X252500Y133172D02*
X255172Y130500D01*
X302850Y132500D02*
X314400Y120950D01*
X257500Y132500D02*
X302850D01*
X255000Y135000D02*
X257500Y132500D01*
X210000Y117500D02*
X212300Y115200D01*
X210000Y117500D02*
Y123000D01*
X206500Y126500D02*
X210000Y123000D01*
X209500Y128500D02*
X212800Y125200D01*
X236160D01*
X254400Y110200D02*
Y110950D01*
X250150Y115200D02*
X254400Y110950D01*
X242640Y115200D02*
X250150D01*
X239400Y118440D02*
X242640Y115200D01*
X239400Y118440D02*
Y121960D01*
X236160Y125200D02*
X239400Y121960D01*
X242150Y113200D02*
X244400Y110950D01*
X241811Y113200D02*
X242150D01*
X235300Y129200D02*
X237817D01*
X228500Y136000D02*
X235300Y129200D01*
X233800Y127200D02*
X236989D01*
X226500Y134500D02*
X233800Y127200D01*
X111900Y213400D02*
X156300Y169000D01*
X200617D01*
X206500Y126500D02*
Y163117D01*
X200617Y169000D02*
X206500Y163117D01*
X244400Y110200D02*
Y110950D01*
X111900Y203400D02*
X142000Y173300D01*
Y132883D02*
Y173300D01*
X111900Y193400D02*
X138000Y167300D01*
Y133360D02*
Y167300D01*
X241000Y173000D02*
X252000D01*
X228500Y160500D02*
X241000Y173000D01*
X240500Y163000D02*
X244500D01*
X238500Y161000D02*
X240500Y163000D01*
X238500Y150383D02*
Y161000D01*
X284400Y110200D02*
Y110950D01*
X280150Y115200D02*
X284400Y110950D01*
X280150Y115200D02*
Y122850D01*
X221000Y153000D02*
X222000Y152000D01*
X289500Y117000D02*
Y124000D01*
X294400Y110200D02*
Y112100D01*
X289500Y117000D02*
X294400Y112100D01*
X133000Y131132D02*
Y152300D01*
Y131132D02*
X143932Y120200D01*
X138000Y133360D02*
X149000Y122360D01*
X250500Y153000D02*
X255000Y148500D01*
Y135000D02*
Y148500D01*
X304400Y120200D02*
Y121600D01*
X248559Y148441D02*
X252500Y144500D01*
Y133172D02*
Y144500D01*
X238500Y150383D02*
X240441Y148441D01*
X248559D01*
X314400Y120200D02*
Y120950D01*
X244500Y153000D02*
X250500D01*
X129500Y115500D02*
X134400Y110600D01*
X132000Y105000D02*
X139950D01*
X127000Y110000D02*
X132000Y105000D01*
X139950D02*
X144400Y109450D01*
X143932Y120200D02*
X144400D01*
X134400Y110200D02*
Y110600D01*
X110983Y163400D02*
X111900D01*
X144400Y120200D02*
Y120900D01*
Y109450D02*
Y110200D01*
X154400D02*
Y111600D01*
X149000Y117000D02*
Y122360D01*
Y117000D02*
X154400Y111600D01*
X111900Y213400D02*
X112100D01*
X174400Y120200D02*
Y120600D01*
X142000Y132883D02*
X146941Y127941D01*
X167059D01*
X174400Y120600D01*
X326500Y239500D02*
X348000D01*
X354200Y233300D01*
Y142800D02*
Y233300D01*
X202010Y263500D02*
X207203Y268693D01*
X149603D02*
X154796Y263500D01*
X202010D01*
D22*
X251874Y178500D02*
D03*
X244000D02*
D03*
X251768Y189000D02*
D03*
X243894D02*
D03*
D65*
X184400Y120200D02*
Y131891D01*
X195809Y143300D01*
X196400D01*
Y153300D02*
X196991D01*
X204000Y146291D01*
Y130100D02*
Y146291D01*
X199500Y125600D02*
X204000Y130100D01*
X200807Y105000D02*
X298193D01*
X199500Y106307D02*
X200807Y105000D01*
X199500Y106307D02*
Y125600D01*
X299000Y105807D02*
Y114000D01*
X298193Y105000D02*
X299000Y105807D01*
X294400Y118600D02*
Y120200D01*
Y118600D02*
X299000Y114000D01*
D66*
X251768Y189000D02*
X256500D01*
X251874Y178500D02*
X252297Y178077D01*
X256423D01*
X256500Y178000D01*
X240731Y189100D02*
X243194D01*
X243394Y188900D01*
X240737Y178500D02*
X243500D01*
D67*
X196457Y177165D02*
X229940D01*
X232283Y172062D02*
Y174822D01*
X229940Y177165D02*
X232283Y174822D01*
X177953Y195669D02*
X196457Y177165D01*
X312598Y170866D02*
X313386D01*
X307480D02*
X312598D01*
X305118D02*
X307480D01*
X263386Y142913D02*
X268110D01*
X277165D02*
X305118Y170866D01*
X268110Y142913D02*
X277165D01*
D69*
X268622Y312992D02*
D03*
X335400Y134000D02*
D03*
X345400D02*
D03*
X111900Y143400D02*
D03*
Y153400D02*
D03*
Y203400D02*
D03*
Y213400D02*
D03*
Y193400D02*
D03*
Y183400D02*
D03*
Y223400D02*
D03*
Y173400D02*
D03*
Y163400D02*
D03*
X247400Y313000D02*
D03*
D70*
X278622Y312992D02*
D03*
X325400Y134000D02*
D03*
X257400Y313000D02*
D03*
D71*
X316200Y281843D02*
D03*
Y262043D02*
D03*
D72*
X244500Y163000D02*
D03*
Y153000D02*
D03*
Y143000D02*
D03*
Y133000D02*
D03*
X221000Y163000D02*
D03*
Y153000D02*
D03*
Y143000D02*
D03*
Y133000D02*
D03*
X171800Y163300D02*
D03*
Y153300D02*
D03*
Y143300D02*
D03*
Y133300D02*
D03*
X196400Y163300D02*
D03*
Y153300D02*
D03*
Y143300D02*
D03*
Y133300D02*
D03*
D73*
X282000Y249500D02*
D03*
D74*
X115000Y115000D02*
D03*
X343347Y307913D02*
D03*
X115000D02*
D03*
D75*
X111900Y233400D02*
D03*
D76*
X324400Y110200D02*
D03*
X314400D02*
D03*
X294400D02*
D03*
X284400D02*
D03*
X274400D02*
D03*
X254400D02*
D03*
X244400D02*
D03*
X224400D02*
D03*
X214400D02*
D03*
X204400D02*
D03*
X194400D02*
D03*
X174400D02*
D03*
X144400D02*
D03*
X134400D02*
D03*
X154400D02*
D03*
Y120200D02*
D03*
X164400D02*
D03*
X144400D02*
D03*
X174400D02*
D03*
X184400D02*
D03*
X194400D02*
D03*
X214400D02*
D03*
X224400D02*
D03*
X234400D02*
D03*
X244400D02*
D03*
X254400D02*
D03*
X264400D02*
D03*
X274400D02*
D03*
X294400D02*
D03*
X304400D02*
D03*
X314400D02*
D03*
D77*
X304400Y110200D02*
D03*
X264400D02*
D03*
X234400D02*
D03*
X184400D02*
D03*
X164400D02*
D03*
X134400Y120200D02*
D03*
X204400D02*
D03*
X284400D02*
D03*
D78*
X324400D02*
D03*
D79*
X139603Y268693D02*
D03*
X144603Y258693D02*
D03*
X149603Y268693D02*
D03*
X154603Y258693D02*
D03*
X159603Y268693D02*
D03*
X164603Y258693D02*
D03*
X197203Y268693D02*
D03*
X202203Y258693D02*
D03*
X207203Y268693D02*
D03*
X212203Y258693D02*
D03*
X217203Y268693D02*
D03*
X222203Y258693D02*
D03*
D80*
X230400Y207900D02*
D03*
X224365Y217367D02*
D03*
X224803Y207874D02*
D03*
X230223Y214475D02*
D03*
X207087Y197244D02*
D03*
Y192913D02*
D03*
X232283Y172062D02*
D03*
X319291Y314173D02*
D03*
X194882Y201575D02*
D03*
X147244Y210630D02*
D03*
Y203543D02*
D03*
X228346Y228346D02*
D03*
X177559Y178347D02*
D03*
X177953Y195669D02*
D03*
X207000Y249500D02*
D03*
X228346Y188976D02*
D03*
Y194882D02*
D03*
X312598Y170866D02*
D03*
X307480D02*
D03*
X263386Y142913D02*
D03*
X298700Y142800D02*
D03*
X292600D02*
D03*
Y147300D02*
D03*
X268110Y142913D02*
D03*
X282283Y160630D02*
D03*
X279134D02*
D03*
X275984D02*
D03*
X285433D02*
D03*
X310800Y142800D02*
D03*
Y147300D02*
D03*
X131800Y234100D02*
D03*
X131700Y231300D02*
D03*
X134900D02*
D03*
X135000Y234100D02*
D03*
X141200Y234000D02*
D03*
X141100Y231200D02*
D03*
X137900D02*
D03*
X138000Y234000D02*
D03*
X287543Y314173D02*
D03*
X256500Y178000D02*
D03*
Y189000D02*
D03*
X252000Y184000D02*
D03*
Y173000D02*
D03*
X281800Y238100D02*
D03*
X285200D02*
D03*
X278600D02*
D03*
X257600Y262800D02*
D03*
X261200D02*
D03*
X264800Y262700D02*
D03*
X279500Y262000D02*
D03*
Y264900D02*
D03*
X276800D02*
D03*
X273900Y265000D02*
D03*
X266600D02*
D03*
X263000D02*
D03*
X259600Y265100D02*
D03*
X326500Y239500D02*
D03*
X340700Y270300D02*
D03*
X340600Y267200D02*
D03*
Y264300D02*
D03*
Y261400D02*
D03*
X340500Y258600D02*
D03*
X343700D02*
D03*
X343800Y261400D02*
D03*
Y264300D02*
D03*
Y267200D02*
D03*
X343900Y270300D02*
D03*
X337700Y270400D02*
D03*
X337600Y267300D02*
D03*
Y264400D02*
D03*
Y261500D02*
D03*
X337500Y258700D02*
D03*
X334300D02*
D03*
X334400Y261500D02*
D03*
Y264400D02*
D03*
Y267300D02*
D03*
X334500Y270400D02*
D03*
X340800Y285200D02*
D03*
X340700Y282100D02*
D03*
Y279200D02*
D03*
Y276300D02*
D03*
X340600Y273500D02*
D03*
X343800D02*
D03*
X343900Y276300D02*
D03*
Y279200D02*
D03*
Y282100D02*
D03*
X344000Y285200D02*
D03*
X337800Y285300D02*
D03*
X337700Y282200D02*
D03*
Y279300D02*
D03*
Y276400D02*
D03*
X337600Y273600D02*
D03*
X334400D02*
D03*
X334500Y276400D02*
D03*
Y279300D02*
D03*
Y282200D02*
D03*
X334600Y285300D02*
D03*
X184551Y237108D02*
D03*
X187651Y237008D02*
D03*
X190551D02*
D03*
X238932Y237108D02*
D03*
X241732Y237008D02*
D03*
Y240208D02*
D03*
X238932Y240308D02*
D03*
X190551Y240208D02*
D03*
X187651D02*
D03*
X184551Y240308D02*
D03*
X184451Y234108D02*
D03*
X187551Y234008D02*
D03*
X190451D02*
D03*
X238832Y234108D02*
D03*
X241632Y234008D02*
D03*
Y230808D02*
D03*
X238832Y230908D02*
D03*
X190451Y230808D02*
D03*
X187551D02*
D03*
X184451Y230908D02*
D03*
X264000Y193000D02*
D03*
X267100Y192900D02*
D03*
X270000D02*
D03*
X272900D02*
D03*
X275700Y192800D02*
D03*
Y196000D02*
D03*
X272900Y196100D02*
D03*
X270000D02*
D03*
X267100D02*
D03*
X264000Y196200D02*
D03*
X263900Y190000D02*
D03*
X267000Y189900D02*
D03*
X269900D02*
D03*
X272800D02*
D03*
X275600Y189800D02*
D03*
Y186600D02*
D03*
X272800Y186700D02*
D03*
X269900D02*
D03*
X267000D02*
D03*
X263900Y186800D02*
D03*
X270000Y180300D02*
D03*
X269900Y177200D02*
D03*
Y174300D02*
D03*
Y171400D02*
D03*
X269800Y168600D02*
D03*
X273000D02*
D03*
X273100Y171400D02*
D03*
Y174300D02*
D03*
Y177200D02*
D03*
X273200Y180300D02*
D03*
X267000Y180400D02*
D03*
X266900Y177300D02*
D03*
Y174400D02*
D03*
Y171500D02*
D03*
X266800Y168700D02*
D03*
X263600D02*
D03*
X263700Y171500D02*
D03*
Y174400D02*
D03*
Y177300D02*
D03*
X263800Y180400D02*
D03*
X182800Y317200D02*
D03*
X182700Y314100D02*
D03*
Y311200D02*
D03*
Y308300D02*
D03*
X182600Y305500D02*
D03*
X185800D02*
D03*
X185900Y308300D02*
D03*
Y311200D02*
D03*
Y314100D02*
D03*
X186000Y317200D02*
D03*
X179800Y317300D02*
D03*
X179700Y314200D02*
D03*
Y311300D02*
D03*
Y308400D02*
D03*
X179600Y305600D02*
D03*
X176400D02*
D03*
X176500Y308400D02*
D03*
Y311300D02*
D03*
Y314200D02*
D03*
X176600Y317300D02*
D03*
X232700Y317200D02*
D03*
X232600Y314100D02*
D03*
Y311200D02*
D03*
Y308300D02*
D03*
X232500Y305500D02*
D03*
X235700D02*
D03*
X235800Y308300D02*
D03*
Y311200D02*
D03*
Y314100D02*
D03*
X235900Y317200D02*
D03*
X229700Y317300D02*
D03*
X229600Y314200D02*
D03*
Y311300D02*
D03*
Y308400D02*
D03*
X229500Y305600D02*
D03*
X226300D02*
D03*
X226400Y308400D02*
D03*
Y311300D02*
D03*
Y314200D02*
D03*
X226500Y317300D02*
D03*
X137800Y316000D02*
D03*
X137700Y312900D02*
D03*
Y310000D02*
D03*
Y307100D02*
D03*
X137600Y304300D02*
D03*
X140800D02*
D03*
X140900Y307100D02*
D03*
Y310000D02*
D03*
Y312900D02*
D03*
X141000Y316000D02*
D03*
X134800Y316100D02*
D03*
X134700Y313000D02*
D03*
Y310100D02*
D03*
Y307200D02*
D03*
X134600Y304400D02*
D03*
X131400D02*
D03*
X131500Y307200D02*
D03*
Y310100D02*
D03*
Y313000D02*
D03*
X131600Y316100D02*
D03*
X113600Y275100D02*
D03*
X113500Y272000D02*
D03*
Y269100D02*
D03*
Y266200D02*
D03*
X113400Y263400D02*
D03*
X116600D02*
D03*
X116700Y266200D02*
D03*
Y269100D02*
D03*
Y272000D02*
D03*
X116800Y275100D02*
D03*
X110600Y275200D02*
D03*
X110500Y272100D02*
D03*
Y269200D02*
D03*
Y266300D02*
D03*
X110400Y263500D02*
D03*
X107200D02*
D03*
X107300Y266300D02*
D03*
Y269200D02*
D03*
Y272100D02*
D03*
X107400Y275200D02*
D03*
X107700Y290200D02*
D03*
X107600Y287100D02*
D03*
Y284200D02*
D03*
Y281300D02*
D03*
X107500Y278500D02*
D03*
X110700D02*
D03*
X110800Y281300D02*
D03*
Y284200D02*
D03*
Y287100D02*
D03*
X110900Y290200D02*
D03*
X210500Y249400D02*
D03*
X203900D02*
D03*
X200800Y249500D02*
D03*
X197700D02*
D03*
X228346Y222047D02*
D03*
X273500Y209500D02*
D03*
X278500D02*
D03*
X268500D02*
D03*
X117100Y290100D02*
D03*
X117000Y287000D02*
D03*
Y284100D02*
D03*
Y281200D02*
D03*
X116900Y278400D02*
D03*
X113700D02*
D03*
X113800Y281200D02*
D03*
Y284100D02*
D03*
Y287000D02*
D03*
X113900Y290100D02*
D03*
X241231Y189100D02*
D03*
X241131Y178300D02*
D03*
X304700Y142800D02*
D03*
Y147300D02*
D03*
X298700D02*
D03*
D81*
X259449Y155118D02*
D03*
X263386D02*
D03*
X267323D02*
D03*
X271260D02*
D03*
X259449Y160630D02*
D03*
X263386D02*
D03*
X267323D02*
D03*
X271260D02*
D03*
D82*
X282000Y247000D02*
D03*
Y252000D02*
D03*
M02*
