G04*
G04 #@! TF.GenerationSoftware,Altium Limited,Altium Designer,21.8.1 (53)*
G04*
G04 Layer_Color=8388736*
%FSLAX25Y25*%
%MOIN*%
G70*
G04*
G04 #@! TF.SameCoordinates,4A88703C-FF3E-4B1E-BF10-83D339521CC7*
G04*
G04*
G04 #@! TF.FilePolarity,Negative*
G04*
G01*
G75*
G04:AMPARAMS|DCode=35|XSize=58mil|YSize=53.28mil|CornerRadius=10.79mil|HoleSize=0mil|Usage=FLASHONLY|Rotation=180.000|XOffset=0mil|YOffset=0mil|HoleType=Round|Shape=RoundedRectangle|*
%AMROUNDEDRECTD35*
21,1,0.05800,0.03169,0,0,180.0*
21,1,0.03642,0.05328,0,0,180.0*
1,1,0.02158,-0.01821,0.01585*
1,1,0.02158,0.01821,0.01585*
1,1,0.02158,0.01821,-0.01585*
1,1,0.02158,-0.01821,-0.01585*
%
%ADD35ROUNDEDRECTD35*%
%ADD36O,0.09068X0.02178*%
G04:AMPARAMS|DCode=37|XSize=114.3mil|YSize=53.28mil|CornerRadius=15.32mil|HoleSize=0mil|Usage=FLASHONLY|Rotation=90.000|XOffset=0mil|YOffset=0mil|HoleType=Round|Shape=RoundedRectangle|*
%AMROUNDEDRECTD37*
21,1,0.11430,0.02264,0,0,90.0*
21,1,0.08366,0.05328,0,0,90.0*
1,1,0.03064,0.01132,0.04183*
1,1,0.03064,0.01132,-0.04183*
1,1,0.03064,-0.01132,-0.04183*
1,1,0.03064,-0.01132,0.04183*
%
%ADD37ROUNDEDRECTD37*%
%ADD38O,0.06509X0.03162*%
G04:AMPARAMS|DCode=39|XSize=58mil|YSize=45.4mil|CornerRadius=9.61mil|HoleSize=0mil|Usage=FLASHONLY|Rotation=90.000|XOffset=0mil|YOffset=0mil|HoleType=Round|Shape=RoundedRectangle|*
%AMROUNDEDRECTD39*
21,1,0.05800,0.02618,0,0,90.0*
21,1,0.03878,0.04540,0,0,90.0*
1,1,0.01922,0.01309,0.01939*
1,1,0.01922,0.01309,-0.01939*
1,1,0.01922,-0.01309,-0.01939*
1,1,0.01922,-0.01309,0.01939*
%
%ADD39ROUNDEDRECTD39*%
G04:AMPARAMS|DCode=40|XSize=58mil|YSize=45.4mil|CornerRadius=9.61mil|HoleSize=0mil|Usage=FLASHONLY|Rotation=0.000|XOffset=0mil|YOffset=0mil|HoleType=Round|Shape=RoundedRectangle|*
%AMROUNDEDRECTD40*
21,1,0.05800,0.02618,0,0,0.0*
21,1,0.03878,0.04540,0,0,0.0*
1,1,0.01922,0.01939,-0.01309*
1,1,0.01922,-0.01939,-0.01309*
1,1,0.01922,-0.01939,0.01309*
1,1,0.01922,0.01939,0.01309*
%
%ADD40ROUNDEDRECTD40*%
G04:AMPARAMS|DCode=41|XSize=43.43mil|YSize=43.43mil|CornerRadius=9.32mil|HoleSize=0mil|Usage=FLASHONLY|Rotation=180.000|XOffset=0mil|YOffset=0mil|HoleType=Round|Shape=RoundedRectangle|*
%AMROUNDEDRECTD41*
21,1,0.04343,0.02480,0,0,180.0*
21,1,0.02480,0.04343,0,0,180.0*
1,1,0.01863,-0.01240,0.01240*
1,1,0.01863,0.01240,0.01240*
1,1,0.01863,0.01240,-0.01240*
1,1,0.01863,-0.01240,-0.01240*
%
%ADD41ROUNDEDRECTD41*%
G04:AMPARAMS|DCode=42|XSize=94.61mil|YSize=69.02mil|CornerRadius=19.26mil|HoleSize=0mil|Usage=FLASHONLY|Rotation=0.000|XOffset=0mil|YOffset=0mil|HoleType=Round|Shape=RoundedRectangle|*
%AMROUNDEDRECTD42*
21,1,0.09461,0.03051,0,0,0.0*
21,1,0.05610,0.06902,0,0,0.0*
1,1,0.03851,0.02805,-0.01526*
1,1,0.03851,-0.02805,-0.01526*
1,1,0.03851,-0.02805,0.01526*
1,1,0.03851,0.02805,0.01526*
%
%ADD42ROUNDEDRECTD42*%
G04:AMPARAMS|DCode=43|XSize=114.3mil|YSize=53.28mil|CornerRadius=15.32mil|HoleSize=0mil|Usage=FLASHONLY|Rotation=0.000|XOffset=0mil|YOffset=0mil|HoleType=Round|Shape=RoundedRectangle|*
%AMROUNDEDRECTD43*
21,1,0.11430,0.02264,0,0,0.0*
21,1,0.08366,0.05328,0,0,0.0*
1,1,0.03064,0.04183,-0.01132*
1,1,0.03064,-0.04183,-0.01132*
1,1,0.03064,-0.04183,0.01132*
1,1,0.03064,0.04183,0.01132*
%
%ADD43ROUNDEDRECTD43*%
G04:AMPARAMS|DCode=44|XSize=63.12mil|YSize=47.37mil|CornerRadius=13.84mil|HoleSize=0mil|Usage=FLASHONLY|Rotation=270.000|XOffset=0mil|YOffset=0mil|HoleType=Round|Shape=RoundedRectangle|*
%AMROUNDEDRECTD44*
21,1,0.06312,0.01968,0,0,270.0*
21,1,0.03543,0.04737,0,0,270.0*
1,1,0.02769,-0.00984,-0.01772*
1,1,0.02769,-0.00984,0.01772*
1,1,0.02769,0.00984,0.01772*
1,1,0.02769,0.00984,-0.01772*
%
%ADD44ROUNDEDRECTD44*%
%ADD45R,0.05131X0.09265*%
%ADD46R,0.05131X0.09265*%
%ADD47R,0.14580X0.09265*%
%ADD48R,0.08800X0.21800*%
%ADD49R,0.08800X0.22300*%
%ADD50R,0.48044X0.08300*%
G04:AMPARAMS|DCode=51|XSize=480.44mil|YSize=165.48mil|CornerRadius=43.37mil|HoleSize=0mil|Usage=FLASHONLY|Rotation=0.000|XOffset=0mil|YOffset=0mil|HoleType=Round|Shape=RoundedRectangle|*
%AMROUNDEDRECTD51*
21,1,0.48044,0.07874,0,0,0.0*
21,1,0.39370,0.16548,0,0,0.0*
1,1,0.08674,0.19685,-0.03937*
1,1,0.08674,-0.19685,-0.03937*
1,1,0.08674,-0.19685,0.03937*
1,1,0.08674,0.19685,0.03937*
%
%ADD51ROUNDEDRECTD51*%
%ADD52C,0.07300*%
%ADD53R,0.07300X0.07300*%
%ADD54R,0.10800X0.10800*%
%ADD55R,0.07887X0.06706*%
%ADD56R,0.10249X0.13005*%
%ADD57C,0.20485*%
%ADD58R,0.07300X0.07300*%
%ADD59O,0.06300X0.07800*%
%ADD60R,0.06300X0.07800*%
%ADD61C,0.06706*%
%ADD62C,0.00800*%
%ADD63C,0.06800*%
%ADD64C,0.05800*%
D35*
X177559Y183465D02*
D03*
Y190551D02*
D03*
D36*
X214513Y188514D02*
D03*
Y191073D02*
D03*
Y193632D02*
D03*
Y196191D02*
D03*
Y198750D02*
D03*
Y201309D02*
D03*
Y203869D02*
D03*
Y206428D02*
D03*
Y208987D02*
D03*
Y211546D02*
D03*
Y214105D02*
D03*
Y216664D02*
D03*
Y219223D02*
D03*
Y221782D02*
D03*
X187347Y188514D02*
D03*
Y191073D02*
D03*
Y193632D02*
D03*
Y196191D02*
D03*
Y198750D02*
D03*
Y201309D02*
D03*
Y203869D02*
D03*
Y206428D02*
D03*
Y208987D02*
D03*
Y211546D02*
D03*
Y214105D02*
D03*
Y216664D02*
D03*
Y219223D02*
D03*
Y221782D02*
D03*
D37*
X285995Y170712D02*
D03*
X297806D02*
D03*
X285895Y183212D02*
D03*
X297706D02*
D03*
D38*
X271272Y257000D02*
D03*
Y252000D02*
D03*
Y247000D02*
D03*
Y242000D02*
D03*
X292728Y257000D02*
D03*
Y252000D02*
D03*
Y247000D02*
D03*
Y242000D02*
D03*
D39*
X299937Y272500D02*
D03*
X292063D02*
D03*
X291937Y265000D02*
D03*
X284063D02*
D03*
X317937Y239500D02*
D03*
X310063D02*
D03*
X291605Y314273D02*
D03*
X299480D02*
D03*
D40*
X301000Y257063D02*
D03*
Y264937D02*
D03*
X247600Y303437D02*
D03*
Y295563D02*
D03*
D41*
X300000Y235500D02*
D03*
Y241406D02*
D03*
X223228Y228150D02*
D03*
Y222244D02*
D03*
X319600Y154753D02*
D03*
Y148847D02*
D03*
X147244Y193504D02*
D03*
Y199409D02*
D03*
Y221457D02*
D03*
Y215551D02*
D03*
X222835Y188976D02*
D03*
Y194882D02*
D03*
D42*
X266129Y230500D02*
D03*
X282271D02*
D03*
X276929Y287000D02*
D03*
X293071D02*
D03*
D43*
X260012Y257805D02*
D03*
Y245994D02*
D03*
X280512Y156505D02*
D03*
Y144694D02*
D03*
D44*
X306299Y314173D02*
D03*
X313386D02*
D03*
X251874Y178000D02*
D03*
X244787D02*
D03*
X251774Y189000D02*
D03*
X244687D02*
D03*
D45*
X311255Y158005D02*
D03*
X293145D02*
D03*
D46*
X302200D02*
D03*
D47*
X302200Y133595D02*
D03*
D48*
X162398Y190480D02*
D03*
D49*
Y224480D02*
D03*
D50*
X327500Y220900D02*
D03*
Y192100D02*
D03*
D51*
Y186000D02*
D03*
Y226700D02*
D03*
D52*
X268622Y312992D02*
D03*
X335400Y134000D02*
D03*
X345400D02*
D03*
X111900Y143400D02*
D03*
Y153400D02*
D03*
Y203400D02*
D03*
Y213400D02*
D03*
Y193400D02*
D03*
Y183400D02*
D03*
Y223400D02*
D03*
Y173400D02*
D03*
Y163400D02*
D03*
X247400Y313000D02*
D03*
D53*
X278622Y312992D02*
D03*
X325400Y134000D02*
D03*
X257400Y313000D02*
D03*
D54*
X316200Y281843D02*
D03*
Y262043D02*
D03*
D55*
X244500Y163000D02*
D03*
Y153000D02*
D03*
Y143000D02*
D03*
Y133000D02*
D03*
X221000Y163000D02*
D03*
Y153000D02*
D03*
Y143000D02*
D03*
Y133000D02*
D03*
X171800Y163300D02*
D03*
Y153300D02*
D03*
Y143300D02*
D03*
Y133300D02*
D03*
X196400Y163300D02*
D03*
Y153300D02*
D03*
Y143300D02*
D03*
Y133300D02*
D03*
D56*
X282000Y249500D02*
D03*
D57*
X115000Y115000D02*
D03*
X343347Y307913D02*
D03*
X115000D02*
D03*
D58*
X111900Y233400D02*
D03*
D59*
X324400Y110200D02*
D03*
X314400D02*
D03*
X294400D02*
D03*
X284400D02*
D03*
X274400D02*
D03*
X254400D02*
D03*
X244400D02*
D03*
X224400D02*
D03*
X214400D02*
D03*
X204400D02*
D03*
X194400D02*
D03*
X174400D02*
D03*
X144400D02*
D03*
X134400D02*
D03*
X154400D02*
D03*
Y120200D02*
D03*
X164400D02*
D03*
X144400D02*
D03*
X174400D02*
D03*
X184400D02*
D03*
X194400D02*
D03*
X214400D02*
D03*
X224400D02*
D03*
X234400D02*
D03*
X244400D02*
D03*
X254400D02*
D03*
X264400D02*
D03*
X274400D02*
D03*
X294400D02*
D03*
X304400D02*
D03*
X314400D02*
D03*
D60*
X304400Y110200D02*
D03*
X264400D02*
D03*
X234400D02*
D03*
X184400D02*
D03*
X164400D02*
D03*
X134400Y120200D02*
D03*
X204400D02*
D03*
X284400D02*
D03*
D61*
X324400D02*
D03*
D62*
X132083Y293693D02*
D03*
X172083D02*
D03*
X189683D02*
D03*
X229683D02*
D03*
D63*
X139603Y268693D02*
D03*
X144603Y258693D02*
D03*
X149603Y268693D02*
D03*
X154603Y258693D02*
D03*
X159603Y268693D02*
D03*
X164603Y258693D02*
D03*
X197203Y268693D02*
D03*
X202203Y258693D02*
D03*
X207203Y268693D02*
D03*
X212203Y258693D02*
D03*
X217203Y268693D02*
D03*
X222203Y258693D02*
D03*
D64*
X282000Y247000D02*
D03*
Y252000D02*
D03*
M02*
