G04*
G04 #@! TF.GenerationSoftware,Altium Limited,Altium Designer,21.8.1 (53)*
G04*
G04 Layer_Color=128*
%FSLAX25Y25*%
%MOIN*%
G70*
G04*
G04 #@! TF.SameCoordinates,00E826D5-FD21-4A1A-8C14-BC2741F4279C*
G04*
G04*
G04 #@! TF.FilePolarity,Positive*
G04*
G01*
G75*
%ADD96C,0.00200*%
D96*
X323400Y134000D02*
X327400D01*
X325400Y132000D02*
Y136000D01*
X333400Y134000D02*
X337400D01*
X335400Y132000D02*
Y136000D01*
X343400Y134000D02*
X347400D01*
X345400Y132000D02*
Y136000D01*
X313050Y281843D02*
X319350D01*
X316200Y278694D02*
Y284993D01*
X313050Y262043D02*
X319350D01*
X316200Y258894D02*
Y265193D01*
X242500Y163000D02*
X246500D01*
X244500Y161000D02*
Y165000D01*
X242500Y153000D02*
X246500D01*
X244500Y151000D02*
Y155000D01*
X242500Y143000D02*
X246500D01*
X244500Y141000D02*
Y145000D01*
X242500Y133000D02*
X246500D01*
X244500Y131000D02*
Y135000D01*
X219000Y163000D02*
X223000D01*
X221000Y161000D02*
Y165000D01*
X219000Y153000D02*
X223000D01*
X221000Y151000D02*
Y155000D01*
X219000Y143000D02*
X223000D01*
X221000Y141000D02*
Y145000D01*
X219000Y133000D02*
X223000D01*
X221000Y131000D02*
Y135000D01*
X148500Y163000D02*
X152500D01*
X150500Y161000D02*
Y165000D01*
X148500Y153000D02*
X152500D01*
X150500Y151000D02*
Y155000D01*
X148500Y143000D02*
X152500D01*
X150500Y141000D02*
Y145000D01*
X148500Y133000D02*
X152500D01*
X150500Y131000D02*
Y135000D01*
X172000Y163000D02*
X176000D01*
X174000Y161000D02*
Y165000D01*
X172000Y153000D02*
X176000D01*
X174000Y151000D02*
Y155000D01*
X172000Y143000D02*
X176000D01*
X174000Y141000D02*
Y145000D01*
X172000Y133000D02*
X176000D01*
X174000Y131000D02*
Y135000D01*
X195500Y163500D02*
X199500D01*
X197500Y161500D02*
Y165500D01*
X195500Y153500D02*
X199500D01*
X197500Y151500D02*
Y155500D01*
X195500Y143500D02*
X199500D01*
X197500Y141500D02*
Y145500D01*
X195500Y133500D02*
X199500D01*
X197500Y131500D02*
Y135500D01*
X108701Y115000D02*
X121299D01*
X115000Y108701D02*
Y121299D01*
X337047Y307913D02*
X349646D01*
X343347Y301614D02*
Y314213D01*
X108701Y307913D02*
X121299D01*
X115000Y301614D02*
Y314213D01*
X109900Y143400D02*
X113900D01*
X111900Y141400D02*
Y145400D01*
X109900Y153400D02*
X113900D01*
X111900Y151400D02*
Y155400D01*
X109900Y203400D02*
X113900D01*
X111900Y201400D02*
Y205400D01*
X109900Y213400D02*
X113900D01*
X111900Y211400D02*
Y215400D01*
X109900Y193400D02*
X113900D01*
X111900Y191400D02*
Y195400D01*
X109900Y233400D02*
X113900D01*
X111900Y231400D02*
Y235400D01*
X109900Y183400D02*
X113900D01*
X111900Y181400D02*
Y185400D01*
X109900Y223400D02*
X113900D01*
X111900Y221400D02*
Y225400D01*
X109900Y173400D02*
X113900D01*
X111900Y171400D02*
Y175400D01*
X109900Y163400D02*
X113900D01*
X111900Y161400D02*
Y165400D01*
X322400Y110200D02*
X326400D01*
X324400Y108200D02*
Y112200D01*
X312400Y110200D02*
X316400D01*
X314400Y108200D02*
Y112200D01*
X302400Y110200D02*
X306400D01*
X304400Y108200D02*
Y112200D01*
X292400Y110200D02*
X296400D01*
X294400Y108200D02*
Y112200D01*
X282400Y110200D02*
X286400D01*
X284400Y108200D02*
Y112200D01*
X272400Y110200D02*
X276400D01*
X274400Y108200D02*
Y112200D01*
X262400Y110200D02*
X266400D01*
X264400Y108200D02*
Y112200D01*
X252400Y110200D02*
X256400D01*
X254400Y108200D02*
Y112200D01*
X242400Y110200D02*
X246400D01*
X244400Y108200D02*
Y112200D01*
X232400Y110200D02*
X236400D01*
X234400Y108200D02*
Y112200D01*
X222400Y110200D02*
X226400D01*
X224400Y108200D02*
Y112200D01*
X212400Y110200D02*
X216400D01*
X214400Y108200D02*
Y112200D01*
X202400Y110200D02*
X206400D01*
X204400Y108200D02*
Y112200D01*
X192400Y110200D02*
X196400D01*
X194400Y108200D02*
Y112200D01*
X182400Y110200D02*
X186400D01*
X184400Y108200D02*
Y112200D01*
X172400Y110200D02*
X176400D01*
X174400Y108200D02*
Y112200D01*
X142400Y110200D02*
X146400D01*
X144400Y108200D02*
Y112200D01*
X132400Y110200D02*
X136400D01*
X134400Y108200D02*
Y112200D01*
X322400Y120200D02*
X326400D01*
X324400Y118200D02*
Y122200D01*
X162400Y110200D02*
X166400D01*
X164400Y108200D02*
Y112200D01*
X152400Y110200D02*
X156400D01*
X154400Y108200D02*
Y112200D01*
X152400Y120200D02*
X156400D01*
X154400Y118200D02*
Y122200D01*
X162400Y120200D02*
X166400D01*
X164400Y118200D02*
Y122200D01*
X132400Y120200D02*
X136400D01*
X134400Y118200D02*
Y122200D01*
X142400Y120200D02*
X146400D01*
X144400Y118200D02*
Y122200D01*
X172400Y120200D02*
X176400D01*
X174400Y118200D02*
Y122200D01*
X182400Y120200D02*
X186400D01*
X184400Y118200D02*
Y122200D01*
X192400Y120200D02*
X196400D01*
X194400Y118200D02*
Y122200D01*
X202400Y120200D02*
X206400D01*
X204400Y118200D02*
Y122200D01*
X212400Y120200D02*
X216400D01*
X214400Y118200D02*
Y122200D01*
X222400Y120200D02*
X226400D01*
X224400Y118200D02*
Y122200D01*
X232400Y120200D02*
X236400D01*
X234400Y118200D02*
Y122200D01*
X242400Y120200D02*
X246400D01*
X244400Y118200D02*
Y122200D01*
X252400Y120200D02*
X256400D01*
X254400Y118200D02*
Y122200D01*
X262400Y120200D02*
X266400D01*
X264400Y118200D02*
Y122200D01*
X272400Y120200D02*
X276400D01*
X274400Y118200D02*
Y122200D01*
X282400Y120200D02*
X286400D01*
X284400Y118200D02*
Y122200D01*
X292400Y120200D02*
X296400D01*
X294400Y118200D02*
Y122200D01*
X302400Y120200D02*
X306400D01*
X304400Y118200D02*
Y122200D01*
X312400Y120200D02*
X316400D01*
X314400Y118200D02*
Y122200D01*
X125686Y293693D02*
X138481D01*
X132083Y287295D02*
Y300091D01*
X165686Y293693D02*
X178481D01*
X172083Y287295D02*
Y300091D01*
X138107Y268693D02*
X141099D01*
X139603Y267197D02*
Y270189D01*
X143107Y258693D02*
X146099D01*
X144603Y257197D02*
Y260189D01*
X148107Y268693D02*
X151099D01*
X149603Y267197D02*
Y270189D01*
X153107Y258693D02*
X156099D01*
X154603Y257197D02*
Y260189D01*
X158107Y268693D02*
X161099D01*
X159603Y267197D02*
Y270189D01*
X163107Y258693D02*
X166099D01*
X164603Y257197D02*
Y260189D01*
X183286Y293693D02*
X196081D01*
X189683Y287295D02*
Y300091D01*
X223286Y293693D02*
X236081D01*
X229683Y287295D02*
Y300091D01*
X195707Y268693D02*
X198699D01*
X197203Y267197D02*
Y270189D01*
X200707Y258693D02*
X203699D01*
X202203Y257197D02*
Y260189D01*
X205707Y268693D02*
X208699D01*
X207203Y267197D02*
Y270189D01*
X210707Y258693D02*
X213699D01*
X212203Y257197D02*
Y260189D01*
X215707Y268693D02*
X218699D01*
X217203Y267197D02*
Y270189D01*
X220707Y258693D02*
X223699D01*
X222203Y257197D02*
Y260189D01*
X245650Y313000D02*
X249150D01*
X247400Y311250D02*
Y314750D01*
X255650Y313000D02*
X259150D01*
X257400Y311250D02*
Y314750D01*
X281683Y160630D02*
X282884D01*
X282283Y160030D02*
Y161230D01*
X278534Y160630D02*
X279734D01*
X279134Y160030D02*
Y161230D01*
X275384Y160630D02*
X276584D01*
X275984Y160030D02*
Y161230D01*
X284833Y160630D02*
X286033D01*
X285433Y160030D02*
Y161230D01*
X262795Y155118D02*
X263976D01*
X263386Y154528D02*
Y155709D01*
X258858Y155118D02*
X260039D01*
X259449Y154528D02*
Y155709D01*
X266732Y155118D02*
X267913D01*
X267323Y154528D02*
Y155709D01*
X270669Y155118D02*
X271850D01*
X271260Y154528D02*
Y155709D01*
X258858Y160630D02*
X260039D01*
X259449Y160039D02*
Y161221D01*
X262795Y160630D02*
X263976D01*
X263386Y160039D02*
Y161221D01*
X266732Y160630D02*
X267913D01*
X267323Y160039D02*
Y161221D01*
X270669Y160630D02*
X271850D01*
X271260Y160039D02*
Y161221D01*
X310200Y142800D02*
X311400D01*
X310800Y142200D02*
Y143400D01*
X310200Y147300D02*
X311400D01*
X310800Y146700D02*
Y147900D01*
X292000Y147300D02*
X293200D01*
X292600Y146700D02*
Y147900D01*
X292000Y142800D02*
X293200D01*
X292600Y142200D02*
Y143400D01*
X173000Y231700D02*
X174200D01*
X173600Y231100D02*
Y232300D01*
X131200Y234100D02*
X132400D01*
X131800Y233500D02*
Y234700D01*
X131100Y231300D02*
X132300D01*
X131700Y230700D02*
Y231900D01*
X134300Y231300D02*
X135500D01*
X134900Y230700D02*
Y231900D01*
X134400Y234100D02*
X135600D01*
X135000Y233500D02*
Y234700D01*
X140600Y234000D02*
X141800D01*
X141200Y233400D02*
Y234600D01*
X140500Y231200D02*
X141700D01*
X141100Y230600D02*
Y231800D01*
X137300Y231200D02*
X138500D01*
X137900Y230600D02*
Y231800D01*
X137400Y234000D02*
X138600D01*
X138000Y233400D02*
Y234600D01*
X160900Y230500D02*
X162100D01*
X161500Y229900D02*
Y231100D01*
X270400Y316500D02*
X271600D01*
X271000Y315900D02*
Y317100D01*
X255900Y178000D02*
X257100D01*
X256500Y177400D02*
Y178600D01*
X255900Y189000D02*
X257100D01*
X256500Y188400D02*
Y189600D01*
X172900Y226000D02*
X174100D01*
X173500Y225400D02*
Y226600D01*
X251400Y184000D02*
X252600D01*
X252000Y183400D02*
Y184600D01*
X251400Y173000D02*
X252600D01*
X252000Y172400D02*
Y173600D01*
X281200Y238100D02*
X282400D01*
X281800Y237500D02*
Y238700D01*
X284600Y238100D02*
X285800D01*
X285200Y237500D02*
Y238700D01*
X278000Y238100D02*
X279200D01*
X278600Y237500D02*
Y238700D01*
X257000Y262800D02*
X258200D01*
X257600Y262200D02*
Y263400D01*
X260600Y262800D02*
X261800D01*
X261200Y262200D02*
Y263400D01*
X264200Y262700D02*
X265400D01*
X264800Y262100D02*
Y263300D01*
X278900Y262000D02*
X280100D01*
X279500Y261400D02*
Y262600D01*
X278900Y264900D02*
X280100D01*
X279500Y264300D02*
Y265500D01*
X276200Y264900D02*
X277400D01*
X276800Y264300D02*
Y265500D01*
X273300Y265000D02*
X274500D01*
X273900Y264400D02*
Y265600D01*
X266000Y265000D02*
X267200D01*
X266600Y264400D02*
Y265600D01*
X262400Y265000D02*
X263600D01*
X263000Y264400D02*
Y265600D01*
X259000Y265100D02*
X260200D01*
X259600Y264500D02*
Y265700D01*
X325900Y239500D02*
X327100D01*
X326500Y238900D02*
Y240100D01*
X280500Y247000D02*
X283500D01*
X282000Y245500D02*
Y248500D01*
X280500Y252000D02*
X283500D01*
X282000Y250500D02*
Y253500D01*
X340100Y270300D02*
X341300D01*
X340700Y269700D02*
Y270900D01*
X340000Y267200D02*
X341200D01*
X340600Y266600D02*
Y267800D01*
X340000Y264300D02*
X341200D01*
X340600Y263700D02*
Y264900D01*
X340000Y261400D02*
X341200D01*
X340600Y260800D02*
Y262000D01*
X339900Y258600D02*
X341100D01*
X340500Y258000D02*
Y259200D01*
X343100Y258600D02*
X344300D01*
X343700Y258000D02*
Y259200D01*
X343200Y261400D02*
X344400D01*
X343800Y260800D02*
Y262000D01*
X343200Y264300D02*
X344400D01*
X343800Y263700D02*
Y264900D01*
X343200Y267200D02*
X344400D01*
X343800Y266600D02*
Y267800D01*
X343300Y270300D02*
X344500D01*
X343900Y269700D02*
Y270900D01*
X337100Y270400D02*
X338300D01*
X337700Y269800D02*
Y271000D01*
X337000Y267300D02*
X338200D01*
X337600Y266700D02*
Y267900D01*
X337000Y264400D02*
X338200D01*
X337600Y263800D02*
Y265000D01*
X337000Y261500D02*
X338200D01*
X337600Y260900D02*
Y262100D01*
X336900Y258700D02*
X338100D01*
X337500Y258100D02*
Y259300D01*
X333700Y258700D02*
X334900D01*
X334300Y258100D02*
Y259300D01*
X333800Y261500D02*
X335000D01*
X334400Y260900D02*
Y262100D01*
X333800Y264400D02*
X335000D01*
X334400Y263800D02*
Y265000D01*
X333800Y267300D02*
X335000D01*
X334400Y266700D02*
Y267900D01*
X333900Y270400D02*
X335100D01*
X334500Y269800D02*
Y271000D01*
X340200Y285200D02*
X341400D01*
X340800Y284600D02*
Y285800D01*
X340100Y282100D02*
X341300D01*
X340700Y281500D02*
Y282700D01*
X340100Y279200D02*
X341300D01*
X340700Y278600D02*
Y279800D01*
X340100Y276300D02*
X341300D01*
X340700Y275700D02*
Y276900D01*
X340000Y273500D02*
X341200D01*
X340600Y272900D02*
Y274100D01*
X343200Y273500D02*
X344400D01*
X343800Y272900D02*
Y274100D01*
X343300Y276300D02*
X344500D01*
X343900Y275700D02*
Y276900D01*
X343300Y279200D02*
X344500D01*
X343900Y278600D02*
Y279800D01*
X343300Y282100D02*
X344500D01*
X343900Y281500D02*
Y282700D01*
X343400Y285200D02*
X344600D01*
X344000Y284600D02*
Y285800D01*
X337200Y285300D02*
X338400D01*
X337800Y284700D02*
Y285900D01*
X337100Y282200D02*
X338300D01*
X337700Y281600D02*
Y282800D01*
X337100Y279300D02*
X338300D01*
X337700Y278700D02*
Y279900D01*
X337100Y276400D02*
X338300D01*
X337700Y275800D02*
Y277000D01*
X337000Y273600D02*
X338200D01*
X337600Y273000D02*
Y274200D01*
X333800Y273600D02*
X335000D01*
X334400Y273000D02*
Y274200D01*
X333900Y276400D02*
X335100D01*
X334500Y275800D02*
Y277000D01*
X333900Y279300D02*
X335100D01*
X334500Y278700D02*
Y279900D01*
X333900Y282200D02*
X335100D01*
X334500Y281600D02*
Y282800D01*
X334000Y285300D02*
X335200D01*
X334600Y284700D02*
Y285900D01*
X201400Y194400D02*
X202600D01*
X202000Y193800D02*
Y195000D01*
X201300Y191300D02*
X202500D01*
X201900Y190700D02*
Y191900D01*
X201300Y188400D02*
X202500D01*
X201900Y187800D02*
Y189000D01*
X201300Y185500D02*
X202500D01*
X201900Y184900D02*
Y186100D01*
X201200Y182700D02*
X202400D01*
X201800Y182100D02*
Y183300D01*
X204400Y182700D02*
X205600D01*
X205000Y182100D02*
Y183300D01*
X204500Y185500D02*
X205700D01*
X205100Y184900D02*
Y186100D01*
X204500Y188400D02*
X205700D01*
X205100Y187800D02*
Y189000D01*
X204500Y191300D02*
X205700D01*
X205100Y190700D02*
Y191900D01*
X204600Y194400D02*
X205800D01*
X205200Y193800D02*
Y195000D01*
X198400Y194500D02*
X199600D01*
X199000Y193900D02*
Y195100D01*
X198300Y191400D02*
X199500D01*
X198900Y190800D02*
Y192000D01*
X198300Y188500D02*
X199500D01*
X198900Y187900D02*
Y189100D01*
X198300Y185600D02*
X199500D01*
X198900Y185000D02*
Y186200D01*
X198200Y182800D02*
X199400D01*
X198800Y182200D02*
Y183400D01*
X195000Y182800D02*
X196200D01*
X195600Y182200D02*
Y183400D01*
X195100Y185600D02*
X196300D01*
X195700Y185000D02*
Y186200D01*
X195100Y188500D02*
X196300D01*
X195700Y187900D02*
Y189100D01*
X195100Y191400D02*
X196300D01*
X195700Y190800D02*
Y192000D01*
X195200Y194500D02*
X196400D01*
X195800Y193900D02*
Y195100D01*
X201500Y209400D02*
X202700D01*
X202100Y208800D02*
Y210000D01*
X201400Y206300D02*
X202600D01*
X202000Y205700D02*
Y206900D01*
X201400Y203400D02*
X202600D01*
X202000Y202800D02*
Y204000D01*
X201400Y200500D02*
X202600D01*
X202000Y199900D02*
Y201100D01*
X201300Y197700D02*
X202500D01*
X201900Y197100D02*
Y198300D01*
X204500Y197700D02*
X205700D01*
X205100Y197100D02*
Y198300D01*
X204600Y200500D02*
X205800D01*
X205200Y199900D02*
Y201100D01*
X204600Y203400D02*
X205800D01*
X205200Y202800D02*
Y204000D01*
X204600Y206300D02*
X205800D01*
X205200Y205700D02*
Y206900D01*
X204700Y209400D02*
X205900D01*
X205300Y208800D02*
Y210000D01*
X198500Y209500D02*
X199700D01*
X199100Y208900D02*
Y210100D01*
X198400Y206400D02*
X199600D01*
X199000Y205800D02*
Y207000D01*
X198400Y203500D02*
X199600D01*
X199000Y202900D02*
Y204100D01*
X198400Y200600D02*
X199600D01*
X199000Y200000D02*
Y201200D01*
X198300Y197800D02*
X199500D01*
X198900Y197200D02*
Y198400D01*
X195100Y197800D02*
X196300D01*
X195700Y197200D02*
Y198400D01*
X195200Y200600D02*
X196400D01*
X195800Y200000D02*
Y201200D01*
X195200Y203500D02*
X196400D01*
X195800Y202900D02*
Y204100D01*
X195200Y206400D02*
X196400D01*
X195800Y205800D02*
Y207000D01*
X195300Y209500D02*
X196500D01*
X195900Y208900D02*
Y210100D01*
X263400Y193000D02*
X264600D01*
X264000Y192400D02*
Y193600D01*
X266500Y192900D02*
X267700D01*
X267100Y192300D02*
Y193500D01*
X269400Y192900D02*
X270600D01*
X270000Y192300D02*
Y193500D01*
X272300Y192900D02*
X273500D01*
X272900Y192300D02*
Y193500D01*
X275100Y192800D02*
X276300D01*
X275700Y192200D02*
Y193400D01*
X275100Y196000D02*
X276300D01*
X275700Y195400D02*
Y196600D01*
X272300Y196100D02*
X273500D01*
X272900Y195500D02*
Y196700D01*
X269400Y196100D02*
X270600D01*
X270000Y195500D02*
Y196700D01*
X266500Y196100D02*
X267700D01*
X267100Y195500D02*
Y196700D01*
X263400Y196200D02*
X264600D01*
X264000Y195600D02*
Y196800D01*
X263300Y190000D02*
X264500D01*
X263900Y189400D02*
Y190600D01*
X266400Y189900D02*
X267600D01*
X267000Y189300D02*
Y190500D01*
X269300Y189900D02*
X270500D01*
X269900Y189300D02*
Y190500D01*
X272200Y189900D02*
X273400D01*
X272800Y189300D02*
Y190500D01*
X275000Y189800D02*
X276200D01*
X275600Y189200D02*
Y190400D01*
X275000Y186600D02*
X276200D01*
X275600Y186000D02*
Y187200D01*
X272200Y186700D02*
X273400D01*
X272800Y186100D02*
Y187300D01*
X269300Y186700D02*
X270500D01*
X269900Y186100D02*
Y187300D01*
X266400Y186700D02*
X267600D01*
X267000Y186100D02*
Y187300D01*
X263300Y186800D02*
X264500D01*
X263900Y186200D02*
Y187400D01*
X243000Y236500D02*
X244200D01*
X243600Y235900D02*
Y237100D01*
X242900Y233400D02*
X244100D01*
X243500Y232800D02*
Y234000D01*
X242900Y230500D02*
X244100D01*
X243500Y229900D02*
Y231100D01*
X242900Y227600D02*
X244100D01*
X243500Y227000D02*
Y228200D01*
X242800Y224800D02*
X244000D01*
X243400Y224200D02*
Y225400D01*
X246000Y224800D02*
X247200D01*
X246600Y224200D02*
Y225400D01*
X246100Y227600D02*
X247300D01*
X246700Y227000D02*
Y228200D01*
X246100Y230500D02*
X247300D01*
X246700Y229900D02*
Y231100D01*
X246100Y233400D02*
X247300D01*
X246700Y232800D02*
Y234000D01*
X246200Y236500D02*
X247400D01*
X246800Y235900D02*
Y237100D01*
X240000Y236600D02*
X241200D01*
X240600Y236000D02*
Y237200D01*
X239900Y233500D02*
X241100D01*
X240500Y232900D02*
Y234100D01*
X239900Y230600D02*
X241100D01*
X240500Y230000D02*
Y231200D01*
X239900Y227700D02*
X241100D01*
X240500Y227100D02*
Y228300D01*
X239800Y224900D02*
X241000D01*
X240400Y224300D02*
Y225500D01*
X236600Y224900D02*
X237800D01*
X237200Y224300D02*
Y225500D01*
X236700Y227700D02*
X237900D01*
X237300Y227100D02*
Y228300D01*
X236700Y230600D02*
X237900D01*
X237300Y230000D02*
Y231200D01*
X236700Y233500D02*
X237900D01*
X237300Y232900D02*
Y234100D01*
X236800Y236600D02*
X238000D01*
X237400Y236000D02*
Y237200D01*
X269400Y180300D02*
X270600D01*
X270000Y179700D02*
Y180900D01*
X269300Y177200D02*
X270500D01*
X269900Y176600D02*
Y177800D01*
X269300Y174300D02*
X270500D01*
X269900Y173700D02*
Y174900D01*
X269300Y171400D02*
X270500D01*
X269900Y170800D02*
Y172000D01*
X269200Y168600D02*
X270400D01*
X269800Y168000D02*
Y169200D01*
X272400Y168600D02*
X273600D01*
X273000Y168000D02*
Y169200D01*
X272500Y171400D02*
X273700D01*
X273100Y170800D02*
Y172000D01*
X272500Y174300D02*
X273700D01*
X273100Y173700D02*
Y174900D01*
X272500Y177200D02*
X273700D01*
X273100Y176600D02*
Y177800D01*
X272600Y180300D02*
X273800D01*
X273200Y179700D02*
Y180900D01*
X266400Y180400D02*
X267600D01*
X267000Y179800D02*
Y181000D01*
X266300Y177300D02*
X267500D01*
X266900Y176700D02*
Y177900D01*
X266300Y174400D02*
X267500D01*
X266900Y173800D02*
Y175000D01*
X266300Y171500D02*
X267500D01*
X266900Y170900D02*
Y172100D01*
X266200Y168700D02*
X267400D01*
X266800Y168100D02*
Y169300D01*
X263000Y168700D02*
X264200D01*
X263600Y168100D02*
Y169300D01*
X263100Y171500D02*
X264300D01*
X263700Y170900D02*
Y172100D01*
X263100Y174400D02*
X264300D01*
X263700Y173800D02*
Y175000D01*
X263100Y177300D02*
X264300D01*
X263700Y176700D02*
Y177900D01*
X263200Y180400D02*
X264400D01*
X263800Y179800D02*
Y181000D01*
X182200Y317200D02*
X183400D01*
X182800Y316600D02*
Y317800D01*
X182100Y314100D02*
X183300D01*
X182700Y313500D02*
Y314700D01*
X182100Y311200D02*
X183300D01*
X182700Y310600D02*
Y311800D01*
X182100Y308300D02*
X183300D01*
X182700Y307700D02*
Y308900D01*
X182000Y305500D02*
X183200D01*
X182600Y304900D02*
Y306100D01*
X185200Y305500D02*
X186400D01*
X185800Y304900D02*
Y306100D01*
X185300Y308300D02*
X186500D01*
X185900Y307700D02*
Y308900D01*
X185300Y311200D02*
X186500D01*
X185900Y310600D02*
Y311800D01*
X185300Y314100D02*
X186500D01*
X185900Y313500D02*
Y314700D01*
X185400Y317200D02*
X186600D01*
X186000Y316600D02*
Y317800D01*
X179200Y317300D02*
X180400D01*
X179800Y316700D02*
Y317900D01*
X179100Y314200D02*
X180300D01*
X179700Y313600D02*
Y314800D01*
X179100Y311300D02*
X180300D01*
X179700Y310700D02*
Y311900D01*
X179100Y308400D02*
X180300D01*
X179700Y307800D02*
Y309000D01*
X179000Y305600D02*
X180200D01*
X179600Y305000D02*
Y306200D01*
X175800Y305600D02*
X177000D01*
X176400Y305000D02*
Y306200D01*
X175900Y308400D02*
X177100D01*
X176500Y307800D02*
Y309000D01*
X175900Y311300D02*
X177100D01*
X176500Y310700D02*
Y311900D01*
X175900Y314200D02*
X177100D01*
X176500Y313600D02*
Y314800D01*
X176000Y317300D02*
X177200D01*
X176600Y316700D02*
Y317900D01*
X232100Y317200D02*
X233300D01*
X232700Y316600D02*
Y317800D01*
X232000Y314100D02*
X233200D01*
X232600Y313500D02*
Y314700D01*
X232000Y311200D02*
X233200D01*
X232600Y310600D02*
Y311800D01*
X232000Y308300D02*
X233200D01*
X232600Y307700D02*
Y308900D01*
X231900Y305500D02*
X233100D01*
X232500Y304900D02*
Y306100D01*
X235100Y305500D02*
X236300D01*
X235700Y304900D02*
Y306100D01*
X235200Y308300D02*
X236400D01*
X235800Y307700D02*
Y308900D01*
X235200Y311200D02*
X236400D01*
X235800Y310600D02*
Y311800D01*
X235200Y314100D02*
X236400D01*
X235800Y313500D02*
Y314700D01*
X235300Y317200D02*
X236500D01*
X235900Y316600D02*
Y317800D01*
X229100Y317300D02*
X230300D01*
X229700Y316700D02*
Y317900D01*
X229000Y314200D02*
X230200D01*
X229600Y313600D02*
Y314800D01*
X229000Y311300D02*
X230200D01*
X229600Y310700D02*
Y311900D01*
X229000Y308400D02*
X230200D01*
X229600Y307800D02*
Y309000D01*
X228900Y305600D02*
X230100D01*
X229500Y305000D02*
Y306200D01*
X225700Y305600D02*
X226900D01*
X226300Y305000D02*
Y306200D01*
X225800Y308400D02*
X227000D01*
X226400Y307800D02*
Y309000D01*
X225800Y311300D02*
X227000D01*
X226400Y310700D02*
Y311900D01*
X225800Y314200D02*
X227000D01*
X226400Y313600D02*
Y314800D01*
X225900Y317300D02*
X227100D01*
X226500Y316700D02*
Y317900D01*
X137200Y316000D02*
X138400D01*
X137800Y315400D02*
Y316600D01*
X137100Y312900D02*
X138300D01*
X137700Y312300D02*
Y313500D01*
X137100Y310000D02*
X138300D01*
X137700Y309400D02*
Y310600D01*
X137100Y307100D02*
X138300D01*
X137700Y306500D02*
Y307700D01*
X137000Y304300D02*
X138200D01*
X137600Y303700D02*
Y304900D01*
X140200Y304300D02*
X141400D01*
X140800Y303700D02*
Y304900D01*
X140300Y307100D02*
X141500D01*
X140900Y306500D02*
Y307700D01*
X140300Y310000D02*
X141500D01*
X140900Y309400D02*
Y310600D01*
X140300Y312900D02*
X141500D01*
X140900Y312300D02*
Y313500D01*
X140400Y316000D02*
X141600D01*
X141000Y315400D02*
Y316600D01*
X134200Y316100D02*
X135400D01*
X134800Y315500D02*
Y316700D01*
X134100Y313000D02*
X135300D01*
X134700Y312400D02*
Y313600D01*
X134100Y310100D02*
X135300D01*
X134700Y309500D02*
Y310700D01*
X134100Y307200D02*
X135300D01*
X134700Y306600D02*
Y307800D01*
X134000Y304400D02*
X135200D01*
X134600Y303800D02*
Y305000D01*
X130800Y304400D02*
X132000D01*
X131400Y303800D02*
Y305000D01*
X130900Y307200D02*
X132100D01*
X131500Y306600D02*
Y307800D01*
X130900Y310100D02*
X132100D01*
X131500Y309500D02*
Y310700D01*
X130900Y313000D02*
X132100D01*
X131500Y312400D02*
Y313600D01*
X131000Y316100D02*
X132200D01*
X131600Y315500D02*
Y316700D01*
X113000Y275100D02*
X114200D01*
X113600Y274500D02*
Y275700D01*
X112900Y272000D02*
X114100D01*
X113500Y271400D02*
Y272600D01*
X112900Y269100D02*
X114100D01*
X113500Y268500D02*
Y269700D01*
X112900Y266200D02*
X114100D01*
X113500Y265600D02*
Y266800D01*
X112800Y263400D02*
X114000D01*
X113400Y262800D02*
Y264000D01*
X116000Y263400D02*
X117200D01*
X116600Y262800D02*
Y264000D01*
X116100Y266200D02*
X117300D01*
X116700Y265600D02*
Y266800D01*
X116100Y269100D02*
X117300D01*
X116700Y268500D02*
Y269700D01*
X116100Y272000D02*
X117300D01*
X116700Y271400D02*
Y272600D01*
X116200Y275100D02*
X117400D01*
X116800Y274500D02*
Y275700D01*
X110000Y275200D02*
X111200D01*
X110600Y274600D02*
Y275800D01*
X109900Y272100D02*
X111100D01*
X110500Y271500D02*
Y272700D01*
X109900Y269200D02*
X111100D01*
X110500Y268600D02*
Y269800D01*
X109900Y266300D02*
X111100D01*
X110500Y265700D02*
Y266900D01*
X109800Y263500D02*
X111000D01*
X110400Y262900D02*
Y264100D01*
X106600Y263500D02*
X107800D01*
X107200Y262900D02*
Y264100D01*
X106700Y266300D02*
X107900D01*
X107300Y265700D02*
Y266900D01*
X106700Y269200D02*
X107900D01*
X107300Y268600D02*
Y269800D01*
X106700Y272100D02*
X107900D01*
X107300Y271500D02*
Y272700D01*
X106800Y275200D02*
X108000D01*
X107400Y274600D02*
Y275800D01*
X107100Y290200D02*
X108300D01*
X107700Y289600D02*
Y290800D01*
X107000Y287100D02*
X108200D01*
X107600Y286500D02*
Y287700D01*
X107000Y284200D02*
X108200D01*
X107600Y283600D02*
Y284800D01*
X107000Y281300D02*
X108200D01*
X107600Y280700D02*
Y281900D01*
X106900Y278500D02*
X108100D01*
X107500Y277900D02*
Y279100D01*
X110100Y278500D02*
X111300D01*
X110700Y277900D02*
Y279100D01*
X110200Y281300D02*
X111400D01*
X110800Y280700D02*
Y281900D01*
X110200Y284200D02*
X111400D01*
X110800Y283600D02*
Y284800D01*
X110200Y287100D02*
X111400D01*
X110800Y286500D02*
Y287700D01*
X110300Y290200D02*
X111500D01*
X110900Y289600D02*
Y290800D01*
X209900Y249400D02*
X211100D01*
X210500Y248800D02*
Y250000D01*
X206400Y249500D02*
X207600D01*
X207000Y248900D02*
Y250100D01*
X203300Y249400D02*
X204500D01*
X203900Y248800D02*
Y250000D01*
X200200Y249500D02*
X201400D01*
X200800Y248900D02*
Y250100D01*
X197100Y249500D02*
X198300D01*
X197700Y248900D02*
Y250100D01*
X222900Y226500D02*
X224100D01*
X223500Y225900D02*
Y227100D01*
X272900Y209500D02*
X274100D01*
X273500Y208900D02*
Y210100D01*
X277900Y209500D02*
X279100D01*
X278500Y208900D02*
Y210100D01*
X267900Y209500D02*
X269100D01*
X268500Y208900D02*
Y210100D01*
X116500Y290100D02*
X117700D01*
X117100Y289500D02*
Y290700D01*
X116400Y287000D02*
X117600D01*
X117000Y286400D02*
Y287600D01*
X116400Y284100D02*
X117600D01*
X117000Y283500D02*
Y284700D01*
X116400Y281200D02*
X117600D01*
X117000Y280600D02*
Y281800D01*
X116300Y278400D02*
X117500D01*
X116900Y277800D02*
Y279000D01*
X113100Y278400D02*
X114300D01*
X113700Y277800D02*
Y279000D01*
X113200Y281200D02*
X114400D01*
X113800Y280600D02*
Y281800D01*
X113200Y284100D02*
X114400D01*
X113800Y283500D02*
Y284700D01*
X113200Y287000D02*
X114400D01*
X113800Y286400D02*
Y287600D01*
X113300Y290100D02*
X114500D01*
X113900Y289500D02*
Y290700D01*
X167000Y241300D02*
X168200D01*
X167600Y240700D02*
Y241900D01*
X154400Y241500D02*
X155600D01*
X155000Y240900D02*
Y242100D01*
X240631Y189100D02*
X241831D01*
X241231Y188500D02*
Y189700D01*
X240531Y178300D02*
X241731D01*
X241131Y177700D02*
Y178900D01*
X298100Y142800D02*
X299300D01*
X298700Y142200D02*
Y143400D01*
X304100Y142800D02*
X305300D01*
X304700Y142200D02*
Y143400D01*
X304100Y147300D02*
X305300D01*
X304700Y146700D02*
Y147900D01*
X298100Y147300D02*
X299300D01*
X298700Y146700D02*
Y147900D01*
M02*
